{
.appVersion = "3192";
.formatVersion = 3;
axes = (
{
name = Weight;
tag = wght;
}
);
classes = (
{
automatic = 1;
code = "A Aacute Abreve Acircumflex Adieresis Agrave Amacron Aogonek Aring Atilde AE B C Cacute Ccaron Ccedilla Cdotaccent D Dcaron Dcroat Eth E Eacute Ecaron Ecircumflex Edieresis Edotaccent Egrave Emacron Eogonek F G Gbreve Gcommaaccent Gdotaccent H Hbar I IJ Iacute Icircumflex Idieresis Idotaccent Igrave Imacron Iogonek J K Kcommaaccent L Lacute Lcaron Lcommaaccent Ldot Lslash M N Nacute Ncaron Ncommaaccent Ntilde Eng O Oacute Ocircumflex Odieresis Ograve Ohungarumlaut Omacron Oslash Otilde OE P Thorn Q R Racute Rcaron Rcommaaccent S Sacute Scaron Scedilla Scommaaccent Germandbls T Tbar Tcaron Tcedilla Tcommaaccent U Uacute Ubreve Ucircumflex Udieresis Ugrave Uhungarumlaut Umacron Uogonek Uring V W Wacute Wcircumflex Wdieresis Wgrave X Y Yacute Ycircumflex Ydieresis Ygrave Z Zacute Zcaron Zdotaccent";
name = Uppercase;
}
);
customParameters = (
{
name = fsType;
value = (
);
},
{
name = "Use Typo Metrics";
value = 1;
},
{
name = "Write lastChange";
value = 0;
},
{
name = "Use Line Breaks";
value = 1;
},
{
name = "Disable Subroutines";
value = 0;
},
{
name = "Axis Mappings";
value = {
wght = {
400 = 400;
500 = 500;
600 = 600;
700 = 650;
800 = 900;
};
};
}
);
date = "2023-05-02 03:54:46 +0000";
familyName = Sen;
featurePrefixes = (
{
automatic = 1;
code = "languagesystem DFLT dflt;

languagesystem latn dflt;
languagesystem latn AZE;
languagesystem latn CRT;
languagesystem latn KAZ;
languagesystem latn TAT;
languagesystem latn TRK;
languagesystem latn ROM;
languagesystem latn MOL;
languagesystem latn CAT;
";
name = Languagesystems;
}
);
features = (
{
automatic = 1;
code = "feature locl;
feature sups;
feature frac;
feature ordn;
";
tag = aalt;
},
{
code = "sub t t by tt;
sub k o s a l by whiteSmilingFace;
sub t a n t a n by whiteSmilingFace;
sub s t a r l e e by whiteSmilingFace;
sub colon D by whiteSmilingFace;";
tag = liga;
},
{
automatic = 1;

glyphs = (
{
color = 4;
glyphname = A;
layers = (
{
anchors = (
{
name = ogonek;
pos = (667,10);
},
{
name = top;
pos = (346,670);
}
);
background = {
anchors = (
{
name = ogonek;
pos = (667,10);
},
{
name = top;
pos = (346,670);
}
);
shapes = (
{
closed = 1;
nodes = (
(323,670,l),
(10,0,l),
(118,0,l),
(347,518,l),
(573,0,l),
(681,0,l),
(368,670,l)
);
},
{
closed = 1;
nodes = (
(167,245,l),
(167,160,l),
(538,160,l),
(538,245,l)
);
}
);
};
layerId = "DEFEBCF2-9FF2-4B76-ADC8-AB6BD79F23E7";
shapes = (
{
closed = 1;
nodes = (
(118,0,l),
(347,518,l),
(573,0,l),
(681,0,l),
(368,670,l),
(323,670,l),
(10,0,l)
);
},
{
closed = 1;
nodes = (
(538,160,l),
(538,245,l),
(167,245,l),
(167,160,l)
);
}
);
width = 691;
},
{
anchors = (
{
name = ogonek;
pos = (653,10);
},
{
name = top;
pos = (364,670);
}
);
background = {
anchors = (
{
name = ogonek;
pos = (653,10);
},
{
name = top;
pos = (364,670);
}
);
shapes = (
{
closed = 1;
nodes = (
(319,680,l),
(15,0,l),
(233,0,l),
(366,378,l),
(499,0,l),
(717,0,l),
(413,680,l)
);
},
{
closed = 1;
nodes = (
(166,240,l),
(166,100,l),
(547,100,l),
(547,240,l)
);
}
);
};
layerId = "2D992F1A-8218-4049-8E15-5955C72037C9";
metricLeft = "=V";
metricRight = "=V";
shapes = (
{
closed = 1;
nodes = (
(233,0,l),
(366,378,l),
(499,0,l),
(717,0,l),
(413,680,l),
(319,680,l),
(15,0,l)
);
},
{
closed = 1;
nodes = (
(547,100,l),
(547,240,l),
(166,240,l),
(166,100,l)
);
}
);
width = 732;
}
);
metricLeft = "=V";
metricRight = "=V";
unicode = 65;
},
{
color = 4;
glyphname = Aacute;
layers = (
{
background = {
anchors = (
{
name = ogonek;
pos = (667,10);
},
{
name = top;
pos = (346,670);
}
);
shapes = (
{
closed = 1;
nodes = (
(323,670,l),
(10,0,l),
(118,0,l),
(347,518,l),
(573,0,l),
(681,0,l),
(368,670,l)
);
},
{
closed = 1;
nodes = (
(167,245,l),
(167,160,l),
(538,160,l),
(538,245,l)
);
},
{
closed = 1;
nodes = (
(404,890,l),
(294,755,l),
(376,755,l),
(518,890,l)
);
}
);
};
layerId = "DEFEBCF2-9FF2-4B76-ADC8-AB6BD79F23E7";
shapes = (
{
ref = A;
},
{
pos = (224,170);
ref = acutecomb;
}
);
width = 691;
},
{
background = {
anchors = (
{
name = ogonek;
pos = (653,10);
},
{
name = top;
pos = (364,670);
}
);
shapes = (
{
closed = 1;
nodes = (
(319,680,l),
(15,0,l),
(233,0,l),
(366,378,l),
(499,0,l),
(717,0,l),
(413,680,l)
);
},
{
closed = 1;
nodes = (
(166,240,l),
(166,100,l),
(547,100,l),
(547,240,l)
);
},
{
closed = 1;
nodes = (
(380,870,l),
(280,720,l),
(402,720,l),
(534,870,l)
);
}
);
};
layerId = "2D992F1A-8218-4049-8E15-5955C72037C9";
shapes = (
{
ref = A;
},
{
pos = (200,160);
ref = acutecomb;
}
);
width = 732;
}
);
unicode = 193;
},
{
color = 4;
glyphname = Abreve;
layers = (
{
background = {
anchors = (
{
name = ogonek;
pos = (667,10);
},
{
name = top;
pos = (346,670);
}
);
shapes = (
{
closed = 1;
nodes = (
(323,670,l),
(10,0,l),
(118,0,l),
(347,518,l),
(573,0,l),
(681,0,l),
(368,670,l)
);
},
{
closed = 1;
nodes = (
(167,245,l),
(167,160,l),
(538,160,l),
(538,245,l)
);
},
{
closed = 1;
nodes = (
(436,890,l),
(430,842,o),
(399,808,o),
(346,808,cs),
(293,808,o),
(262,842,o),
(256,890,c),
(184,890,l),
(187,798,o),
(256,740,o),
(346,740,cs),
(436,740,o),
(505,798,o),
(508,890,c)
);
}
);
};
layerId = "DEFEBCF2-9FF2-4B76-ADC8-AB6BD79F23E7";
shapes = (
{
ref = A;
},
{
pos = (104,170);
ref = brevecomb;
}
);
width = 691;
},
{
background = {
anchors = (
{
name = ogonek;
pos = (653,10);
},
{
name = top;
pos = (364,670);
}
);
shapes = (
{
closed = 1;
nodes = (
(319,680,l),
(15,0,l),
(233,0,l),
(366,378,l),
(499,0,l),
(717,0,l),
(413,680,l)
);
},
{
closed = 1;
nodes = (
(166,240,l),
(166,100,l),
(547,100,l),
(547,240,l)
);
},
{
closed = 1;
nodes = (
(424,870,l),
(418,852,o),
(397,828,o),
(364,828,cs),
(331,828,o),
(310,842,o),
(304,870,c),
(202,870,l),
(205,778,o),
(274,720,o),
(364,720,cs),
(454,720,o),
(523,778,o),
(526,870,c)
);
}
);
};
layerId = "2D992F1A-8218-4049-8E15-5955C72037C9";
shapes = (
{
ref = A;
},
{
pos = (122,160);
ref = brevecomb;
}
);
width = 732;
}
);
unicode = 258;
},
{
color = 4;
glyphname = Acircumflex;
layers = (
{
background = {
anchors = (
{
name = ogonek;
pos = (667,10);
},
{
name = top;
pos = (346,670);
}
);
shapes = (
{
closed = 1;
nodes = (
(323,670,l),
(10,0,l),
(118,0,l),
(347,518,l),
(573,0,l),
(681,0,l),
(368,670,l)
);
},
{
closed = 1;
nodes = (
(167,245,l),
(167,160,l),
(538,160,l),
(538,245,l)
);
},
{
closed = 1;
nodes = (
(324,890,l),
(184,751,l),
(266,751,l),
(346,829,l),
(426,751,l),
(508,751,l),
(368,890,l)
);
}
);
};
layerId = "DEFEBCF2-9FF2-4B76-ADC8-AB6BD79F23E7";
shapes = (
{
ref = A;
},
{
pos = (104,170);
ref = circumflexcomb;
}
);
width = 691;
},
{
background = {
anchors = (
{
name = ogonek;
pos = (653,10);
},
{
name = top;
pos = (364,670);
}
);
shapes = (
{
closed = 1;
nodes = (
(319,680,l),
(15,0,l),
(233,0,l),
(366,378,l),
(499,0,l),
(717,0,l),
(413,680,l)
);
},
{
closed = 1;
nodes = (
(166,240,l),
(166,100,l),
(547,100,l),
(547,240,l)
);
},
{
closed = 1;
nodes = (
(312,870,l),
(192,720,l),
(324,720,l),
(364,779,l),
(404,720,l),
(536,720,l),
(416,870,l)
);
}
);
};
layerId = "2D992F1A-8218-4049-8E15-5955C72037C9";
shapes = (
{
ref = A;
},
{
pos = (112,160);
ref = circumflexcomb;
}
);
width = 732;
}
);
unicode = 194;
},
{
color = 4;
glyphname = Adieresis;
layers = (
{
background = {
anchors = (
{
name = ogonek;
pos = (667,10);
},
{
name = top;
pos = (346,670);
}
);
shapes = (
{
closed = 1;
nodes = (
(323,670,l),
(10,0,l),
(118,0,l),
(347,518,l),
(573,0,l),
(681,0,l),
(368,670,l)
);
},
{
closed = 1;
nodes = (
(167,245,l),
(167,160,l),
(538,160,l),
(538,245,l)
);
},
{
closed = 1;
nodes = (
(416,889,o),
(388,861,o),
(388,826,cs),
(388,792,o),
(416,763,o),
(451,763,c),
(485,763,o),
(514,792,o),
(514,826,cs),
(514,861,o),
(485,889,o),
(451,889,cs)
);
},
{
closed = 1;
nodes = (
(206,889,o),
(178,861,o),
(178,826,cs),
(178,792,o),
(206,763,o),
(241,763,c),
(275,763,o),
(304,792,o),
(304,826,cs),
(304,861,o),
(275,889,o),
(241,889,cs)
);
}
);
};
layerId = "DEFEBCF2-9FF2-4B76-ADC8-AB6BD79F23E7";
shapes = (
{
ref = A;
},
{
pos = (98,170);
ref = dieresiscomb;
}
);
width = 691;
},
{
background = {
anchors = (
{
name = ogonek;
pos = (653,10);
},
{
name = top;
pos = (364,670);
}
);
shapes = (
{
closed = 1;
nodes = (
(319,680,l),
(15,0,l),
(233,0,l),
(366,378,l),
(499,0,l),
(717,0,l),
(413,680,l)
);
},
{
closed = 1;
nodes = (
(166,240,l),
(166,100,l),
(547,100,l),
(547,240,l)
);
},
{
closed = 1;
nodes = (
(427,885,o),
(393,851,o),
(393,809,cs),
(393,768,o),
(427,733,o),
(469,733,c),
(510,733,o),
(545,768,o),
(545,809,cs),
(545,851,o),
(510,885,o),
(469,885,cs)
);
},
{
closed = 1;
nodes = (
(217,885,o),
(183,851,o),
(183,809,cs),
(183,768,o),
(217,733,o),
(259,733,c),
(300,733,o),
(335,768,o),
(335,809,cs),
(335,851,o),
(300,885,o),
(259,885,cs)
);
}
);
};
layerId = "2D992F1A-8218-4049-8E15-5955C72037C9";
shapes = (
{
ref = A;
},
{
pos = (97,160);
ref = dieresiscomb;
}
);
width = 732;
}
);
unicode = 196;
},
{
color = 4;
glyphname = Agrave;
layers = (
{
background = {
anchors = (
{
name = ogonek;
pos = (667,10);
},
{
name = top;
pos = (346,670);
}
);
shapes = (
{
closed = 1;
nodes = (
(323,670,l),
(10,0,l),
(118,0,l),
(347,518,l),
(573,0,l),
(681,0,l),
(368,670,l)
);
},
{
closed = 1;
nodes = (
(167,245,l),
(167,160,l),
(538,160,l),
(538,245,l)
);
},
{
closed = 1;
nodes = (
(309,755,l),
(391,755,l),
(281,890,l),
(167,890,l)
);
}
);
};
layerId = "DEFEBCF2-9FF2-4B76-ADC8-AB6BD79F23E7";
shapes = (
{
ref = A;
},
{
pos = (148,170);
ref = gravecomb;
}
);
width = 691;
},
{
background = {
anchors = (
{
name = ogonek;
pos = (653,10);
},
{
name = top;
pos = (364,670);
}
);
shapes = (
{
closed = 1;
nodes = (
(319,680,l),
(15,0,l),
(233,0,l),
(366,378,l),
(499,0,l),
(717,0,l),
(413,680,l)
);
},
{
closed = 1;
nodes = (
(166,240,l),
(166,100,l),
(547,100,l),
(547,240,l)
);
},
{
closed = 1;
nodes = (
(174,870,l),
(306,720,l),
(428,720,l),
(328,870,l)
);
}
);
};
layerId = "2D992F1A-8218-4049-8E15-5955C72037C9";
shapes = (
{
ref = A;
},
{
pos = (94,160);
ref = gravecomb;
}
);
width = 732;
}
);
unicode = 192;
},
{
color = 4;
glyphname = Amacron;
layers = (
{
background = {
anchors = (
{
name = ogonek;
pos = (667,10);
},
{
name = top;
pos = (346,670);
}
);
shapes = (
{
closed = 1;
nodes = (
(323,670,l),
(10,0,l),
(118,0,l),
(347,518,l),
(573,0,l),
(681,0,l),
(368,670,l)
);
},
{
closed = 1;
nodes = (
(167,245,l),
(167,160,l),
(538,160,l),
(538,245,l)
);
},
{
closed = 1;
nodes = (
(171,888,l),
(171,808,l),
(521,808,l),
(521,888,l)
);
}
);
};
layerId = "DEFEBCF2-9FF2-4B76-ADC8-AB6BD79F23E7";
shapes = (
{
ref = A;
},
{
pos = (81,170);
ref = macroncomb;
}
);
width = 691;
},
{
background = {
anchors = (
{
name = ogonek;
pos = (653,10);
},
{
name = top;
pos = (364,670);
}
);
shapes = (
{
closed = 1;
nodes = (
(319,680,l),
(15,0,l),
(233,0,l),
(366,378,l),
(499,0,l),
(717,0,l),
(413,680,l)
);
},
{
closed = 1;
nodes = (
(166,240,l),
(166,100,l),
(547,100,l),
(547,240,l)
);
},
{
closed = 1;
nodes = (
(179,870,l),
(179,760,l),
(549,760,l),
(549,870,l)
);
}
);
};
layerId = "2D992F1A-8218-4049-8E15-5955C72037C9";
shapes = (
{
ref = A;
},
{
pos = (79,160);
ref = macroncomb;
}
);
width = 732;
}
);
unicode = 256;
},
{
color = 4;
glyphname = Aogonek;
layers = (
{
background = {
anchors = (
{
name = ogonek;
pos = (667,10);
},
{
name = top;
pos = (346,670);
}
);
shapes = (
{
closed = 1;
nodes = (
(323,670,l),
(10,0,l),
(118,0,l),
(347,518,l),
(573,0,l),
(681,0,l),
(368,670,l)
);
},
{
closed = 1;
nodes = (
(167,245,l),
(167,160,l),
(538,160,l),
(538,245,l)
);
},
{
closed = 1;
nodes = (
(545,-12,o),
(471,-56,o),
(471,-126,cs),
(471,-192,o),
(528,-225,o),
(588,-225,cs),
(624,-225,o),
(648,-207,o),
(662,-200,c),
(662,-131,l),
(647,-141,o),
(631,-149,o),
(608,-149,cs),
(573,-149,o),
(555,-126,o),
(555,-98,cs),
(555,-54,o),
(615,-18,o),
(662,1,c),
(582,1,l)
);
}
);
};
layerId = "DEFEBCF2-9FF2-4B76-ADC8-AB6BD79F23E7";
shapes = (
{
ref = A;
},
{
pos = (288,0);
ref = ogonekcomb;
}
);
width = 691;
},
{
background = {
anchors = (
{
name = ogonek;
pos = (653,10);
},
{
name = top;
pos = (364,670);
}
);
shapes = (
{
closed = 1;
nodes = (
(319,680,l),
(15,0,l),
(233,0,l),
(366,378,l),
(499,0,l),
(717,0,l),
(413,680,l)
);
},
{
closed = 1;
nodes = (
(166,240,l),
(166,100,l),
(547,100,l),
(547,240,l)
);
},
{
closed = 1;
nodes = (
(456,-13,o),
(396,-56,o),
(396,-126,cs),
(396,-192,o),
(463,-225,o),
(523,-225,cs),
(579,-225,o),
(623,-210,o),
(637,-203,c),
(637,-90,l),
(622,-100,o),
(606,-108,o),
(583,-108,cs),
(562,-108,o),
(547,-94,o),
(547,-73,cs),
(547,-51,o),
(594,-13,o),
(653,1,c),
(513,1,l)
);
}
);
};
layerId = "2D992F1A-8218-4049-8E15-5955C72037C9";
shapes = (
{
ref = A;
},
{
pos = (263,0);
ref = ogonekcomb;
}
);
width = 732;
}
);
unicode = 260;
},
{
color = 4;
glyphname = Aring;
layers = (
{
background = {
anchors = (
{
name = ogonek;
pos = (667,10);
},
{
name = top;
pos = (346,670);
}
);
shapes = (
{
closed = 1;
nodes = (
(323,670,l),
(10,0,l),
(118,0,l),
(347,518,l),
(573,0,l),
(681,0,l),
(368,670,l)
);
},
{
closed = 1;
nodes = (
(167,245,l),
(167,160,l),
(538,160,l),
(538,245,l)
);
},
{
closed = 1;
nodes = (
(298,895,o),
(263,857,o),
(263,812,cs),
(263,767,o),
(298,729,o),
(346,729,cs),
(394,729,o),
(428,767,o),
(428,812,cs),
(428,857,o),
(394,895,o),
(346,895,cs)
);
},
{
closed = 1;
nodes = (
(368,854,o),
(386,834,o),
(386,812,cs),
(386,789,o),
(368,770,o),
(346,770,cs),
(323,770,o),
(305,789,o),
(305,812,cs),
(305,834,o),
(323,854,o),
(346,854,cs)
);
}
);
};
layerId = "DEFEBCF2-9FF2-4B76-ADC8-AB6BD79F23E7";
shapes = (
{
ref = A;
},
{
pos = (183,170);
ref = ringcomb;
}
);
width = 691;
},
{
background = {
anchors = (
{
name = ogonek;
pos = (653,10);
},
{
name = top;
pos = (364,670);
}
);
shapes = (
{
closed = 1;
nodes = (
(319,680,l),
(15,0,l),
(233,0,l),
(366,378,l),
(499,0,l),
(717,0,l),
(413,680,l)
);
},
{
closed = 1;
nodes = (
(166,240,l),
(166,100,l),
(547,100,l),
(547,240,l)
);
},
{
closed = 1;
nodes = (
(311,893,o),
(267,853,o),
(267,802,cs),
(267,751,o),
(311,711,o),
(364,711,cs),
(417,711,o),
(460,751,o),
(460,802,cs),
(460,853,o),
(417,893,o),
(364,893,cs)
);
},
{
closed = 1;
nodes = (
(384,838,o),
(402,822,o),
(402,802,cs),
(402,781,o),
(384,766,o),
(364,766,cs),
(343,766,o),
(325,781,o),
(325,802,cs),
(325,822,o),
(343,838,o),
(364,838,cs)
);
}
);
};
layerId = "2D992F1A-8218-4049-8E15-5955C72037C9";
shapes = (
{
ref = A;
},
{
pos = (193,160);
ref = ringcomb;
}
);
width = 732;
}
);
unicode = 197;
},
{
color = 4;
glyphname = Atilde;
layers = (
{
background = {
anchors = (
{
name = ogonek;
pos = (667,10);
},
{
name = top;
pos = (346,670);
}
);
shapes = (
{
closed = 1;
nodes = (
(323,670,l),
(10,0,l),
(118,0,l),
(347,518,l),
(573,0,l),
(681,0,l),
(368,670,l)
);
},
{
closed = 1;
nodes = (
(167,245,l),
(167,160,l),
(538,160,l),
(538,245,l)
);
},
{
closed = 1;
nodes = (
(452,874,l),
(452,849,o),
(440,828,o),
(416,828,cs),
(374,828,o),
(363,879,o),
(290,879,cs),
(230,879,o),
(186,834,o),
(186,776,c),
(254,776,l),
(254,801,o),
(267,822,o),
(290,822,cs),
(332,822,o),
(343,771,o),
(416,771,cs),
(476,771,o),
(520,816,o),
(520,874,c)
);
}
);
};
layerId = "DEFEBCF2-9FF2-4B76-ADC8-AB6BD79F23E7";
shapes = (
{
ref = A;
},
{
pos = (110,154);
ref = tildecomb;
}
);
width = 691;
},
{
background = {
anchors = (
{
name = ogonek;
pos = (653,10);
},
{
name = top;
pos = (364,670);
}
);
shapes = (
{
closed = 1;
nodes = (
(319,680,l),
(15,0,l),
(233,0,l),
(366,378,l),
(499,0,l),
(717,0,l),
(413,680,l)
);
},
{
closed = 1;
nodes = (
(166,240,l),
(166,100,l),
(547,100,l),
(547,240,l)
);
},
{
closed = 1;
nodes = (
(461,845,l),
(461,822,o),
(450,808,o),
(428,808,cs),
(400,808,o),
(377,849,o),
(311,849,cs),
(241,849,o),
(183,803,o),
(183,710,c),
(277,710,l),
(277,733,o),
(289,747,o),
(310,747,cs),
(338,747,o),
(361,706,o),
(427,706,cs),
(497,706,o),
(555,752,o),
(555,845,c)
);
}
);
};
layerId = "2D992F1A-8218-4049-8E15-5955C72037C9";
shapes = (
{
ref = A;
},
{
pos = (139,160);
ref = tildecomb;
}
);
width = 732;
}
);
unicode = 195;
},
{
color = 4;
glyphname = AE;
layers = (
{
anchors = (
{
name = ogonek;
pos = (334,10);
},
{
name = top;
pos = (63,670);
}
);
background = {
anchors = (
{
name = bottom;
pos = (753,0);
},
{
name = ogonek;
pos = (334,10);
},
{
name = top;
pos = (63,670);
}
);
shapes = (
{
closed = 1;
nodes = (
(503,670,l),
(10,0,l),
(128,0,l),
(532,568,l),
(554,670,l)
);
},
{
closed = 1;
nodes = (
(247,270,l),
(247,193,l),
(568,193,l),
(568,270,l)
);
},
{
closed = 1;
nodes = (
(543,670,l),
(543,0,l),
(1002,0,l),
(1002,85,l),
(633,85,l),
(633,585,l),
(1002,585,l),
(1002,670,l)
);
},
{
closed = 1;
nodes = (
(600,386,l),
(600,301,l),
(959,301,l),
(959,386,l)
);
}
);
};
layerId = "DEFEBCF2-9FF2-4B76-ADC8-AB6BD79F23E7";
metricRight = "=E";
shapes = (
{
closed = 1;
nodes = (
(128,0,l),
(532,568,l),
(554,670,l),
(503,670,l),
(10,0,l)
);
},
{
closed = 1;
nodes = (
(568,193,l),
(568,270,l),
(247,270,l),
(247,193,l)
);
},
{
pos = (433,0);
ref = E;
}
);
width = 1072;
},
{
anchors = (
{
name = ogonek;
pos = (359,10);
},
{
name = top;
pos = (88,670);
}
);
background = {
anchors = (
{
name = bottom;
pos = (752,0);
},
{
name = ogonek;
pos = (359,10);
},
{
name = top;
pos = (88,670);
}
);
shapes = (
{
closed = 1;
nodes = (
(488,670,l),
(15,0,l),
(203,0,l),
(557,508,l),
(579,670,l)
);
},
{
closed = 1;
nodes = (
(272,270,l),
(272,133,l),
(593,133,l),
(593,270,l)
);
},
{
closed = 1;
nodes = (
(508,670,l),
(508,0,l),
(1002,0,l),
(1002,160,l),
(695,160,l),
(695,515,l),
(1002,515,l),
(1002,670,l)
);
},
{
closed = 1;
nodes = (
(613,414,l),
(613,264,l),
(968,264,l),
(968,414,l)
);
}
);
};
layerId = "2D992F1A-8218-4049-8E15-5955C72037C9";
metricLeft = "=V";
shapes = (
{
closed = 1;
nodes = (
(203,0,l),
(557,508,l),
(579,670,l),
(488,670,l),
(15,0,l)
);
},
{
closed = 1;
nodes = (
(593,133,l),
(593,270,l),
(272,270,l),
(272,133,l)
);
},
{
pos = (428,0);
ref = E;
}
);
width = 1072;
}
);
metricLeft = "=V";
metricRight = "=E";
unicode = 198;
},
{
color = 4;
glyphname = B;
layers = (
{
background = {
shapes = (
{
closed = 1;
nodes = (
(264,686,o),
(179,677,o),
(110,661,c),
(110,15,l),
(173,1,o),
(271,-10,o),
(354,-10,cs),
(516,-10,o),
(618,77,o),
(618,189,cs),
(618,286,o),
(550,336,o),
(491,348,c),
(547,374,o),
(589,433,o),
(589,498,cs),
(589,607,o),
(493,686,o),
(346,686,cs)
);
},
{
closed = 1;
nodes = (
(424,601,o),
(497,565,o),
(497,494,cs),
(497,433,o),
(448,379,o),
(357,379,cs),
(184,379,l),
(184,299,l),
(359,299,ls),
(452,299,o),
(526,262,o),
(526,189,cs),
(526,119,o),
(452,75,o),
(352,75,cs),
(315,75,o),
(248,78,o),
(200,87,c),
(200,589,l),
(241,597,o),
(284,601,o),
(340,601,cs)
);
}
);
};
layerId = "DEFEBCF2-9FF2-4B76-ADC8-AB6BD79F23E7";
metricLeft = "=L";
metricRight = "=L";
shapes = (
{
closed = 1;
nodes = (
(516,-10,o),
(618,77,o),
(618,189,cs),
(618,286,o),
(550,336,o),
(491,348,c),
(547,374,o),
(589,433,o),
(589,498,cs),
(589,607,o),
(493,686,o),
(346,686,cs),
(264,686,o),
(179,677,o),
(110,661,c),
(110,15,l),
(173,1,o),
(271,-10,o),
(354,-10,cs)
);
},
{
closed = 1;
nodes = (
(315,75,o),
(248,78,o),
(200,87,c),
(200,589,l),
(241,597,o),
(284,601,o),
(340,601,cs),
(424,601,o),
(497,565,o),
(497,494,cs),
(497,433,o),
(448,379,o),
(357,379,cs),
(184,379,l),
(184,299,l),
(359,299,ls),
(452,299,o),
(526,262,o),
(526,189,cs),
(526,119,o),
(452,75,o),
(352,75,cs)
);
}
);
width = 663;
},
{
background = {
shapes = (
{
closed = 1;
nodes = (
(253,686,o),
(161,676,o),
(80,660,c),
(80,15,l),
(143,1,o),
(282,-15,o),
(375,-15,cs),
(557,-15,o),
(654,85,o),
(654,197,cs),
(654,286,o),
(598,322,o),
(536,344,c),
(588,373,o),
(624,423,o),
(624,491,cs),
(624,607,o),
(524,686,o),
(349,686,cs)
);
},
{
closed = 1;
nodes = (
(415,527,o),
(440,493,o),
(440,457,cs),
(440,415,o),
(415,394,o),
(371,394,cs),
(237,394,l),
(237,269,l),
(365,269,ls),
(419,269,o),
(454,253,o),
(454,213,cs),
(454,172,o),
(426,140,o),
(372,140,cs),
(351,140,o),
(295,143,o),
(267,152,c),
(267,519,l),
(291,524,o),
(334,527,o),
(366,527,cs)
);
}
);
};
layerId = "2D992F1A-8218-4049-8E15-5955C72037C9";
metricLeft = "=L";
shapes = (
{
closed = 1;
nodes = (
(557,-15,o),
(654,85,o),
(654,197,cs),
(654,286,o),
(598,322,o),
(536,344,c),
(588,373,o),
(624,423,o),
(624,491,cs),
(624,607,o),
(524,686,o),
(349,686,cs),
(253,686,o),
(161,676,o),
(80,660,c),
(80,15,l),
(143,1,o),
(282,-15,o),
(375,-15,cs)
);
},
{
closed = 1;
nodes = (
(351,140,o),
(295,143,o),
(267,152,c),
(267,519,l),
(291,524,o),
(334,527,o),
(366,527,cs),
(415,527,o),
(440,493,o),
(440,457,cs),
(440,415,o),
(415,394,o),
(371,394,cs),
(237,394,l),
(237,269,l),
(365,269,ls),
(419,269,o),
(454,253,o),
(454,213,cs),
(454,172,o),
(426,140,o),
(372,140,cs)
);
}
);
width = 694;
}
);
metricLeft = "=I";
metricRight = "=O";
unicode = 66;
},
{
color = 4;
glyphname = C;
layers = (
{
anchors = (
{
name = bottom;
pos = (397,0);
},
{
name = top;
pos = (405,670);
}
);
background = {
anchors = (
{
name = bottom;
pos = (397,0);
},
{
name = top;
pos = (405,670);
}
);
shapes = (
{
closed = 1;
nodes = (
(201,685,o),
(50,527,o),
(50,335,cs),
(50,143,o),
(201,-15,o),
(403,-15,cs),
(500,-15,o),
(577,19,o),
(624,61,c),
(624,151,l),
(577,115,o),
(505,73,o),
(403,73,cs),
(253,73,o),
(142,185,o),
(142,335,cs),
(142,485,o),
(253,597,o),
(403,597,cs),
(505,597,o),
(559,545,o),
(604,514,c),
(604,613,l),
(557,655,o),
(500,685,o),
(403,685,cs)
);
}
);
};
layerId = "DEFEBCF2-9FF2-4B76-ADC8-AB6BD79F23E7";
metricLeft = "=O";
metricRight = "=O";
shapes = (
{
closed = 1;
nodes = (
(500,-15,o),
(577,19,o),
(624,61,c),
(624,151,l),
(577,115,o),
(505,73,o),
(403,73,cs),
(253,73,o),
(142,185,o),
(142,335,cs),
(142,485,o),
(253,597,o),
(403,597,cs),
(505,597,o),
(559,545,o),
(604,514,c),
(604,613,l),
(557,655,o),
(500,685,o),
(403,685,cs),
(201,685,o),
(50,527,o),
(50,335,cs),
(50,143,o),
(201,-15,o),
(403,-15,cs)
);
}
);
width = 674;
},
{
anchors = (
{
name = bottom;
pos = (389,0);
},
{
name = top;
pos = (394,670);
}
);
background = {
anchors = (
{
name = bottom;
pos = (389,0);
},
{
name = top;
pos = (394,670);
}
);
shapes = (
{
closed = 1;
nodes = (
(213,685,o),
(40,557,o),
(40,335,cs),
(40,113,o),
(213,-15,o),
(395,-15,cs),
(465,-15,o),
(527,5,o),
(572,44,c),
(572,225,l),
(519,182,o),
(479,160,o),
(402,160,cs),
(312,160,o),
(232,235,o),
(232,335,cs),
(232,435,o),
(312,510,o),
(402,510,cs),
(479,510,o),
(519,488,o),
(572,445,c),
(572,626,l),
(527,665,o),
(465,685,o),
(395,685,cs)
);
}
);
};
layerId = "2D992F1A-8218-4049-8E15-5955C72037C9";
shapes = (
{
closed = 1;
nodes = (
(465,-15,o),
(527,5,o),
(572,44,c),
(572,225,l),
(519,182,o),
(479,160,o),
(402,160,cs),
(312,160,o),
(232,235,o),
(232,335,cs),
(232,435,o),
(312,510,o),
(402,510,cs),
(479,510,o),
(519,488,o),
(572,445,c),
(572,626,l),
(527,665,o),
(465,685,o),
(395,685,cs),
(213,685,o),
(40,557,o),
(40,335,cs),
(40,113,o),
(213,-15,o),
(395,-15,cs)
);
}
);
width = 612;
}
);
metricLeft = "=O";
metricRight = "=O";
unicode = 67;
},
{
color = 4;
glyphname = Cacute;
layers = (
{
background = {
anchors = (
{
name = bottom;
pos = (397,0);
},
{
name = top;
pos = (405,670);
}
);
shapes = (
{
closed = 1;
nodes = (
(201,685,o),
(50,527,o),
(50,335,cs),
(50,143,o),
(201,-15,o),
(403,-15,cs),
(500,-15,o),
(577,19,o),
(624,61,c),
(624,151,l),
(577,115,o),
(505,73,o),
(403,73,cs),
(253,73,o),
(142,185,o),
(142,335,cs),
(142,485,o),
(253,597,o),
(403,597,cs),
(505,597,o),
(559,545,o),
(604,514,c),
(604,613,l),
(557,655,o),
(500,685,o),
(403,685,cs)
);
},
{
closed = 1;
nodes = (
(463,890,l),
(353,755,l),
(435,755,l),
(577,890,l)
);
}
);
};
layerId = "DEFEBCF2-9FF2-4B76-ADC8-AB6BD79F23E7";
shapes = (
{
ref = C;
},
{
pos = (283,170);
ref = acutecomb;
}
);
width = 674;
},
{
background = {
anchors = (
{
name = bottom;
pos = (389,0);
},
{
name = top;
pos = (394,670);
}
);
shapes = (
{
closed = 1;
nodes = (
(213,685,o),
(40,557,o),
(40,335,cs),
(40,113,o),
(213,-15,o),
(395,-15,cs),
(465,-15,o),
(527,5,o),
(572,44,c),
(572,225,l),
(519,182,o),
(479,160,o),
(402,160,cs),
(312,160,o),
(232,235,o),
(232,335,cs),
(232,435,o),
(312,510,o),
(402,510,cs),
(479,510,o),
(519,488,o),
(572,445,c),
(572,626,l),
(527,665,o),
(465,685,o),
(395,685,cs)
);
},
{
closed = 1;
nodes = (
(410,870,l),
(310,720,l),
(432,720,l),
(564,870,l)
);
}
);
};
layerId = "2D992F1A-8218-4049-8E15-5955C72037C9";
shapes = (
{
ref = C;
},
{
pos = (230,160);
ref = acutecomb;
}
);
width = 612;
}
);
unicode = 262;
},
{
color = 4;
glyphname = Ccaron;
layers = (
{
background = {
anchors = (
{
name = bottom;
pos = (397,0);
},
{
name = top;
pos = (405,670);
}
);
shapes = (
{
closed = 1;
nodes = (
(201,685,o),
(50,527,o),
(50,335,cs),
(50,143,o),
(201,-15,o),
(403,-15,cs),
(500,-15,o),
(577,19,o),
(624,61,c),
(624,151,l),
(577,115,o),
(505,73,o),
(403,73,cs),
(253,73,o),
(142,185,o),
(142,335,cs),
(142,485,o),
(253,597,o),
(403,597,cs),
(505,597,o),
(559,545,o),
(604,514,c),
(604,613,l),
(557,655,o),
(500,685,o),
(403,685,cs)
);
},
{
closed = 1;
nodes = (
(383,751,l),
(427,751,l),
(567,890,l),
(485,890,l),
(405,812,l),
(325,890,l),
(243,890,l)
);
}
);
};
layerId = "DEFEBCF2-9FF2-4B76-ADC8-AB6BD79F23E7";
shapes = (
{
ref = C;
},
{
pos = (163,170);
ref = caroncomb;
}
);
width = 674;
},
{
background = {
anchors = (
{
name = bottom;
pos = (389,0);
},
{
name = top;
pos = (394,670);
}
);
shapes = (
{
closed = 1;
nodes = (
(213,685,o),
(40,557,o),
(40,335,cs),
(40,113,o),
(213,-15,o),
(395,-15,cs),
(465,-15,o),
(527,5,o),
(572,44,c),
(572,225,l),
(519,182,o),
(479,160,o),
(402,160,cs),
(312,160,o),
(232,235,o),
(232,335,cs),
(232,435,o),
(312,510,o),
(402,510,cs),
(479,510,o),
(519,488,o),
(572,445,c),
(572,626,l),
(527,665,o),
(465,685,o),
(395,685,cs)
);
},
{
closed = 1;
nodes = (
(342,720,l),
(446,720,l),
(566,870,l),
(434,870,l),
(394,811,l),
(354,870,l),
(222,870,l)
);
}
);
};
layerId = "2D992F1A-8218-4049-8E15-5955C72037C9";
shapes = (
{
ref = C;
},
{
pos = (162,160);
ref = caroncomb;
}
);
width = 612;
}
);
unicode = 268;
},
{
color = 4;
glyphname = Ccedilla;
layers = (
{
background = {
anchors = (
{
name = bottom;
pos = (397,0);
},
{
name = top;
pos = (405,670);
}
);
shapes = (
{
closed = 1;
nodes = (
(201,685,o),
(50,527,o),
(50,335,cs),
(50,143,o),
(201,-15,o),
(403,-15,cs),
(500,-15,o),
(577,19,o),
(624,61,c),
(624,151,l),
(577,115,o),
(505,73,o),
(403,73,cs),
(253,73,o),
(142,185,o),
(142,335,cs),
(142,485,o),
(253,597,o),
(403,597,cs),
(505,597,o),
(559,545,o),
(604,514,c),
(604,613,l),
(557,655,o),
(500,685,o),
(403,685,cs)
);
},
{
closed = 1;
nodes = (
(369,2,l),
(355,-118,l),
(371,-130,l),
(384,-123,o),
(396,-121,o),
(406,-121,cs),
(431,-121,o),
(445,-132,o),
(445,-150,cs),
(445,-168,o),
(429,-181,o),
(406,-181,cs),
(377,-181,o),
(353,-171,o),
(332,-160,c),
(325,-215,l),
(346,-232,o),
(383,-240,o),
(403,-240,cs),
(472,-240,o),
(513,-200,o),
(513,-147,cs),
(513,-98,o),
(472,-63,o),
(417,-70,c),
(423,2,l)
);
}
);
};
layerId = "DEFEBCF2-9FF2-4B76-ADC8-AB6BD79F23E7";
shapes = (
{
ref = C;
},
{
pos = (240,0);
ref = cedillacomb;
}
);
width = 674;
},
{
background = {
anchors = (
{
name = bottom;
pos = (389,0);
},
{
name = top;
pos = (394,670);
}
);
shapes = (
{
closed = 1;
nodes = (
(213,685,o),
(40,557,o),
(40,335,cs),
(40,113,o),
(213,-15,o),
(395,-15,cs),
(465,-15,o),
(527,5,o),
(572,44,c),
(572,225,l),
(519,182,o),
(479,160,o),
(402,160,cs),
(312,160,o),
(232,235,o),
(232,335,cs),
(232,435,o),
(312,510,o),
(402,510,cs),
(479,510,o),
(519,488,o),
(572,445,c),
(572,626,l),
(527,665,o),
(465,685,o),
(395,685,cs)
);
},
{
closed = 1;
nodes = (
(328,2,l),
(316,-114,l),
(340,-126,l),
(353,-119,o),
(360,-117,o),
(370,-117,cs),
(385,-117,o),
(400,-125,o),
(400,-141,cs),
(400,-159,o),
(381,-167,o),
(368,-167,cs),
(339,-167,o),
(319,-152,o),
(298,-141,c),
(291,-215,l),
(312,-232,o),
(351,-240,o),
(371,-240,cs),
(440,-240,o),
(489,-199,o),
(489,-131,cs),
(489,-82,o),
(453,-44,o),
(399,-46,c),
(402,2,l)
);
}
);
};
layerId = "2D992F1A-8218-4049-8E15-5955C72037C9";
shapes = (
{
ref = C;
},
{
pos = (211,0);
ref = cedillacomb;
}
);
width = 612;
}
);
unicode = 199;
},
{
color = 4;
glyphname = D;
layers = (
{
anchors = (
{
name = center;
pos = (397,335);
},
{
name = top;
pos = (367,670);
}
);
background = {
anchors = (
{
name = center;
pos = (397,335);
},
{
name = top;
pos = (367,670);
}
);
shapes = (
{
closed = 1;
nodes = (
(264,686,o),
(191,676,o),
(110,661,c),
(110,15,l),
(191,0,o),
(264,-10,o),
(356,-10,cs),
(581,-10,o),
(709,140,o),
(709,338,cs),
(709,536,o),
(581,686,o),
(356,686,cs)
);
},
{
closed = 1;
nodes = (
(518,601,o),
(617,488,o),
(617,338,cs),
(617,188,o),
(518,75,o),
(356,75,cs),
(308,75,o),
(250,79,o),
(200,85,c),
(200,591,l),
(250,597,o),
(308,601,o),
(356,601,cs)
);
}
);
};
layerId = "DEFEBCF2-9FF2-4B76-ADC8-AB6BD79F23E7";
metricLeft = "=L";
metricRight = "=O";
shapes = (
{
closed = 1;
nodes = (
(581,-10,o),
(709,140,o),
(709,338,cs),
(709,536,o),
(581,686,o),
(356,686,cs),
(264,686,o),
(191,676,o),
(110,661,c),
(110,15,l),
(191,0,o),
(264,-10,o),
(356,-10,cs)
);
},
{
closed = 1;
nodes = (
(308,75,o),
(250,79,o),
(200,85,c),
(200,591,l),
(250,597,o),
(308,601,o),
(356,601,cs),
(518,601,o),
(617,488,o),
(617,338,cs),
(617,188,o),
(518,75,o),
(356,75,cs)
);
}
);
width = 759;
},
{
anchors = (
{
name = center;
pos = (380,335);
},
{
name = top;
pos = (320,670);
}
);
background = {
anchors = (
{
name = center;
pos = (380,335);
},
{
name = top;
pos = (320,670);
}
);
shapes = (
{
closed = 1;
nodes = (
(265,686,o),
(165,672,o),
(80,658,c),
(80,13,l),
(161,-4,o),
(276,-15,o),
(368,-15,cs),
(575,-15,o),
(711,148,o),
(711,346,cs),
(711,562,o),
(553,686,o),
(353,686,cs)
);
},
{
closed = 1;
nodes = (
(461,511,o),
(519,440,o),
(519,336,cs),
(519,237,o),
(461,160,o),
(359,160,cs),
(331,160,o),
(297,163,o),
(267,172,c),
(267,499,l),
(293,505,o),
(328,511,o),
(359,511,cs)
);
}
);
};
layerId = "2D992F1A-8218-4049-8E15-5955C72037C9";
metricLeft = "=L";
shapes = (
{
closed = 1;
nodes = (
(575,-15,o),
(711,148,o),
(711,346,cs),
(711,562,o),
(553,686,o),
(353,686,cs),
(265,686,o),
(165,672,o),
(80,658,c),
(80,13,l),
(161,-4,o),
(276,-15,o),
(368,-15,cs)
);
},
{
closed = 1;
nodes = (
(331,160,o),
(297,163,o),
(267,172,c),
(267,499,l),
(293,505,o),
(328,511,o),
(359,511,cs),
(461,511,o),
(519,440,o),
(519,336,cs),
(519,237,o),
(461,160,o),
(359,160,cs)
);
}
);
width = 751;
}
);
metricLeft = "=l";
metricRight = "=O";
unicode = 68;
},
{
color = 4;
glyphname = Dcaron;
layers = (
{
background = {
anchors = (
{
name = center;
pos = (397,335);
},
{
name = top;
pos = (367,670);
}
);
shapes = (
{
closed = 1;
nodes = (
(264,686,o),
(191,676,o),
(110,661,c),
(110,15,l),
(191,0,o),
(264,-10,o),
(356,-10,cs),
(581,-10,o),
(709,140,o),
(709,338,cs),
(709,536,o),
(581,686,o),
(356,686,cs)
);
},
{
closed = 1;
nodes = (
(518,601,o),
(617,488,o),
(617,338,cs),
(617,188,o),
(518,75,o),
(356,75,cs),
(308,75,o),
(250,79,o),
(200,85,c),
(200,591,l),
(250,597,o),
(308,601,o),
(356,601,cs)
);
},
{
closed = 1;
nodes = (
(345,751,l),
(389,751,l),
(529,890,l),
(447,890,l),
(367,812,l),
(287,890,l),
(205,890,l)
);
}
);
};
layerId = "DEFEBCF2-9FF2-4B76-ADC8-AB6BD79F23E7";
shapes = (
{
ref = D;
},
{
pos = (125,170);
ref = caroncomb;
}
);
width = 759;
},
{
background = {
anchors = (
{
name = center;
pos = (380,335);
},
{
name = top;
pos = (320,670);
}
);
shapes = (
{
closed = 1;
nodes = (
(265,686,o),
(165,672,o),
(80,658,c),
(80,13,l),
(161,-4,o),
(276,-15,o),
(368,-15,cs),
(575,-15,o),
(711,148,o),
(711,346,cs),
(711,562,o),
(553,686,o),
(353,686,cs)
);
},
{
closed = 1;
nodes = (
(461,511,o),
(519,440,o),
(519,336,cs),
(519,237,o),
(461,160,o),
(359,160,cs),
(331,160,o),
(297,163,o),
(267,172,c),
(267,499,l),
(293,505,o),
(328,511,o),
(359,511,cs)
);
},
{
closed = 1;
nodes = (
(268,720,l),
(372,720,l),
(492,870,l),
(360,870,l),
(320,811,l),
(280,870,l),
(148,870,l)
);
}
);
};
layerId = "2D992F1A-8218-4049-8E15-5955C72037C9";
shapes = (
{
ref = D;
},
{
pos = (88,160);
ref = caroncomb;
}
);
width = 751;
}
);
unicode = 270;
},
{
color = 4;
glyphname = Dcroat;
layers = (
{
background = {
anchors = (
{
name = center;
pos = (397,335);
},
{
name = top;
pos = (367,670);
}
);
shapes = (
{
closed = 1;
nodes = (
(264,686,o),
(191,676,o),
(110,661,c),
(110,15,l),
(191,0,o),
(264,-10,o),
(356,-10,cs),
(581,-10,o),
(709,140,o),
(709,338,cs),
(709,536,o),
(581,686,o),
(356,686,cs)
);
},
{
closed = 1;
nodes = (
(518,601,o),
(617,488,o),
(617,338,cs),
(617,188,o),
(518,75,o),
(356,75,cs),
(308,75,o),
(250,79,o),
(200,85,c),
(200,591,l),
(250,597,o),
(308,601,o),
(356,601,cs)
);
},
{
closed = 1;
nodes = (
(12,383,l),
(12,293,l),
(313,293,l),
(313,383,l)
);
}
);
};
layerId = "DEFEBCF2-9FF2-4B76-ADC8-AB6BD79F23E7";
shapes = (
{
ref = Eth;
}
);
width = 759;
},
{
background = {
anchors = (
{
name = center;
pos = (380,335);
},
{
name = top;
pos = (320,670);
}
);
shapes = (
{
closed = 1;
nodes = (
(265,686,o),
(165,672,o),
(80,658,c),
(80,13,l),
(161,-4,o),
(276,-15,o),
(368,-15,cs),
(575,-15,o),
(711,148,o),
(711,346,cs),
(711,562,o),
(553,686,o),
(353,686,cs)
);
},
{
closed = 1;
nodes = (
(461,511,o),
(519,440,o),
(519,336,cs),
(519,237,o),
(461,160,o),
(359,160,cs),
(331,160,o),
(297,163,o),
(267,172,c),
(267,499,l),
(293,505,o),
(328,511,o),
(359,511,cs)
);
},
{
closed = 1;
nodes = (
(26,411,l),
(26,261,l),
(327,261,l),
(327,411,l)
);
}
);
};
layerId = "2D992F1A-8218-4049-8E15-5955C72037C9";
shapes = (
{
ref = Eth;
}
);
width = 751;
}
);
unicode = 272;
},
{
color = 4;
glyphname = Eth;
layers = (
{
background = {
anchors = (
{
name = center;
pos = (397,335);
},
{
name = top;
pos = (367,670);
}
);
shapes = (
{
closed = 1;
nodes = (
(264,686,o),
(191,676,o),
(110,661,c),
(110,15,l),
(191,0,o),
(264,-10,o),
(356,-10,cs),
(581,-10,o),
(709,140,o),
(709,338,cs),
(709,536,o),
(581,686,o),
(356,686,cs)
);
},
{
closed = 1;
nodes = (
(518,601,o),
(617,488,o),
(617,338,cs),
(617,188,o),
(518,75,o),
(356,75,cs),
(308,75,o),
(250,79,o),
(200,85,c),
(200,591,l),
(250,597,o),
(308,601,o),
(356,601,cs)
);
},
{
closed = 1;
nodes = (
(12,383,l),
(12,293,l),
(313,293,l),
(313,383,l)
);
}
);
};
layerId = "DEFEBCF2-9FF2-4B76-ADC8-AB6BD79F23E7";
shapes = (
{
closed = 1;
nodes = (
(313,293,l),
(313,383,l),
(12,383,l),
(12,293,l)
);
},
{
ref = D;
}
);
width = 759;
},
{
background = {
anchors = (
{
name = center;
pos = (380,335);
},
{
name = top;
pos = (320,670);
}
);
shapes = (
{
closed = 1;
nodes = (
(265,686,o),
(165,672,o),
(80,658,c),
(80,13,l),
(161,-4,o),
(276,-15,o),
(368,-15,cs),
(575,-15,o),
(711,148,o),
(711,346,cs),
(711,562,o),
(553,686,o),
(353,686,cs)
);
},
{
closed = 1;
nodes = (
(461,511,o),
(519,440,o),
(519,336,cs),
(519,237,o),
(461,160,o),
(359,160,cs),
(331,160,o),
(297,163,o),
(267,172,c),
(267,499,l),
(293,505,o),
(328,511,o),
(359,511,cs)
);
},
{
closed = 1;
nodes = (
(26,411,l),
(26,261,l),
(327,261,l),
(327,411,l)
);
}
);
};
layerId = "2D992F1A-8218-4049-8E15-5955C72037C9";
shapes = (
{
closed = 1;
nodes = (
(327,261,l),
(327,411,l),
(26,411,l),
(26,261,l)
);
},
{
ref = D;
}
);
width = 751;
}
);
unicode = 208;
},
{
color = 4;
glyphname = E;
layers = (
{
anchors = (
{
name = bottom;
pos = (320,0);
},
{
name = ogonek;
pos = (574,10);
},
{
name = top;
pos = (340,670);
}
);
background = {
anchors = (
{
name = bottom;
pos = (320,0);
},
{
name = ogonek;
pos = (574,10);
},
{
name = top;
pos = (340,670);
}
);
shapes = (
{
closed = 1;
nodes = (
(110,670,l),
(110,0,l),
(569,0,l),
(569,85,l),
(200,85,l),
(200,585,l),
(569,585,l),
(569,670,l)
);
},
{
closed = 1;
nodes = (
(167,386,l),
(167,301,l),
(526,301,l),
(526,386,l)
);
}
);
};
layerId = "DEFEBCF2-9FF2-4B76-ADC8-AB6BD79F23E7";
metricLeft = "=L";
metricRight = "=|L-40";
shapes = (
{
closed = 1;
nodes = (
(569,0,l),
(569,85,l),
(200,85,l),
(200,585,l),
(569,585,l),
(569,670,l),
(110,670,l),
(110,0,l)
);
},
{
closed = 1;
nodes = (
(526,301,l),
(526,386,l),
(167,386,l),
(167,301,l)
);
}
);
width = 639;
},
{
anchors = (
{
name = bottom;
pos = (324,0);
},
{
name = ogonek;
pos = (575,10);
},
{
name = top;
pos = (324,670);
}
);
background = {
anchors = (
{
name = bottom;
pos = (324,0);
},
{
name = ogonek;
pos = (575,10);
},
{
name = top;
pos = (324,670);
}
);
shapes = (
{
closed = 1;
nodes = (
(80,670,l),
(80,0,l),
(574,0,l),
(574,160,l),
(267,160,l),
(267,515,l),
(574,515,l),
(574,670,l)
);
},
{
closed = 1;
nodes = (
(185,414,l),
(185,264,l),
(540,264,l),
(540,414,l)
);
}
);
};
layerId = "2D992F1A-8218-4049-8E15-5955C72037C9";
metricLeft = "=L";
metricRight = "=L+10";
shapes = (
{
closed = 1;
nodes = (
(574,0,l),
(574,160,l),
(267,160,l),
(267,515,l),
(574,515,l),
(574,670,l),
(80,670,l),
(80,0,l)
);
},
{
closed = 1;
nodes = (
(540,264,l),
(540,414,l),
(185,414,l),
(185,264,l)
);
}
);
width = 644;
}
);
metricLeft = "=I";
metricRight = "=I-30";
unicode = 69;
},
{
color = 4;
glyphname = Eacute;
layers = (
{
background = {
anchors = (
{
name = bottom;
pos = (320,0);
},
{
name = ogonek;
pos = (574,10);
},
{
name = top;
pos = (340,670);
}
);
shapes = (
{
closed = 1;
nodes = (
(110,670,l),
(110,0,l),
(569,0,l),
(569,85,l),
(200,85,l),
(200,585,l),
(569,585,l),
(569,670,l)
);
},
{
closed = 1;
nodes = (
(167,386,l),
(167,301,l),
(526,301,l),
(526,386,l)
);
},
{
closed = 1;
nodes = (
(398,890,l),
(288,755,l),
(370,755,l),
(512,890,l)
);
}
);
};
layerId = "DEFEBCF2-9FF2-4B76-ADC8-AB6BD79F23E7";
shapes = (
{
ref = E;
},
{
pos = (218,170);
ref = acutecomb;
}
);
width = 639;
},
{
background = {
anchors = (
{
name = bottom;
pos = (324,0);
},
{
name = ogonek;
pos = (575,10);
},
{
name = top;
pos = (324,670);
}
);
shapes = (
{
closed = 1;
nodes = (
(80,670,l),
(80,0,l),
(574,0,l),
(574,160,l),
(267,160,l),
(267,515,l),
(574,515,l),
(574,670,l)
);
},
{
closed = 1;
nodes = (
(185,414,l),
(185,264,l),
(540,264,l),
(540,414,l)
);
},
{
closed = 1;
nodes = (
(340,870,l),
(240,720,l),
(362,720,l),
(494,870,l)
);
}
);
};
layerId = "2D992F1A-8218-4049-8E15-5955C72037C9";
shapes = (
{
ref = E;
},
{
pos = (160,160);
ref = acutecomb;
}
);
width = 644;
}
);
unicode = 201;
},
{
color = 4;
glyphname = Ecaron;
layers = (
{
background = {
anchors = (
{
name = bottom;
pos = (320,0);
},
{
name = ogonek;
pos = (574,10);
},
{
name = top;
pos = (340,670);
}
);
shapes = (
{
closed = 1;
nodes = (
(110,670,l),
(110,0,l),
(569,0,l),
(569,85,l),
(200,85,l),
(200,585,l),
(569,585,l),
(569,670,l)
);
},
{
closed = 1;
nodes = (
(167,386,l),
(167,301,l),
(526,301,l),
(526,386,l)
);
},
{
closed = 1;
nodes = (
(318,751,l),
(362,751,l),
(502,890,l),
(420,890,l),
(340,812,l),
(260,890,l),
(178,890,l)
);
}
);
};
layerId = "DEFEBCF2-9FF2-4B76-ADC8-AB6BD79F23E7";
shapes = (
{
ref = E;
},
{
pos = (98,170);
ref = caroncomb;
}
);
width = 639;
},
{
background = {
anchors = (
{
name = bottom;
pos = (324,0);
},
{
name = ogonek;
pos = (575,10);
},
{
name = top;
pos = (324,670);
}
);
shapes = (
{
closed = 1;
nodes = (
(80,670,l),
(80,0,l),
(574,0,l),
(574,160,l),
(267,160,l),
(267,515,l),
(574,515,l),
(574,670,l)
);
},
{
closed = 1;
nodes = (
(185,414,l),
(185,264,l),
(540,264,l),
(540,414,l)
);
},
{
closed = 1;
nodes = (
(272,720,l),
(376,720,l),
(496,870,l),
(364,870,l),
(324,811,l),
(284,870,l),
(152,870,l)
);
}
);
};
layerId = "2D992F1A-8218-4049-8E15-5955C72037C9";
shapes = (
{
ref = E;
},
{
pos = (92,160);
ref = caroncomb;
}
);
width = 644;
}
);
unicode = 282;
},
{
color = 4;
glyphname = Ecircumflex;
layers = (
{
background = {
anchors = (
{
name = bottom;
pos = (320,0);
},
{
name = ogonek;
pos = (574,10);
},
{
name = top;
pos = (340,670);
}
);
shapes = (
{
closed = 1;
nodes = (
(110,670,l),
(110,0,l),
(569,0,l),
(569,85,l),
(200,85,l),
(200,585,l),
(569,585,l),
(569,670,l)
);
},
{
closed = 1;
nodes = (
(167,386,l),
(167,301,l),
(526,301,l),
(526,386,l)
);
},
{
closed = 1;
nodes = (
(318,890,l),
(178,751,l),
(260,751,l),
(340,829,l),
(420,751,l),
(502,751,l),
(362,890,l)
);
}
);
};
layerId = "DEFEBCF2-9FF2-4B76-ADC8-AB6BD79F23E7";
shapes = (
{
ref = E;
},
{
pos = (98,170);
ref = circumflexcomb;
}
);
width = 639;
},
{
background = {
anchors = (
{
name = bottom;
pos = (324,0);
},
{
name = ogonek;
pos = (575,10);
},
{
name = top;
pos = (324,670);
}
);
shapes = (
{
closed = 1;
nodes = (
(80,670,l),
(80,0,l),
(574,0,l),
(574,160,l),
(267,160,l),
(267,515,l),
(574,515,l),
(574,670,l)
);
},
{
closed = 1;
nodes = (
(185,414,l),
(185,264,l),
(540,264,l),
(540,414,l)
);
},
{
closed = 1;
nodes = (
(272,870,l),
(152,720,l),
(284,720,l),
(324,779,l),
(364,720,l),
(496,720,l),
(376,870,l)
);
}
);
};
layerId = "2D992F1A-8218-4049-8E15-5955C72037C9";
shapes = (
{
ref = E;
},
{
pos = (72,160);
ref = circumflexcomb;
}
);
width = 644;
}
);
unicode = 202;
},
{
color = 4;
glyphname = Edieresis;
layers = (
{
background = {
anchors = (
{
name = bottom;
pos = (320,0);
},
{
name = ogonek;
pos = (574,10);
},
{
name = top;
pos = (340,670);
}
);
shapes = (
{
closed = 1;
nodes = (
(110,670,l),
(110,0,l),
(569,0,l),
(569,85,l),
(200,85,l),
(200,585,l),
(569,585,l),
(569,670,l)
);
},
{
closed = 1;
nodes = (
(167,386,l),
(167,301,l),
(526,301,l),
(526,386,l)
);
},
{
closed = 1;
nodes = (
(410,889,o),
(382,861,o),
(382,826,cs),
(382,792,o),
(410,763,o),
(445,763,c),
(479,763,o),
(508,792,o),
(508,826,cs),
(508,861,o),
(479,889,o),
(445,889,cs)
);
},
{
closed = 1;
nodes = (
(200,889,o),
(172,861,o),
(172,826,cs),
(172,792,o),
(200,763,o),
(235,763,c),
(269,763,o),
(298,792,o),
(298,826,cs),
(298,861,o),
(269,889,o),
(235,889,cs)
);
}
);
};
layerId = "DEFEBCF2-9FF2-4B76-ADC8-AB6BD79F23E7";
shapes = (
{
ref = E;
},
{
pos = (92,170);
ref = dieresiscomb;
}
);
width = 639;
},
{
background = {
anchors = (
{
name = bottom;
pos = (324,0);
},
{
name = ogonek;
pos = (575,10);
},
{
name = top;
pos = (324,670);
}
);
shapes = (
{
closed = 1;
nodes = (
(80,670,l),
(80,0,l),
(574,0,l),
(574,160,l),
(267,160,l),
(267,515,l),
(574,515,l),
(574,670,l)
);
},
{
closed = 1;
nodes = (
(185,414,l),
(185,264,l),
(540,264,l),
(540,414,l)
);
},
{
closed = 1;
nodes = (
(387,885,o),
(353,851,o),
(353,809,cs),
(353,768,o),
(387,733,o),
(429,733,c),
(470,733,o),
(505,768,o),
(505,809,cs),
(505,851,o),
(470,885,o),
(429,885,cs)
);
},
{
closed = 1;
nodes = (
(177,885,o),
(143,851,o),
(143,809,cs),
(143,768,o),
(177,733,o),
(219,733,c),
(260,733,o),
(295,768,o),
(295,809,cs),
(295,851,o),
(260,885,o),
(219,885,cs)
);
}
);
};
layerId = "2D992F1A-8218-4049-8E15-5955C72037C9";
shapes = (
{
ref = E;
},
{
pos = (57,160);
ref = dieresiscomb;
}
);
width = 644;
}
);
unicode = 203;
},
{
color = 4;
glyphname = Edotaccent;
layers = (
{
background = {
anchors = (
{
name = bottom;
pos = (320,0);
},
{
name = ogonek;
pos = (574,10);
},
{
name = top;
pos = (340,670);
}
);
shapes = (
{
closed = 1;
nodes = (
(110,670,l),
(110,0,l),
(569,0,l),
(569,85,l),
(200,85,l),
(200,585,l),
(569,585,l),
(569,670,l)
);
},
{
closed = 1;
nodes = (
(167,386,l),
(167,301,l),
(526,301,l),
(526,386,l)
);
},
{
closed = 1;
nodes = (
(305,890,o),
(277,862,o),
(277,827,cs),
(277,793,o),
(305,764,o),
(340,764,c),
(374,764,o),
(403,793,o),
(403,827,cs),
(403,862,o),
(374,890,o),
(340,890,cs)
);
}
);
};
layerId = "DEFEBCF2-9FF2-4B76-ADC8-AB6BD79F23E7";
shapes = (
{
ref = E;
},
{
pos = (190,170);
ref = dotaccentcomb;
}
);
width = 639;
},
{
background = {
anchors = (
{
name = bottom;
pos = (324,0);
},
{
name = ogonek;
pos = (575,10);
},
{
name = top;
pos = (324,670);
}
);
shapes = (
{
closed = 1;
nodes = (
(80,670,l),
(80,0,l),
(574,0,l),
(574,160,l),
(267,160,l),
(267,515,l),
(574,515,l),
(574,670,l)
);
},
{
closed = 1;
nodes = (
(185,414,l),
(185,264,l),
(540,264,l),
(540,414,l)
);
},
{
closed = 1;
nodes = (
(282,870,o),
(248,836,o),
(248,794,cs),
(248,753,o),
(282,718,o),
(324,718,c),
(365,718,o),
(400,753,o),
(400,794,cs),
(400,836,o),
(365,870,o),
(324,870,cs)
);
}
);
};
layerId = "2D992F1A-8218-4049-8E15-5955C72037C9";
shapes = (
{
ref = E;
},
{
pos = (168,160);
ref = dotaccentcomb;
}
);
width = 644;
}
);
unicode = 278;
},
{
color = 4;
glyphname = Egrave;
layers = (
{
background = {
anchors = (
{
name = bottom;
pos = (320,0);
},
{
name = ogonek;
pos = (574,10);
},
{
name = top;
pos = (340,670);
}
);
shapes = (
{
closed = 1;
nodes = (
(110,670,l),
(110,0,l),
(569,0,l),
(569,85,l),
(200,85,l),
(200,585,l),
(569,585,l),
(569,670,l)
);
},
{
closed = 1;
nodes = (
(167,386,l),
(167,301,l),
(526,301,l),
(526,386,l)
);
},
{
closed = 1;
nodes = (
(303,755,l),
(385,755,l),
(275,890,l),
(161,890,l)
);
}
);
};
layerId = "DEFEBCF2-9FF2-4B76-ADC8-AB6BD79F23E7";
shapes = (
{
ref = E;
},
{
pos = (142,170);
ref = gravecomb;
}
);
width = 639;
},
{
background = {
anchors = (
{
name = bottom;
pos = (324,0);
},
{
name = ogonek;
pos = (575,10);
},
{
name = top;
pos = (324,670);
}
);
shapes = (
{
closed = 1;
nodes = (
(80,670,l),
(80,0,l),
(574,0,l),
(574,160,l),
(267,160,l),
(267,515,l),
(574,515,l),
(574,670,l)
);
},
{
closed = 1;
nodes = (
(185,414,l),
(185,264,l),
(540,264,l),
(540,414,l)
);
},
{
closed = 1;
nodes = (
(134,870,l),
(266,720,l),
(388,720,l),
(288,870,l)
);
}
);
};
layerId = "2D992F1A-8218-4049-8E15-5955C72037C9";
shapes = (
{
ref = E;
},
{
pos = (54,160);
ref = gravecomb;
}
);
width = 644;
}
);
unicode = 200;
},
{
color = 4;
glyphname = Emacron;
layers = (
{
background = {
anchors = (
{
name = bottom;
pos = (320,0);
},
{
name = ogonek;
pos = (574,10);
},
{
name = top;
pos = (340,670);
}
);
shapes = (
{
closed = 1;
nodes = (
(110,670,l),
(110,0,l),
(569,0,l),
(569,85,l),
(200,85,l),
(200,585,l),
(569,585,l),
(569,670,l)
);
},
{
closed = 1;
nodes = (
(167,386,l),
(167,301,l),
(526,301,l),
(526,386,l)
);
},
{
closed = 1;
nodes = (
(165,888,l),
(165,808,l),
(515,808,l),
(515,888,l)
);
}
);
};
layerId = "DEFEBCF2-9FF2-4B76-ADC8-AB6BD79F23E7";
shapes = (
{
ref = E;
},
{
pos = (75,170);
ref = macroncomb;
}
);
width = 639;
},
{
background = {
anchors = (
{
name = bottom;
pos = (324,0);
},
{
name = ogonek;
pos = (575,10);
},
{
name = top;
pos = (324,670);
}
);
shapes = (
{
closed = 1;
nodes = (
(80,670,l),
(80,0,l),
(574,0,l),
(574,160,l),
(267,160,l),
(267,515,l),
(574,515,l),
(574,670,l)
);
},
{
closed = 1;
nodes = (
(185,414,l),
(185,264,l),
(540,264,l),
(540,414,l)
);
},
{
closed = 1;
nodes = (
(139,870,l),
(139,760,l),
(509,760,l),
(509,870,l)
);
}
);
};
layerId = "2D992F1A-8218-4049-8E15-5955C72037C9";
shapes = (
{
ref = E;
},
{
pos = (39,160);
ref = macroncomb;
}
);
width = 644;
}
);
unicode = 274;
},
{
color = 4;
glyphname = Eogonek;
layers = (
{
background = {
anchors = (
{
name = bottom;
pos = (320,0);
},
{
name = ogonek;
pos = (574,10);
},
{
name = top;
pos = (340,670);
}
);
shapes = (
{
closed = 1;
nodes = (
(110,670,l),
(110,0,l),
(569,0,l),
(569,85,l),
(200,85,l),
(200,585,l),
(569,585,l),
(569,670,l)
);
},
{
closed = 1;
nodes = (
(167,386,l),
(167,301,l),
(526,301,l),
(526,386,l)
);
},
{
closed = 1;
nodes = (
(452,-12,o),
(378,-56,o),
(378,-126,cs),
(378,-192,o),
(435,-225,o),
(495,-225,cs),
(531,-225,o),
(555,-207,o),
(569,-200,c),
(569,-131,l),
(554,-141,o),
(538,-149,o),
(515,-149,cs),
(480,-149,o),
(462,-126,o),
(462,-98,cs),
(462,-54,o),
(522,-18,o),
(569,1,c),
(489,1,l)
);
}
);
};
layerId = "DEFEBCF2-9FF2-4B76-ADC8-AB6BD79F23E7";
shapes = (
{
ref = E;
},
{
pos = (195,0);
ref = ogonekcomb;
}
);
width = 639;
},
{
background = {
anchors = (
{
name = bottom;
pos = (324,0);
},
{
name = ogonek;
pos = (575,10);
},
{
name = top;
pos = (324,670);
}
);
shapes = (
{
closed = 1;
nodes = (
(80,670,l),
(80,0,l),
(574,0,l),
(574,160,l),
(267,160,l),
(267,515,l),
(574,515,l),
(574,670,l)
);
},
{
closed = 1;
nodes = (
(185,414,l),
(185,264,l),
(540,264,l),
(540,414,l)
);
},
{
closed = 1;
nodes = (
(378,-13,o),
(318,-56,o),
(318,-126,cs),
(318,-192,o),
(385,-225,o),
(445,-225,cs),
(501,-225,o),
(545,-210,o),
(559,-203,c),
(559,-90,l),
(544,-100,o),
(528,-108,o),
(505,-108,cs),
(484,-108,o),
(469,-94,o),
(469,-73,cs),
(469,-51,o),
(516,-13,o),
(575,1,c),
(435,1,l)
);
}
);
};
layerId = "2D992F1A-8218-4049-8E15-5955C72037C9";
shapes = (
{
ref = E;
},
{
pos = (185,0);
ref = ogonekcomb;
}
);
width = 644;
}
);
unicode = 280;
},
{
color = 4;
glyphname = F;
layers = (
{
background = {
shapes = (
{
closed = 1;
nodes = (
(110,670,l),
(110,0,l),
(200,0,l),
(200,585,l),
(548,585,l),
(548,670,l)
);
},
{
closed = 1;
nodes = (
(180,361,l),
(180,276,l),
(488,276,l),
(488,361,l)
);
}
);
};
layerId = "DEFEBCF2-9FF2-4B76-ADC8-AB6BD79F23E7";
metricLeft = "=L";
metricRight = "=L+10";
shapes = (
{
closed = 1;
nodes = (
(200,0,l),
(200,585,l),
(548,585,l),
(548,670,l),
(110,670,l),
(110,0,l)
);
},
{
closed = 1;
nodes = (
(488,276,l),
(488,361,l),
(180,361,l),
(180,276,l)
);
}
);
width = 603;
},
{
background = {
shapes = (
{
closed = 1;
nodes = (
(80,670,l),
(80,0,l),
(267,0,l),
(267,505,l),
(555,505,l),
(555,670,l)
);
},
{
closed = 1;
nodes = (
(157,391,l),
(157,226,l),
(505,226,l),
(505,391,l)
);
}
);
};
layerId = "2D992F1A-8218-4049-8E15-5955C72037C9";
metricLeft = "=L";
shapes = (
{
closed = 1;
nodes = (
(267,0,l),
(267,505,l),
(555,505,l),
(555,670,l),
(80,670,l),
(80,0,l)
);
},
{
closed = 1;
nodes = (
(505,226,l),
(505,391,l),
(157,391,l),
(157,226,l)
);
}
);
width = 615;
}
);
metricLeft = "=I";
metricRight = "=L";
unicode = 70;
},
{
color = 4;
glyphname = G;
layers = (
{
anchors = (
{
name = bottom;
pos = (406,0);
},
{
name = top;
pos = (391,670);
}
);
background = {
anchors = (
{
name = bottom;
pos = (406,0);
},
{
name = top;
pos = (351,670);
}
);
shapes = (
{
closed = 1;
nodes = (
(201,685,o),
(50,527,o),
(50,335,cs),
(50,143,o),
(201,-15,o),
(403,-15,cs),
(520,-15,o),
(613,39,o),
(661,91,c),
(564,131,l),
(541,112,o),
(505,73,o),
(403,73,cs),
(253,73,o),
(142,185,o),
(142,335,cs),
(142,485,o),
(253,597,o),
(403,597,cs),
(505,597,o),
(559,545,o),
(604,514,c),
(604,613,l),
(557,655,o),
(500,685,o),
(403,685,cs)
);
},
{
closed = 1;
nodes = (
(564,366,l),
(563,29,l),
(661,91,l),
(661,366,l)
);
},
{
closed = 1;
nodes = (
(366,286,l),
(607,286,l),
(607,366,l),
(366,366,l)
);
}
);
};
layerId = "DEFEBCF2-9FF2-4B76-ADC8-AB6BD79F23E7";
metricLeft = "=O";
metricRight = "=O-10";
shapes = (
{
closed = 1;
nodes = (
(520,-15,o),
(613,39,o),
(661,91,c),
(564,131,l),
(541,112,o),
(505,73,o),
(403,73,cs),
(253,73,o),
(142,185,o),
(142,335,cs),
(142,485,o),
(253,597,o),
(403,597,cs),
(505,597,o),
(559,545,o),
(604,514,c),
(604,613,l),
(557,655,o),
(500,685,o),
(403,685,cs),
(201,685,o),
(50,527,o),
(50,335,cs),
(50,143,o),
(201,-15,o),
(403,-15,cs)
);
},
{
closed = 1;
nodes = (
(661,91,l),
(661,366,l),
(366,366,l),
(366,286,l),
(564,286,l),
(564,30,l)
);
}
);
width = 701;
},
{
anchors = (
{
name = bottom;
pos = (423,0);
},
{
name = top;
pos = (373,670);
}
);
background = {
anchors = (
{
name = bottom;
pos = (423,0);
},
{
name = top;
pos = (363,670);
}
);
shapes = (
{
closed = 1;
nodes = (
(213,685,o),
(40,557,o),
(40,335,cs),
(40,113,o),
(213,-15,o),
(395,-15,cs),
(495,-15,o),
(577,24,o),
(640,89,c),
(502,193,l),
(486,175,o),
(449,160,o),
(402,160,cs),
(312,160,o),
(232,235,o),
(232,335,cs),
(232,435,o),
(312,510,o),
(402,510,cs),
(479,510,o),
(519,488,o),
(572,445,c),
(572,626,l),
(527,665,o),
(465,685,o),
(395,685,cs)
);
},
{
closed = 1;
nodes = (
(480,359,l),
(478,29,l),
(640,89,l),
(640,359,l)
);
},
{
closed = 1;
nodes = (
(480,239,l),
(580,239,l),
(580,359,l),
(480,359,l)
);
}
);
};
layerId = "2D992F1A-8218-4049-8E15-5955C72037C9";
metricRight = "=|L-25";
shapes = (
{
closed = 1;
nodes = (
(495,-15,o),
(577,24,o),
(640,89,c),
(502,193,l),
(486,175,o),
(449,160,o),
(402,160,cs),
(312,160,o),
(232,235,o),
(232,335,cs),
(232,435,o),
(312,510,o),
(402,510,cs),
(479,510,o),
(519,488,o),
(572,445,c),
(572,626,l),
(527,665,o),
(465,685,o),
(395,685,cs),
(213,685,o),
(40,557,o),
(40,335,cs),
(40,113,o),
(213,-15,o),
(395,-15,cs)
);
},
{
closed = 1;
nodes = (
(640,89,l),
(640,359,l),
(479,359,l),
(479,239,l),
(479,238,l),
(479,29,l)
);
}
);
width = 695;
}
);
metricLeft = "=O";
metricRight = "=|L";
unicode = 71;
},
{
color = 4;
glyphname = Gcommaaccent;
layers = (
{
background = {
anchors = (
{
name = bottom;
pos = (406,0);
},
{
name = top;
pos = (351,670);
}
);
shapes = (
{
closed = 1;
nodes = (
(201,685,o),
(50,527,o),
(50,335,cs),
(50,143,o),
(201,-15,o),
(403,-15,cs),
(520,-15,o),
(613,39,o),
(661,91,c),
(564,131,l),
(541,112,o),
(505,73,o),
(403,73,cs),
(253,73,o),
(142,185,o),
(142,335,cs),
(142,485,o),
(253,597,o),
(403,597,cs),
(505,597,o),
(559,545,o),
(604,514,c),
(604,613,l),
(557,655,o),
(500,685,o),
(403,685,cs)
);
},
{
closed = 1;
nodes = (
(564,366,l),
(563,29,l),
(661,91,l),
(661,366,l)
);
},
{
closed = 1;
nodes = (
(366,286,l),
(607,286,l),
(607,366,l),
(366,366,l)
);
},
{
closed = 1;
nodes = (
(372,-70,l),
(397,-70,o),
(426,-88,o),
(426,-119,cs),
(426,-151,o),
(404,-173,o),
(368,-173,cs),
(348,-173,o),
(330,-168,o),
(314,-155,c),
(314,-207,l),
(327,-216,o),
(348,-225,o),
(376,-225,cs),
(421,-225,o),
(479,-187,o),
(479,-116,cs),
(479,-60,o),
(429,-22,o),
(372,-22,c)
);
}
);
};
layerId = "DEFEBCF2-9FF2-4B76-ADC8-AB6BD79F23E7";
shapes = (
{
ref = G;
},
{
pos = (254,0);
ref = commaaccent;
}
);
width = 701;
},
{
background = {
anchors = (
{
name = bottom;
pos = (423,0);
},
{
name = top;
pos = (363,670);
}
);
shapes = (
{
closed = 1;
nodes = (
(213,685,o),
(40,557,o),
(40,335,cs),
(40,113,o),
(213,-15,o),
(395,-15,cs),
(495,-15,o),
(577,24,o),
(640,89,c),
(502,193,l),
(486,175,o),
(449,160,o),
(402,160,cs),
(312,160,o),
(232,235,o),
(232,335,cs),
(232,435,o),
(312,510,o),
(402,510,cs),
(479,510,o),
(519,488,o),
(572,445,c),
(572,626,l),
(527,665,o),
(465,685,o),
(395,685,cs)
);
},
{
closed = 1;
nodes = (
(480,359,l),
(478,29,l),
(640,89,l),
(640,359,l)
);
},
{
closed = 1;
nodes = (
(480,239,l),
(580,239,l),
(580,359,l),
(480,359,l)
);
},
{
closed = 1;
nodes = (
(386,-101,l),
(401,-101,o),
(413,-108,o),
(413,-120,cs),
(413,-132,o),
(402,-138,o),
(387,-138,cs),
(371,-138,o),
(356,-134,o),
(340,-123,c),
(340,-207,l),
(353,-216,o),
(371,-225,o),
(393,-225,cs),
(446,-225,o),
(496,-190,o),
(496,-119,cs),
(496,-54,o),
(443,-22,o),
(386,-22,c)
);
}
);
};
layerId = "2D992F1A-8218-4049-8E15-5955C72037C9";
shapes = (
{
ref = G;
},
{
pos = (271,0);
ref = commaaccent;
}
);
width = 695;
}
);
unicode = 290;
},
{
color = 4;
glyphname = H;
layers = (
{
background = {
shapes = (
{
closed = 1;
nodes = (
(582,670,l),
(582,0,l),
(672,0,l),
(672,670,l)
);
},
{
closed = 1;
nodes = (
(110,670,l),
(110,0,l),
(200,0,l),
(200,670,l)
);
},
{
closed = 1;
nodes = (
(187,388,l),
(187,303,l),
(610,303,l),
(610,388,l)
);
}
);
};
layerId = "DEFEBCF2-9FF2-4B76-ADC8-AB6BD79F23E7";
metricLeft = "=L";
metricRight = "=|L";
shapes = (
{
closed = 1;
nodes = (
(672,0,l),
(672,670,l),
(582,670,l),
(582,0,l)
);
},
{
closed = 1;
nodes = (
(200,0,l),
(200,670,l),
(110,670,l),
(110,0,l)
);
},
{
closed = 1;
nodes = (
(610,303,l),
(610,388,l),
(187,388,l),
(187,303,l)
);
}
);
width = 782;
},
{
background = {
shapes = (
{
closed = 1;
nodes = (
(507,670,l),
(507,0,l),
(694,0,l),
(694,670,l)
);
},
{
closed = 1;
nodes = (
(80,670,l),
(80,0,l),
(267,0,l),
(267,670,l)
);
},
{
closed = 1;
nodes = (
(247,405,l),
(247,240,l),
(535,240,l),
(535,405,l)
);
}
);
};
layerId = "2D992F1A-8218-4049-8E15-5955C72037C9";
metricLeft = "=L";
shapes = (
{
closed = 1;
nodes = (
(694,0,l),
(694,670,l),
(507,670,l),
(507,0,l)
);
},
{
closed = 1;
nodes = (
(267,0,l),
(267,670,l),
(80,670,l),
(80,0,l)
);
},
{
closed = 1;
nodes = (
(535,240,l),
(535,405,l),
(247,405,l),
(247,240,l)
);
}
);
width = 774;
}
);
metricLeft = "=L";
metricRight = "=|L";
unicode = 72;
},
{
color = 9;
glyphname = Hbar;
layers = (
{
layerId = "DEFEBCF2-9FF2-4B76-ADC8-AB6BD79F23E7";
shapes = (
{
closed = 1;
nodes = (
(716,486,l),
(716,566,l),
(66,566,l),
(66,486,l)
);
},
{
ref = H;
}
);
width = 782;
},
{
layerId = "2D992F1A-8218-4049-8E15-5955C72037C9";
shapes = (
{
closed = 1;
nodes = (
(767,477,l),
(767,587,l),
(7,587,l),
(7,477,l)
);
},
{
ref = H;
}
);
width = 774;
}
);
unicode = 294;
},
{
color = 4;
glyphname = I;
layers = (
{
anchors = (
{
name = ogonek;
pos = (320,10);
},
{
name = top;
pos = (272,670);
}
);
background = {
anchors = (
{
name = ogonek;
pos = (320,10);
},
{
name = top;
pos = (272,670);
}
);
shapes = (
{
closed = 1;
nodes = (
(223,670,l),
(223,0,l),
(313,0,l),
(313,670,l)
);
},
{
closed = 1;
nodes = (
(110,85,l),
(110,0,l),
(426,0,l),
(426,85,l)
);
},
{
closed = 1;
nodes = (
(110,670,l),
(110,585,l),
(426,585,l),
(426,670,l)
);
}
);
};
layerId = "DEFEBCF2-9FF2-4B76-ADC8-AB6BD79F23E7";
metricLeft = "=L";
metricRight = "=|L";
shapes = (
{
closed = 1;
nodes = (
(313,0,l),
(313,670,l),
(223,670,l),
(223,0,l)
);
},
{
closed = 1;
nodes = (
(426,0,l),
(426,85,l),
(110,85,l),
(110,0,l)
);
},
{
closed = 1;
nodes = (
(426,585,l),
(426,670,l),
(110,670,l),
(110,585,l)
);
}
);
width = 536;
},
{
anchors = (
{
name = ogonek;
pos = (369,10);
},
{
name = top;
pos = (287,670);
}
);
background = {
anchors = (
{
name = ogonek;
pos = (369,10);
},
{
name = top;
pos = (287,670);
}
);
shapes = (
{
closed = 1;
nodes = (
(193,670,l),
(193,0,l),
(380,0,l),
(380,670,l)
);
},
{
closed = 1;
nodes = (
(70,155,l),
(70,0,l),
(503,0,l),
(503,155,l)
);
},
{
closed = 1;
nodes = (
(70,670,l),
(70,515,l),
(503,515,l),
(503,670,l)
);
}
);
};
layerId = "2D992F1A-8218-4049-8E15-5955C72037C9";
metricLeft = "=L-10";
metricRight = "=|L-10";
shapes = (
{
closed = 1;
nodes = (
(380,0,l),
(380,670,l),
(193,670,l),
(193,0,l)
);
},
{
closed = 1;
nodes = (
(503,0,l),
(503,155,l),
(70,155,l),
(70,0,l)
);
},
{
closed = 1;
nodes = (
(503,515,l),
(503,670,l),
(70,670,l),
(70,515,l)
);
}
);
width = 573;
}
);
metricLeft = "=L-20";
metricRight = "=|L-20";
unicode = 73;
},
{
color = 4;
glyphname = IJ;
layers = (
{
background = {
anchors = (
{
name = ogonek;
pos = (320,10);
},
{
name = top;
pos = (272,670);
}
);
shapes = (
{
closed = 1;
nodes = (
(223,670,l),
(223,0,l),
(313,0,l),
(313,670,l)
);
},
{
closed = 1;
nodes = (
(110,85,l),
(110,0,l),
(426,0,l),
(426,85,l)
);
},
{
closed = 1;
nodes = (
(110,670,l),
(110,585,l),
(426,585,l),
(426,670,l)
);
},
{
closed = 1;
nodes = (
(651,672,l),
(651,16,ls),
(651,-65,o),
(595,-127,o),
(481,-168,c),
(525,-255,l),
(650,-210,o),
(741,-136,o),
(741,34,cs),
(741,672,l)
);
}
);
};
layerId = "DEFEBCF2-9FF2-4B76-ADC8-AB6BD79F23E7";
shapes = (
{
ref = I;
},
{
pos = (536,0);
ref = J;
}
);
width = 851;
},
{
background = {
anchors = (
{
name = ogonek;
pos = (369,10);
},
{
name = top;
pos = (287,670);
}
);
shapes = (
{
closed = 1;
nodes = (
(193,670,l),
(193,0,l),
(380,0,l),
(380,670,l)
);
},
{
closed = 1;
nodes = (
(70,155,l),
(70,0,l),
(503,0,l),
(503,155,l)
);
},
{
closed = 1;
nodes = (
(70,670,l),
(70,515,l),
(503,515,l),
(503,670,l)
);
},
{
closed = 1;
nodes = (
(690,672,l),
(690,54,ls),
(690,-23,o),
(640,-72,o),
(543,-93,c),
(605,-255,l),
(766,-222,o),
(877,-120,o),
(877,47,cs),
(877,672,l)
);
}
);
};
layerId = "2D992F1A-8218-4049-8E15-5955C72037C9";
shapes = (
{
ref = I;
},
{
pos = (573,0);
ref = J;
}
);
width = 947;
}
);
unicode = 306;
},
{
color = 4;
glyphname = Iacute;
layers = (
{
background = {
anchors = (
{
name = ogonek;
pos = (320,10);
},
{
name = top;
pos = (272,670);
}
);
shapes = (
{
closed = 1;
nodes = (
(223,670,l),
(223,0,l),
(313,0,l),
(313,670,l)
);
},
{
closed = 1;
nodes = (
(110,85,l),
(110,0,l),
(426,0,l),
(426,85,l)
);
},
{
closed = 1;
nodes = (
(110,670,l),
(110,585,l),
(426,585,l),
(426,670,l)
);
},
{
closed = 1;
nodes = (
(330,890,l),
(220,755,l),
(302,755,l),
(444,890,l)
);
}
);
};
layerId = "DEFEBCF2-9FF2-4B76-ADC8-AB6BD79F23E7";
shapes = (
{
ref = I;
},
{
pos = (150,170);
ref = acutecomb;
}
);
width = 536;
},
{
background = {
anchors = (
{
name = ogonek;
pos = (369,10);
},
{
name = top;
pos = (287,670);
}
);
shapes = (
{
closed = 1;
nodes = (
(193,670,l),
(193,0,l),
(380,0,l),
(380,670,l)
);
},
{
closed = 1;
nodes = (
(70,155,l),
(70,0,l),
(503,0,l),
(503,155,l)
);
},
{
closed = 1;
nodes = (
(70,670,l),
(70,515,l),
(503,515,l),
(503,670,l)
);
},
{
closed = 1;
nodes = (
(303,870,l),
(203,720,l),
(325,720,l),
(457,870,l)
);
}
);
};
layerId = "2D992F1A-8218-4049-8E15-5955C72037C9";
shapes = (
{
ref = I;
},
{
pos = (123,160);
ref = acutecomb;
}
);
width = 573;
}
);
unicode = 205;
},
{
color = 4;
glyphname = Icircumflex;
layers = (
{
background = {
anchors = (
{
name = ogonek;
pos = (320,10);
},
{
name = top;
pos = (272,670);
}
);
shapes = (
{
closed = 1;
nodes = (
(223,670,l),
(223,0,l),
(313,0,l),
(313,670,l)
);
},
{
closed = 1;
nodes = (
(110,85,l),
(110,0,l),
(426,0,l),
(426,85,l)
);
},
{
closed = 1;
nodes = (
(110,670,l),
(110,585,l),
(426,585,l),
(426,670,l)
);
},
{
closed = 1;
nodes = (
(250,890,l),
(110,751,l),
(192,751,l),
(272,829,l),
(352,751,l),
(434,751,l),
(294,890,l)
);
}
);
};
layerId = "DEFEBCF2-9FF2-4B76-ADC8-AB6BD79F23E7";
shapes = (
{
ref = I;
},
{
pos = (30,170);
ref = circumflexcomb;
}
);
width = 536;
},
{
background = {
anchors = (
{
name = ogonek;
pos = (369,10);
},
{
name = top;
pos = (287,670);
}
);
shapes = (
{
closed = 1;
nodes = (
(193,670,l),
(193,0,l),
(380,0,l),
(380,670,l)
);
},
{
closed = 1;
nodes = (
(70,155,l),
(70,0,l),
(503,0,l),
(503,155,l)
);
},
{
closed = 1;
nodes = (
(70,670,l),
(70,515,l),
(503,515,l),
(503,670,l)
);
},
{
closed = 1;
nodes = (
(235,870,l),
(115,720,l),
(247,720,l),
(287,779,l),
(327,720,l),
(459,720,l),
(339,870,l)
);
}
);
};
layerId = "2D992F1A-8218-4049-8E15-5955C72037C9";
shapes = (
{
ref = I;
},
{
pos = (35,160);
ref = circumflexcomb;
}
);
width = 573;
}
);
unicode = 206;
},
{
color = 4;
glyphname = Idieresis;
layers = (
{
background = {
anchors = (
{
name = ogonek;
pos = (320,10);
},
{
name = top;
pos = (272,670);
}
);
shapes = (
{
closed = 1;
nodes = (
(223,670,l),
(223,0,l),
(313,0,l),
(313,670,l)
);
},
{
closed = 1;
nodes = (
(110,85,l),
(110,0,l),
(426,0,l),
(426,85,l)
);
},
{
closed = 1;
nodes = (
(110,670,l),
(110,585,l),
(426,585,l),
(426,670,l)
);
},
{
closed = 1;
nodes = (
(342,889,o),
(314,861,o),
(314,826,cs),
(314,792,o),
(342,763,o),
(377,763,c),
(411,763,o),
(440,792,o),
(440,826,cs),
(440,861,o),
(411,889,o),
(377,889,cs)
);
},
{
closed = 1;
nodes = (
(132,889,o),
(104,861,o),
(104,826,cs),
(104,792,o),
(132,763,o),
(167,763,c),
(201,763,o),
(230,792,o),
(230,826,cs),
(230,861,o),
(201,889,o),
(167,889,cs)
);
}
);
};
layerId = "DEFEBCF2-9FF2-4B76-ADC8-AB6BD79F23E7";
shapes = (
{
ref = I;
},
{
pos = (24,170);
ref = dieresiscomb;
}
);
width = 536;
},
{
background = {
anchors = (
{
name = ogonek;
pos = (369,10);
},
{
name = top;
pos = (287,670);
}
);
shapes = (
{
closed = 1;
nodes = (
(193,670,l),
(193,0,l),
(380,0,l),
(380,670,l)
);
},
{
closed = 1;
nodes = (
(70,155,l),
(70,0,l),
(503,0,l),
(503,155,l)
);
},
{
closed = 1;
nodes = (
(70,670,l),
(70,515,l),
(503,515,l),
(503,670,l)
);
},
{
closed = 1;
nodes = (
(350,885,o),
(316,851,o),
(316,809,cs),
(316,768,o),
(350,733,o),
(392,733,c),
(433,733,o),
(468,768,o),
(468,809,cs),
(468,851,o),
(433,885,o),
(392,885,cs)
);
},
{
closed = 1;
nodes = (
(140,885,o),
(106,851,o),
(106,809,cs),
(106,768,o),
(140,733,o),
(182,733,c),
(223,733,o),
(258,768,o),
(258,809,cs),
(258,851,o),
(223,885,o),
(182,885,cs)
);
}
);
};
layerId = "2D992F1A-8218-4049-8E15-5955C72037C9";
shapes = (
{
ref = I;
},
{
pos = (20,160);
ref = dieresiscomb;
}
);
width = 573;
}
);
unicode = 207;
},
{
color = 4;
glyphname = Igrave;
layers = (
{
background = {
anchors = (
{
name = ogonek;
pos = (320,10);
},
{
name = top;
pos = (272,670);
}
);
shapes = (
{
closed = 1;
nodes = (
(223,670,l),
(223,0,l),
(313,0,l),
(313,670,l)
);
},
{
closed = 1;
nodes = (
(110,85,l),
(110,0,l),
(426,0,l),
(426,85,l)
);
},
{
closed = 1;
nodes = (
(110,670,l),
(110,585,l),
(426,585,l),
(426,670,l)
);
},
{
closed = 1;
nodes = (
(235,755,l),
(317,755,l),
(207,890,l),
(93,890,l)
);
}
);
};
layerId = "DEFEBCF2-9FF2-4B76-ADC8-AB6BD79F23E7";
shapes = (
{
ref = I;
},
{
pos = (74,170);
ref = gravecomb;
}
);
width = 536;
},
{
background = {
anchors = (
{
name = ogonek;
pos = (369,10);
},
{
name = top;
pos = (287,670);
}
);
shapes = (
{
closed = 1;
nodes = (
(193,670,l),
(193,0,l),
(380,0,l),
(380,670,l)
);
},
{
closed = 1;
nodes = (
(70,155,l),
(70,0,l),
(503,0,l),
(503,155,l)
);
},
{
closed = 1;
nodes = (
(70,670,l),
(70,515,l),
(503,515,l),
(503,670,l)
);
},
{
closed = 1;
nodes = (
(97,870,l),
(229,720,l),
(351,720,l),
(251,870,l)
);
}
);
};
layerId = "2D992F1A-8218-4049-8E15-5955C72037C9";
shapes = (
{
ref = I;
},
{
pos = (17,160);
ref = gravecomb;
}
);
width = 573;
}
);
unicode = 204;
},
{
color = 4;
glyphname = Imacron;
layers = (
{
background = {
anchors = (
{
name = ogonek;
pos = (320,10);
},
{
name = top;
pos = (272,670);
}
);
shapes = (
{
closed = 1;
nodes = (
(223,670,l),
(223,0,l),
(313,0,l),
(313,670,l)
);
},
{
closed = 1;
nodes = (
(110,85,l),
(110,0,l),
(426,0,l),
(426,85,l)
);
},
{
closed = 1;
nodes = (
(110,670,l),
(110,585,l),
(426,585,l),
(426,670,l)
);
},
{
closed = 1;
nodes = (
(97,888,l),
(97,808,l),
(447,808,l),
(447,888,l)
);
}
);
};
layerId = "DEFEBCF2-9FF2-4B76-ADC8-AB6BD79F23E7";
shapes = (
{
ref = I;
},
{
pos = (7,170);
ref = macroncomb;
}
);
width = 536;
},
{
background = {
anchors = (
{
name = ogonek;
pos = (369,10);
},
{
name = top;
pos = (287,670);
}
);
shapes = (
{
closed = 1;
nodes = (
(193,670,l),
(193,0,l),
(380,0,l),
(380,670,l)
);
},
{
closed = 1;
nodes = (
(70,155,l),
(70,0,l),
(503,0,l),
(503,155,l)
);
},
{
closed = 1;
nodes = (
(70,670,l),
(70,515,l),
(503,515,l),
(503,670,l)
);
},
{
closed = 1;
nodes = (
(102,870,l),
(102,760,l),
(472,760,l),
(472,870,l)
);
}
);
};
layerId = "2D992F1A-8218-4049-8E15-5955C72037C9";
shapes = (
{
ref = I;
},
{
pos = (2,160);
ref = macroncomb;
}
);
width = 573;
}
);
unicode = 298;
},
{
color = 4;
glyphname = Iogonek;
layers = (
{
background = {
anchors = (
{
name = ogonek;
pos = (320,10);
},
{
name = top;
pos = (272,670);
}
);
shapes = (
{
closed = 1;
nodes = (
(223,670,l),
(223,0,l),
(313,0,l),
(313,670,l)
);
},
{
closed = 1;
nodes = (
(110,85,l),
(110,0,l),
(426,0,l),
(426,85,l)
);
},
{
closed = 1;
nodes = (
(110,670,l),
(110,585,l),
(426,585,l),
(426,670,l)
);
},
{
closed = 1;
nodes = (
(198,-12,o),
(124,-56,o),
(124,-126,cs),
(124,-192,o),
(181,-225,o),
(241,-225,cs),
(277,-225,o),
(301,-207,o),
(315,-200,c),
(315,-131,l),
(300,-141,o),
(284,-149,o),
(261,-149,cs),
(226,-149,o),
(208,-126,o),
(208,-98,cs),
(208,-54,o),
(268,-18,o),
(315,1,c),
(235,1,l)
);
}
);
};
layerId = "DEFEBCF2-9FF2-4B76-ADC8-AB6BD79F23E7";
shapes = (
{
ref = I;
},
{
pos = (-59,0);
ref = ogonekcomb;
}
);
width = 536;
},
{
background = {
anchors = (
{
name = ogonek;
pos = (369,10);
},
{
name = top;
pos = (287,670);
}
);
shapes = (
{
closed = 1;
nodes = (
(193,670,l),
(193,0,l),
(380,0,l),
(380,670,l)
);
},
{
closed = 1;
nodes = (
(70,155,l),
(70,0,l),
(503,0,l),
(503,155,l)
);
},
{
closed = 1;
nodes = (
(70,670,l),
(70,515,l),
(503,515,l),
(503,670,l)
);
},
{
closed = 1;
nodes = (
(172,-13,o),
(112,-56,o),
(112,-126,cs),
(112,-192,o),
(179,-225,o),
(239,-225,cs),
(295,-225,o),
(339,-210,o),
(353,-203,c),
(353,-90,l),
(338,-100,o),
(322,-108,o),
(299,-108,cs),
(278,-108,o),
(263,-94,o),
(263,-73,cs),
(263,-51,o),
(310,-13,o),
(369,1,c),
(229,1,l)
);
}
);
};
layerId = "2D992F1A-8218-4049-8E15-5955C72037C9";
shapes = (
{
ref = I;
},
{
pos = (-21,0);
ref = ogonekcomb;
}
);
width = 573;
}
);
unicode = 302;
},
{
color = 4;
glyphname = J;
layers = (
{
background = {
shapes = (
{
closed = 1;
nodes = (
(115,672,l),
(115,16,ls),
(115,-65,o),
(59,-127,o),
(-55,-168,c),
(-11,-255,l),
(114,-210,o),
(205,-136,o),
(205,34,cs),
(205,672,l)
);
}
);
};
layerId = "DEFEBCF2-9FF2-4B76-ADC8-AB6BD79F23E7";
metricRight = "=|L";
shapes = (
{
closed = 1;
nodes = (
(114,-210,o),
(205,-136,o),
(205,34,cs),
(205,672,l),
(115,672,l),
(115,16,ls),
(115,-65,o),
(59,-127,o),
(-55,-168,c),
(-11,-255,l)
);
}
);
width = 315;
},
{
background = {
shapes = (
{
closed = 1;
nodes = (
(117,672,l),
(117,54,ls),
(117,-23,o),
(67,-72,o),
(-30,-93,c),
(32,-255,l),
(193,-222,o),
(304,-120,o),
(304,47,cs),
(304,672,l)
);
}
);
};
layerId = "2D992F1A-8218-4049-8E15-5955C72037C9";
metricRight = "=|L-10";
shapes = (
{
closed = 1;
nodes = (
(193,-222,o),
(304,-120,o),
(304,47,cs),
(304,672,l),
(117,672,l),
(117,54,ls),
(117,-23,o),
(67,-72,o),
(-30,-93,c),
(32,-255,l)
);
}
);
width = 374;
}
);
metricRight = "=I";
unicode = 74;
},
{
color = 4;
glyphname = K;
layers = (
{
anchors = (
{
name = bottom;
pos = (336,0);
},
{
name = top;
pos = (336,670);
}
);
background = {
anchors = (
{
name = bottom;
pos = (336,0);
},
{
name = top;
pos = (336,670);
}
);
shapes = (
{
closed = 1;
nodes = (
(516,670,l),
(139,268,l),
(168,190,l),
(632,670,l)
);
},
{
closed = 1;
nodes = (
(110,670,l),
(110,0,l),
(200,0,l),
(200,670,l)
);
},
{
closed = 1;
nodes = (
(251,329,l),
(537,0,l),
(662,0,l),
(319,398,l)
);
}
);
};
layerId = "DEFEBCF2-9FF2-4B76-ADC8-AB6BD79F23E7";
metricLeft = "=L";
metricRight = "=V";
shapes = (
{
closed = 1;
nodes = (
(632,670,l),
(516,670,l),
(139,268,l),
(168,190,l)
);
},
{
closed = 1;
nodes = (
(200,0,l),
(200,670,l),
(110,670,l),
(110,0,l)
);
},
{
closed = 1;
nodes = (
(662,0,l),
(319,398,l),
(251,329,l),
(537,0,l)
);
}
);
width = 672;
},
{
anchors = (
{
name = bottom;
pos = (379,0);
},
{
name = top;
pos = (379,670);
}
);
background = {
anchors = (
{
name = bottom;
pos = (379,0);
},
{
name = top;
pos = (379,670);
}
);
shapes = (
{
closed = 1;
nodes = (
(467,670,l),
(129,268,l),
(248,181,l),
(682,670,l)
);
},
{
closed = 1;
nodes = (
(80,670,l),
(80,0,l),
(267,0,l),
(267,670,l)
);
},
{
closed = 1;
nodes = (
(231,330,l),
(465,0,l),
(695,0,l),
(377,429,l)
);
}
);
};
layerId = "2D992F1A-8218-4049-8E15-5955C72037C9";
metricLeft = "=L";
metricRight = "=L-45";
shapes = (
{
closed = 1;
nodes = (
(682,670,l),
(467,670,l),
(129,268,l),
(248,181,l)
);
},
{
closed = 1;
nodes = (
(267,0,l),
(267,670,l),
(80,670,l),
(80,0,l)
);
},
{
closed = 1;
nodes = (
(695,0,l),
(377,429,l),
(231,330,l),
(465,0,l)
);
}
);
width = 710;
}
);
metricLeft = "=I";
metricRight = "=L";
unicode = 75;
},
{
color = 4;
glyphname = Kcommaaccent;
layers = (
{
background = {
anchors = (
{
name = bottom;
pos = (336,0);
},
{
name = top;
pos = (336,670);
}
);
shapes = (
{
closed = 1;
nodes = (
(516,670,l),
(139,268,l),
(168,190,l),
(632,670,l)
);
},
{
closed = 1;
nodes = (
(110,670,l),
(110,0,l),
(200,0,l),
(200,670,l)
);
},
{
closed = 1;
nodes = (
(251,329,l),
(537,0,l),
(662,0,l),
(319,398,l)
);
},
{
closed = 1;
nodes = (
(302,-70,l),
(327,-70,o),
(356,-88,o),
(356,-119,cs),
(356,-151,o),
(334,-173,o),
(298,-173,cs),
(278,-173,o),
(260,-168,o),
(244,-155,c),
(244,-207,l),
(257,-216,o),
(278,-225,o),
(306,-225,cs),
(351,-225,o),
(409,-187,o),
(409,-116,cs),
(409,-60,o),
(359,-22,o),
(302,-22,c)
);
}
);
};
layerId = "DEFEBCF2-9FF2-4B76-ADC8-AB6BD79F23E7";
shapes = (
{
ref = K;
},
{
pos = (184,0);
ref = commaaccent;
}
);
width = 672;
},
{
background = {
anchors = (
{
name = bottom;
pos = (379,0);
},
{
name = top;
pos = (379,670);
}
);
shapes = (
{
closed = 1;
nodes = (
(467,670,l),
(129,268,l),
(248,181,l),
(682,670,l)
);
},
{
closed = 1;
nodes = (
(80,670,l),
(80,0,l),
(267,0,l),
(267,670,l)
);
},
{
closed = 1;
nodes = (
(231,330,l),
(465,0,l),
(695,0,l),
(377,429,l)
);
},
{
closed = 1;
nodes = (
(342,-101,l),
(357,-101,o),
(369,-108,o),
(369,-120,cs),
(369,-132,o),
(358,-138,o),
(343,-138,cs),
(327,-138,o),
(312,-134,o),
(296,-123,c),
(296,-207,l),
(309,-216,o),
(327,-225,o),
(349,-225,cs),
(402,-225,o),
(452,-190,o),
(452,-119,cs),
(452,-54,o),
(399,-22,o),
(342,-22,c)
);
}
);
};
layerId = "2D992F1A-8218-4049-8E15-5955C72037C9";
shapes = (
{
ref = K;
},
{
pos = (227,0);
ref = commaaccent;
}
);
width = 710;
}
);
unicode = 310;
},
{
color = 4;
glyphname = L;
layers = (
{
anchors = (
{
name = bottom;
pos = (326,0);
},
{
name = top;
pos = (171,670);
},
{
name = topright;
pos = (245,720);
}
);
background = {
anchors = (
{
name = bottom;
pos = (326,0);
},
{
name = top;
pos = (171,670);
},
{
name = topright;
pos = (596,670);
}
);
shapes = (
{
closed = 1;
nodes = (
(110,670,l),
(110,0,l),
(569,0,l),
(569,85,l),
(200,85,l),
(200,670,l)
);
}
);
};
layerId = "DEFEBCF2-9FF2-4B76-ADC8-AB6BD79F23E7";
shapes = (
{
closed = 1;
nodes = (
(569,0,l),
(569,85,l),
(200,85,l),
(200,670,l),
(110,670,l),
(110,0,l)
);
}
);
width = 614;
},
{
anchors = (
{
name = bottom;
pos = (309,0);
},
{
name = top;
pos = (238,670);
},
{
name = topright;
pos = (305,720);
}
);
background = {
anchors = (
{
name = bottom;
pos = (309,0);
},
{
name = top;
pos = (238,670);
},
{
name = topright;
pos = (588,670);
}
);
shapes = (
{
closed = 1;
nodes = (
(80,670,l),
(80,0,l),
(558,0,l),
(558,165,l),
(267,165,l),
(267,670,l)
);
}
);
};
layerId = "2D992F1A-8218-4049-8E15-5955C72037C9";
shapes = (
{
closed = 1;
nodes = (
(558,0,l),
(558,165,l),
(267,165,l),
(267,670,l),
(80,670,l),
(80,0,l)
);
}
);
width = 618;
}
);
unicode = 76;
},
{
color = 4;
glyphname = Lacute;
layers = (
{
background = {
anchors = (
{
name = bottom;
pos = (326,0);
},
{
name = top;
pos = (171,670);
},
{
name = topright;
pos = (596,670);
}
);
shapes = (
{
closed = 1;
nodes = (
(110,670,l),
(110,0,l),
(569,0,l),
(569,85,l),
(200,85,l),
(200,670,l)
);
},
{
closed = 1;
nodes = (
(229,890,l),
(119,755,l),
(201,755,l),
(343,890,l)
);
}
);
};
layerId = "DEFEBCF2-9FF2-4B76-ADC8-AB6BD79F23E7";
shapes = (
{
ref = L;
},
{
pos = (49,170);
ref = acutecomb;
}
);
width = 614;
},
{
background = {
anchors = (
{
name = bottom;
pos = (309,0);
},
{
name = top;
pos = (238,670);
},
{
name = topright;
pos = (588,670);
}
);
shapes = (
{
closed = 1;
nodes = (
(80,670,l),
(80,0,l),
(558,0,l),
(558,165,l),
(267,165,l),
(267,670,l)
);
},
{
closed = 1;
nodes = (
(254,870,l),
(154,720,l),
(276,720,l),
(408,870,l)
);
}
);
};
layerId = "2D992F1A-8218-4049-8E15-5955C72037C9";
shapes = (
{
ref = L;
},
{
pos = (74,160);
ref = acutecomb;
}
);
width = 618;
}
);
unicode = 313;
},
{
color = 4;
glyphname = Lcaron;
layers = (
{
background = {
anchors = (
{
name = bottom;
pos = (326,0);
},
{
name = top;
pos = (171,670);
},
{
name = topright;
pos = (596,670);
}
);
shapes = (
{
closed = 1;
nodes = (
(265,530,l),
(332,530,l),
(362,718,l),
(275,718,l)
);
},
{
closed = 1;
nodes = (
(110,670,l),
(110,0,l),
(569,0,l),
(569,85,l),
(200,85,l),
(200,670,l)
);
}
);
};
layerId = "DEFEBCF2-9FF2-4B76-ADC8-AB6BD79F23E7";
shapes = (
{
ref = L;
},
{
pos = (200,0);
ref = caroncomb.alt;
}
);
width = 614;
},
{
background = {
anchors = (
{
name = bottom;
pos = (309,0);
},
{
name = top;
pos = (238,670);
},
{
name = topright;
pos = (588,670);
}
);
shapes = (
{
closed = 1;
nodes = (
(325,530,l),
(447,530,l),
(477,718,l),
(335,718,l)
);
},
{
closed = 1;
nodes = (
(80,670,l),
(80,0,l),
(558,0,l),
(558,165,l),
(267,165,l),
(267,670,l)
);
}
);
};
layerId = "2D992F1A-8218-4049-8E15-5955C72037C9";
shapes = (
{
ref = L;
},
{
pos = (260,0);
ref = caroncomb.alt;
}
);
width = 618;
}
);
unicode = 317;
},
{
color = 4;
glyphname = Lcommaaccent;
layers = (
{
background = {
anchors = (
{
name = bottom;
pos = (326,0);
},
{
name = top;
pos = (171,670);
},
{
name = topright;
pos = (596,670);
}
);
shapes = (
{
closed = 1;
nodes = (
(110,670,l),
(110,0,l),
(569,0,l),
(569,85,l),
(200,85,l),
(200,670,l)
);
},
{
closed = 1;
nodes = (
(292,-70,l),
(317,-70,o),
(346,-88,o),
(346,-119,cs),
(346,-151,o),
(324,-173,o),
(288,-173,cs),
(268,-173,o),
(250,-168,o),
(234,-155,c),
(234,-207,l),
(247,-216,o),
(268,-225,o),
(296,-225,cs),
(341,-225,o),
(399,-187,o),
(399,-116,cs),
(399,-60,o),
(349,-22,o),
(292,-22,c)
);
}
);
};
layerId = "DEFEBCF2-9FF2-4B76-ADC8-AB6BD79F23E7";
shapes = (
{
ref = L;
},
{
pos = (174,0);
ref = commaaccent;
}
);
width = 614;
},
{
background = {
anchors = (
{
name = bottom;
pos = (309,0);
},
{
name = top;
pos = (238,670);
},
{
name = topright;
pos = (588,670);
}
);
shapes = (
{
closed = 1;
nodes = (
(80,670,l),
(80,0,l),
(558,0,l),
(558,165,l),
(267,165,l),
(267,670,l)
);
},
{
closed = 1;
nodes = (
(272,-101,l),
(287,-101,o),
(299,-108,o),
(299,-120,cs),
(299,-132,o),
(288,-138,o),
(273,-138,cs),
(257,-138,o),
(242,-134,o),
(226,-123,c),
(226,-207,l),
(239,-216,o),
(257,-225,o),
(279,-225,cs),
(332,-225,o),
(382,-190,o),
(382,-119,cs),
(382,-54,o),
(329,-22,o),
(272,-22,c)
);
}
);
};
layerId = "2D992F1A-8218-4049-8E15-5955C72037C9";
shapes = (
{
ref = L;
},
{
pos = (157,0);
ref = commaaccent;
}
);
width = 618;
}
);
unicode = 315;
},
{
color = 4;
glyphname = Ldot;
layers = (
{
background = {
anchors = (
{
name = bottom;
pos = (326,0);
},
{
name = top;
pos = (171,670);
},
{
name = topright;
pos = (596,670);
}
);
shapes = (
{
closed = 1;
nodes = (
(110,670,l),
(110,0,l),
(569,0,l),
(569,85,l),
(200,85,l),
(200,670,l)
);
},
{
closed = 1;
nodes = (
(370,462,o),
(339,431,o),
(339,392,cs),
(339,354,o),
(370,322,o),
(409,322,cs),
(447,322,o),
(479,354,o),
(479,392,cs),
(479,431,o),
(447,462,o),
(409,462,cs)
);
}
);
};
layerId = "DEFEBCF2-9FF2-4B76-ADC8-AB6BD79F23E7";
shapes = (
{
ref = L;
},
{
pos = (259,59);
ref = periodcentered;
}
);
width = 614;
},
{
background = {
anchors = (
{
name = bottom;
pos = (309,0);
},
{
name = top;
pos = (238,670);
},
{
name = topright;
pos = (588,670);
}
);
shapes = (
{
closed = 1;
nodes = (
(80,670,l),
(80,0,l),
(558,0,l),
(558,165,l),
(267,165,l),
(267,670,l)
);
},
{
closed = 1;
nodes = (
(379,501,o),
(339,461,o),
(339,411,cs),
(339,362,o),
(379,321,o),
(429,321,cs),
(478,321,o),
(519,362,o),
(519,411,cs),
(519,461,o),
(478,501,o),
(429,501,cs)
);
}
);
};
layerId = "2D992F1A-8218-4049-8E15-5955C72037C9";
shapes = (
{
ref = L;
},
{
pos = (259,59);
ref = periodcentered;
}
);
width = 618;
}
);
unicode = 319;
},
{
color = 4;
glyphname = Lslash;
layers = (
{
background = {
anchors = (
{
name = bottom;
pos = (326,0);
},
{
name = top;
pos = (171,670);
},
{
name = topright;
pos = (596,670);
}
);
shapes = (
{
closed = 1;
nodes = (
(10,309,l),
(10,233,l),
(291,441,l),
(291,517,l)
);
},
{
closed = 1;
nodes = (
(110,670,l),
(110,0,l),
(569,0,l),
(569,85,l),
(200,85,l),
(200,670,l)
);
}
);
};
layerId = "DEFEBCF2-9FF2-4B76-ADC8-AB6BD79F23E7";
metricRight = "=L";
shapes = (
{
closed = 1;
nodes = (
(301,441,l),
(301,517,l),
(20,309,l),
(20,233,l)
);
},
{
ref = L;
}
);
width = 614;
},
{
background = {
anchors = (
{
name = bottom;
pos = (309,0);
},
{
name = top;
pos = (238,670);
},
{
name = topright;
pos = (588,670);
}
);
shapes = (
{
closed = 1;
nodes = (
(10,329,l),
(10,173,l),
(361,391,l),
(361,547,l)
);
},
{
closed = 1;
nodes = (
(80,670,l),
(80,0,l),
(558,0,l),
(558,165,l),
(267,165,l),
(267,670,l)
);
}
);
};
layerId = "2D992F1A-8218-4049-8E15-5955C72037C9";
shapes = (
{
closed = 1;
nodes = (
(361,391,l),
(361,547,l),
(10,329,l),
(10,173,l)
);
},
{
ref = L;
}
);
width = 598;
}
);
metricRight = "=auto";
unicode = 321;
},
{
color = 4;
glyphname = M;
layers = (
{
background = {
shapes = (
{
closed = 1;
nodes = (
(705,670,l),
(424,363,l),
(138,670,l),
(110,670,l),
(110,0,l),
(200,0,l),
(200,485,l),
(412,264,l),
(436,264,l),
(643,485,l),
(643,0,l),
(733,0,l),
(733,670,l)
);
}
);
};
layerId = "DEFEBCF2-9FF2-4B76-ADC8-AB6BD79F23E7";
metricLeft = "=L";
metricRight = "=|L";
shapes = (
{
closed = 1;
nodes = (
(200,0,l),
(200,485,l),
(412,264,l),
(436,264,l),
(643,485,l),
(643,0,l),
(733,0,l),
(733,670,l),
(705,670,l),
(424,363,l),
(138,670,l),
(110,670,l),
(110,0,l)
);
}
);
width = 843;
},
{
background = {
shapes = (
{
closed = 1;
nodes = (
(718,680,l),
(432,390,l),
(146,680,l),
(80,680,l),
(80,0,l),
(267,0,l),
(267,330,l),
(404,175,l),
(460,175,l),
(597,330,l),
(597,0,l),
(784,0,l),
(784,680,l)
);
}
);
};
layerId = "2D992F1A-8218-4049-8E15-5955C72037C9";
shapes = (
{
closed = 1;
nodes = (
(267,0,l),
(267,330,l),
(404,175,l),
(460,175,l),
(597,330,l),
(597,0,l),
(784,0,l),
(784,680,l),
(718,680,l),
(432,390,l),
(146,680,l),
(80,680,l),
(80,0,l)
);
}
);
width = 864;
}
);
metricLeft = "=L";
metricRight = "=|L";
unicode = 77;
},
{
color = 4;
glyphname = N;
layers = (
{
anchors = (
{
name = bottom;
pos = (389,0);
},
{
name = top;
pos = (387,670);
}
);
background = {
anchors = (
{
name = bottom;
pos = (389,0);
},
{
name = top;
pos = (387,670);
}
);
shapes = (
{
closed = 1;
nodes = (
(579,670,l),
(579,185,l),
(144,670,l),
(110,670,l),
(110,0,l),
(200,0,l),
(200,479,l),
(635,0,l),
(669,0,l),
(669,670,l)
);
}
);
};
layerId = "DEFEBCF2-9FF2-4B76-ADC8-AB6BD79F23E7";
metricLeft = "=L";
metricRight = "=|L";
shapes = (
{
closed = 1;
nodes = (
(669,0,l),
(669,670,l),
(579,670,l),
(579,185,l),
(144,670,l),
(110,670,l),
(110,0,l),
(200,0,l),
(200,479,l),
(635,0,l)
);
}
);
width = 779;
},
{
anchors = (
{
name = bottom;
pos = (386,0);
},
{
name = top;
pos = (386,670);
}
);
background = {
anchors = (
{
name = bottom;
pos = (386,0);
},
{
name = top;
pos = (386,670);
}
);
shapes = (
{
closed = 1;
nodes = (
(505,670,l),
(505,345,l),
(146,680,l),
(80,680,l),
(80,0,l),
(267,0,l),
(267,319,l),
(626,-10,l),
(692,-10,l),
(692,670,l)
);
}
);
};
layerId = "2D992F1A-8218-4049-8E15-5955C72037C9";
metricLeft = "=L";
metricRight = "=|L";
shapes = (
{
closed = 1;
nodes = (
(692,-10,l),
(692,670,l),
(505,670,l),
(505,345,l),
(146,680,l),
(80,680,l),
(80,0,l),
(267,0,l),
(267,319,l),
(626,-10,l)
);
}
);
width = 772;
}
);
metricLeft = "=I";
metricRight = "=I";
unicode = 78;
},
{
color = 4;
glyphname = Nacute;
layers = (
{
background = {
anchors = (
{
name = bottom;
pos = (389,0);
},
{
name = top;
pos = (387,670);
}
);
shapes = (
{
closed = 1;
nodes = (
(579,670,l),
(579,185,l),
(144,670,l),
(110,670,l),
(110,0,l),
(200,0,l),
(200,479,l),
(635,0,l),
(669,0,l),
(669,670,l)
);
},
{
closed = 1;
nodes = (
(445,890,l),
(335,755,l),
(417,755,l),
(559,890,l)
);
}
);
};
layerId = "DEFEBCF2-9FF2-4B76-ADC8-AB6BD79F23E7";
shapes = (
{
ref = N;
},
{
pos = (265,170);
ref = acutecomb;
}
);
width = 779;
},
{
background = {
anchors = (
{
name = bottom;
pos = (386,0);
},
{
name = top;
pos = (386,670);
}
);
shapes = (
{
closed = 1;
nodes = (
(505,670,l),
(505,345,l),
(146,680,l),
(80,680,l),
(80,0,l),
(267,0,l),
(267,319,l),
(626,-10,l),
(692,-10,l),
(692,670,l)
);
},
{
closed = 1;
nodes = (
(402,870,l),
(302,720,l),
(424,720,l),
(556,870,l)
);
}
);
};
layerId = "2D992F1A-8218-4049-8E15-5955C72037C9";
shapes = (
{
ref = N;
},
{
pos = (222,160);
ref = acutecomb;
}
);
width = 772;
}
);
unicode = 323;
},
{
color = 4;
glyphname = Ncaron;
layers = (
{
background = {
anchors = (
{
name = bottom;
pos = (389,0);
},
{
name = top;
pos = (387,670);
}
);
shapes = (
{
closed = 1;
nodes = (
(579,670,l),
(579,185,l),
(144,670,l),
(110,670,l),
(110,0,l),
(200,0,l),
(200,479,l),
(635,0,l),
(669,0,l),
(669,670,l)
);
},
{
closed = 1;
nodes = (
(365,751,l),
(409,751,l),
(549,890,l),
(467,890,l),
(387,812,l),
(307,890,l),
(225,890,l)
);
}
);
};
layerId = "DEFEBCF2-9FF2-4B76-ADC8-AB6BD79F23E7";
shapes = (
{
ref = N;
},
{
pos = (145,170);
ref = caroncomb;
}
);
width = 779;
},
{
background = {
anchors = (
{
name = bottom;
pos = (386,0);
},
{
name = top;
pos = (386,670);
}
);
shapes = (
{
closed = 1;
nodes = (
(505,670,l),
(505,345,l),
(146,680,l),
(80,680,l),
(80,0,l),
(267,0,l),
(267,319,l),
(626,-10,l),
(692,-10,l),
(692,670,l)
);
},
{
closed = 1;
nodes = (
(334,720,l),
(438,720,l),
(558,870,l),
(426,870,l),
(386,811,l),
(346,870,l),
(214,870,l)
);
}
);
};
layerId = "2D992F1A-8218-4049-8E15-5955C72037C9";
shapes = (
{
ref = N;
},
{
pos = (154,160);
ref = caroncomb;
}
);
width = 772;
}
);
unicode = 327;
},
{
color = 4;
glyphname = Ncommaaccent;
layers = (
{
background = {
anchors = (
{
name = bottom;
pos = (389,0);
},
{
name = top;
pos = (387,670);
}
);
shapes = (
{
closed = 1;
nodes = (
(579,670,l),
(579,185,l),
(144,670,l),
(110,670,l),
(110,0,l),
(200,0,l),
(200,479,l),
(635,0,l),
(669,0,l),
(669,670,l)
);
},
{
closed = 1;
nodes = (
(355,-70,l),
(380,-70,o),
(409,-88,o),
(409,-119,cs),
(409,-151,o),
(387,-173,o),
(351,-173,cs),
(331,-173,o),
(313,-168,o),
(297,-155,c),
(297,-207,l),
(310,-216,o),
(331,-225,o),
(359,-225,cs),
(404,-225,o),
(462,-187,o),
(462,-116,cs),
(462,-60,o),
(412,-22,o),
(355,-22,c)
);
}
);
};
layerId = "DEFEBCF2-9FF2-4B76-ADC8-AB6BD79F23E7";
shapes = (
{
ref = N;
},
{
pos = (237,0);
ref = commaaccent;
}
);
width = 779;
},
{
background = {
anchors = (
{
name = bottom;
pos = (386,0);
},
{
name = top;
pos = (386,670);
}
);
shapes = (
{
closed = 1;
nodes = (
(505,670,l),
(505,345,l),
(146,680,l),
(80,680,l),
(80,0,l),
(267,0,l),
(267,319,l),
(626,-10,l),
(692,-10,l),
(692,670,l)
);
},
{
closed = 1;
nodes = (
(349,-101,l),
(364,-101,o),
(376,-108,o),
(376,-120,cs),
(376,-132,o),
(365,-138,o),
(350,-138,cs),
(334,-138,o),
(319,-134,o),
(303,-123,c),
(303,-207,l),
(316,-216,o),
(334,-225,o),
(356,-225,cs),
(409,-225,o),
(459,-190,o),
(459,-119,cs),
(459,-54,o),
(406,-22,o),
(349,-22,c)
);
}
);
};
layerId = "2D992F1A-8218-4049-8E15-5955C72037C9";
shapes = (
{
ref = N;
},
{
pos = (234,0);
ref = commaaccent;
}
);
width = 772;
}
);
unicode = 325;
},
{
color = 4;
glyphname = Ntilde;
layers = (
{
background = {
anchors = (
{
name = bottom;
pos = (389,0);
},
{
name = top;
pos = (387,670);
}
);
shapes = (
{
closed = 1;
nodes = (
(579,670,l),
(579,185,l),
(144,670,l),
(110,670,l),
(110,0,l),
(200,0,l),
(200,479,l),
(635,0,l),
(669,0,l),
(669,670,l)
);
},
{
closed = 1;
nodes = (
(493,874,l),
(493,849,o),
(481,828,o),
(457,828,cs),
(415,828,o),
(404,879,o),
(331,879,cs),
(271,879,o),
(227,834,o),
(227,776,c),
(295,776,l),
(295,801,o),
(308,822,o),
(331,822,cs),
(373,822,o),
(384,771,o),
(457,771,cs),
(517,771,o),
(561,816,o),
(561,874,c)
);
}
);
};
layerId = "DEFEBCF2-9FF2-4B76-ADC8-AB6BD79F23E7";
shapes = (
{
ref = N;
},
{
pos = (151,154);
ref = tildecomb;
}
);
width = 779;
},
{
background = {
anchors = (
{
name = bottom;
pos = (386,0);
},
{
name = top;
pos = (386,670);
}
);
shapes = (
{
closed = 1;
nodes = (
(505,670,l),
(505,345,l),
(146,680,l),
(80,680,l),
(80,0,l),
(267,0,l),
(267,319,l),
(626,-10,l),
(692,-10,l),
(692,670,l)
);
},
{
closed = 1;
nodes = (
(483,845,l),
(483,822,o),
(472,808,o),
(450,808,cs),
(422,808,o),
(399,849,o),
(333,849,cs),
(263,849,o),
(205,803,o),
(205,710,c),
(299,710,l),
(299,733,o),
(311,747,o),
(332,747,cs),
(360,747,o),
(383,706,o),
(449,706,cs),
(519,706,o),
(577,752,o),
(577,845,c)
);
}
);
};
layerId = "2D992F1A-8218-4049-8E15-5955C72037C9";
shapes = (
{
ref = N;
},
{
pos = (161,160);
ref = tildecomb;
}
);
width = 772;
}
);
unicode = 209;
},
{
color = 4;
glyphname = Eng;
layers = (
{
anchors = (
{
name = bottom;
pos = (396,0);
},
{
name = top;
pos = (396,670);
}
);
background = {
anchors = (
{
name = bottom;
pos = (396,0);
},
{
name = top;
pos = (396,670);
}
);
shapes = (
{
closed = 1;
nodes = (
(646,135,l),
(146,670,l),
(110,670,l),
(110,0,l),
(207,0,l),
(207,469,l),
(613,35,l)
);
},
{
closed = 1;
nodes = (
(561,672,l),
(561,16,ls),
(561,-65,o),
(505,-127,o),
(391,-168,c),
(435,-255,l),
(560,-210,o),
(651,-136,o),
(651,34,cs),
(651,672,l)
);
}
);
};
layerId = "DEFEBCF2-9FF2-4B76-ADC8-AB6BD79F23E7";
shapes = (
{
closed = 1;
nodes = (
(207,0,l),
(207,469,l),
(613,35,l),
(646,135,l),
(146,670,l),
(110,670,l),
(110,0,l)
);
},
{
alignment = -1;
pos = (446,0);
ref = J;
}
);
width = 761;
},
{
anchors = (
{
name = bottom;
pos = (386,0);
},
{
name = top;
pos = (386,670);
}
);
background = {
anchors = (
{
name = bottom;
pos = (386,0);
},
{
name = top;
pos = (386,670);
}
);
shapes = (
{
closed = 1;
nodes = (
(624,224,l),
(146,680,l),
(80,680,l),
(80,0,l),
(267,0,l),
(267,329,l),
(561,51,l)
);
},
{
closed = 1;
nodes = (
(505,672,l),
(505,54,ls),
(505,-23,o),
(455,-72,o),
(358,-93,c),
(420,-255,l),
(581,-222,o),
(692,-120,o),
(692,47,cs),
(692,672,l)
);
}
);
};
layerId = "2D992F1A-8218-4049-8E15-5955C72037C9";
metricLeft = "=N";
metricRight = "=J";
shapes = (
{
closed = 1;
nodes = (
(267,0,l),
(267,329,l),
(561,51,l),
(624,224,l),
(146,680,l),
(80,680,l),
(80,0,l)
);
},
{
pos = (388,0);
ref = J;
}
);
width = 762;
}
);
metricLeft = "=N";
metricRight = "=J";
unicode = 330;
},
{
color = 4;
glyphname = O;
layers = (
{
anchors = (
{
name = top;
pos = (403,670);
}
);
background = {
anchors = (
{
name = top;
pos = (403,670);
}
);
shapes = (
{
closed = 1;
nodes = (
(201,685,o),
(50,527,o),
(50,335,cs),
(50,143,o),
(201,-15,o),
(403,-15,cs),
(605,-15,o),
(756,143,o),
(756,335,cs),
(756,527,o),
(605,685,o),
(403,685,cs)
);
},
{
closed = 1;
nodes = (
(553,597,o),
(664,485,o),
(664,335,cs),
(664,185,o),
(553,73,o),
(403,73,cs),
(253,73,o),
(142,185,o),
(142,335,cs),
(142,485,o),
(253,597,o),
(403,597,cs)
);
}
);
};
layerId = "DEFEBCF2-9FF2-4B76-ADC8-AB6BD79F23E7";
shapes = (
{
closed = 1;
nodes = (
(605,-15,o),
(756,143,o),
(756,335,cs),
(756,527,o),
(605,685,o),
(403,685,cs),
(201,685,o),
(50,527,o),
(50,335,cs),
(50,143,o),
(201,-15,o),
(403,-15,cs)
);
},
{
closed = 1;
nodes = (
(253,73,o),
(142,185,o),
(142,335,cs),
(142,485,o),
(253,597,o),
(403,597,cs),
(553,597,o),
(664,485,o),
(664,335,cs),
(664,185,o),
(553,73,o),
(403,73,cs)
);
}
);
width = 806;
},
{
anchors = (
{
name = top;
pos = (388,670);
}
);
background = {
anchors = (
{
name = top;
pos = (388,670);
}
);
shapes = (
{
closed = 1;
nodes = (
(206,685,o),
(40,557,o),
(40,335,cs),
(40,113,o),
(206,-15,o),
(388,-15,cs),
(570,-15,o),
(736,113,o),
(736,335,cs),
(736,557,o),
(570,685,o),
(388,685,cs)
);
},
{
closed = 1;
nodes = (
(478,510,o),
(544,435,o),
(544,335,cs),
(544,235,o),
(478,160,o),
(388,160,cs),
(298,160,o),
(232,235,o),
(232,335,cs),
(232,435,o),
(298,510,o),
(388,510,cs)
);
}
);
};
layerId = "2D992F1A-8218-4049-8E15-5955C72037C9";
shapes = (
{
closed = 1;
nodes = (
(570,-15,o),
(736,113,o),
(736,335,cs),
(736,557,o),
(570,685,o),
(388,685,cs),
(206,685,o),
(40,557,o),
(40,335,cs),
(40,113,o),
(206,-15,o),
(388,-15,cs)
);
},
{
closed = 1;
nodes = (
(298,160,o),
(232,235,o),
(232,335,cs),
(232,435,o),
(298,510,o),
(388,510,cs),
(478,510,o),
(544,435,o),
(544,335,cs),
(544,235,o),
(478,160,o),
(388,160,cs)
);
}
);
width = 776;
}
);
unicode = 79;
},
{
color = 4;
glyphname = Oacute;
layers = (
{
background = {
anchors = (
{
name = top;
pos = (403,670);
}
);
shapes = (
{
closed = 1;
nodes = (
(201,685,o),
(50,527,o),
(50,335,cs),
(50,143,o),
(201,-15,o),
(403,-15,cs),
(605,-15,o),
(756,143,o),
(756,335,cs),
(756,527,o),
(605,685,o),
(403,685,cs)
);
},
{
closed = 1;
nodes = (
(553,597,o),
(664,485,o),
(664,335,cs),
(664,185,o),
(553,73,o),
(403,73,cs),
(253,73,o),
(142,185,o),
(142,335,cs),
(142,485,o),
(253,597,o),
(403,597,cs)
);
},
{
closed = 1;
nodes = (
(461,890,l),
(351,755,l),
(433,755,l),
(575,890,l)
);
}
);
};
layerId = "DEFEBCF2-9FF2-4B76-ADC8-AB6BD79F23E7";
shapes = (
{
ref = O;
},
{
pos = (281,170);
ref = acutecomb;
}
);
width = 806;
},
{
background = {
anchors = (
{
name = top;
pos = (388,670);
}
);
shapes = (
{
closed = 1;
nodes = (
(206,685,o),
(40,557,o),
(40,335,cs),
(40,113,o),
(206,-15,o),
(388,-15,cs),
(570,-15,o),
(736,113,o),
(736,335,cs),
(736,557,o),
(570,685,o),
(388,685,cs)
);
},
{
closed = 1;
nodes = (
(478,510,o),
(544,435,o),
(544,335,cs),
(544,235,o),
(478,160,o),
(388,160,cs),
(298,160,o),
(232,235,o),
(232,335,cs),
(232,435,o),
(298,510,o),
(388,510,cs)
);
},
{
closed = 1;
nodes = (
(404,870,l),
(304,720,l),
(426,720,l),
(558,870,l)
);
}
);
};
layerId = "2D992F1A-8218-4049-8E15-5955C72037C9";
shapes = (
{
ref = O;
},
{
pos = (224,160);
ref = acutecomb;
}
);
width = 776;
}
);
unicode = 211;
},
{
color = 4;
glyphname = Ocircumflex;
layers = (
{
background = {
anchors = (
{
name = top;
pos = (403,670);
}
);
shapes = (
{
closed = 1;
nodes = (
(201,685,o),
(50,527,o),
(50,335,cs),
(50,143,o),
(201,-15,o),
(403,-15,cs),
(605,-15,o),
(756,143,o),
(756,335,cs),
(756,527,o),
(605,685,o),
(403,685,cs)
);
},
{
closed = 1;
nodes = (
(553,597,o),
(664,485,o),
(664,335,cs),
(664,185,o),
(553,73,o),
(403,73,cs),
(253,73,o),
(142,185,o),
(142,335,cs),
(142,485,o),
(253,597,o),
(403,597,cs)
);
},
{
closed = 1;
nodes = (
(381,890,l),
(241,751,l),
(323,751,l),
(403,829,l),
(483,751,l),
(565,751,l),
(425,890,l)
);
}
);
};
layerId = "DEFEBCF2-9FF2-4B76-ADC8-AB6BD79F23E7";
shapes = (
{
ref = O;
},
{
pos = (161,170);
ref = circumflexcomb;
}
);
width = 806;
},
{
background = {
anchors = (
{
name = top;
pos = (388,670);
}
);
shapes = (
{
closed = 1;
nodes = (
(206,685,o),
(40,557,o),
(40,335,cs),
(40,113,o),
(206,-15,o),
(388,-15,cs),
(570,-15,o),
(736,113,o),
(736,335,cs),
(736,557,o),
(570,685,o),
(388,685,cs)
);
},
{
closed = 1;
nodes = (
(478,510,o),
(544,435,o),
(544,335,cs),
(544,235,o),
(478,160,o),
(388,160,cs),
(298,160,o),
(232,235,o),
(232,335,cs),
(232,435,o),
(298,510,o),
(388,510,cs)
);
},
{
closed = 1;
nodes = (
(336,870,l),
(216,720,l),
(348,720,l),
(388,779,l),
(428,720,l),
(560,720,l),
(440,870,l)
);
}
);
};
layerId = "2D992F1A-8218-4049-8E15-5955C72037C9";
shapes = (
{
ref = O;
},
{
pos = (136,160);
ref = circumflexcomb;
}
);
width = 776;
}
);
unicode = 212;
},
{
color = 4;
glyphname = Odieresis;
layers = (
{
background = {
anchors = (
{
name = top;
pos = (403,670);
}
);
shapes = (
{
closed = 1;
nodes = (
(201,685,o),
(50,527,o),
(50,335,cs),
(50,143,o),
(201,-15,o),
(403,-15,cs),
(605,-15,o),
(756,143,o),
(756,335,cs),
(756,527,o),
(605,685,o),
(403,685,cs)
);
},
{
closed = 1;
nodes = (
(553,597,o),
(664,485,o),
(664,335,cs),
(664,185,o),
(553,73,o),
(403,73,cs),
(253,73,o),
(142,185,o),
(142,335,cs),
(142,485,o),
(253,597,o),
(403,597,cs)
);
},
{
closed = 1;
nodes = (
(473,889,o),
(445,861,o),
(445,826,cs),
(445,792,o),
(473,763,o),
(508,763,c),
(542,763,o),
(571,792,o),
(571,826,cs),
(571,861,o),
(542,889,o),
(508,889,cs)
);
},
{
closed = 1;
nodes = (
(263,889,o),
(235,861,o),
(235,826,cs),
(235,792,o),
(263,763,o),
(298,763,c),
(332,763,o),
(361,792,o),
(361,826,cs),
(361,861,o),
(332,889,o),
(298,889,cs)
);
}
);
};
layerId = "DEFEBCF2-9FF2-4B76-ADC8-AB6BD79F23E7";
shapes = (
{
ref = O;
},
{
pos = (155,170);
ref = dieresiscomb;
}
);
width = 806;
},
{
background = {
anchors = (
{
name = top;
pos = (388,670);
}
);
shapes = (
{
closed = 1;
nodes = (
(206,685,o),
(40,557,o),
(40,335,cs),
(40,113,o),
(206,-15,o),
(388,-15,cs),
(570,-15,o),
(736,113,o),
(736,335,cs),
(736,557,o),
(570,685,o),
(388,685,cs)
);
},
{
closed = 1;
nodes = (
(478,510,o),
(544,435,o),
(544,335,cs),
(544,235,o),
(478,160,o),
(388,160,cs),
(298,160,o),
(232,235,o),
(232,335,cs),
(232,435,o),
(298,510,o),
(388,510,cs)
);
},
{
closed = 1;
nodes = (
(451,885,o),
(417,851,o),
(417,809,cs),
(417,768,o),
(451,733,o),
(493,733,c),
(534,733,o),
(569,768,o),
(569,809,cs),
(569,851,o),
(534,885,o),
(493,885,cs)
);
},
{
closed = 1;
nodes = (
(241,885,o),
(207,851,o),
(207,809,cs),
(207,768,o),
(241,733,o),
(283,733,c),
(324,733,o),
(359,768,o),
(359,809,cs),
(359,851,o),
(324,885,o),
(283,885,cs)
);
}
);
};
layerId = "2D992F1A-8218-4049-8E15-5955C72037C9";
shapes = (
{
ref = O;
},
{
pos = (121,160);
ref = dieresiscomb;
}
);
width = 776;
}
);
unicode = 214;
},
{
color = 4;
glyphname = Ograve;
layers = (
{
background = {
anchors = (
{
name = top;
pos = (403,670);
}
);
shapes = (
{
closed = 1;
nodes = (
(201,685,o),
(50,527,o),
(50,335,cs),
(50,143,o),
(201,-15,o),
(403,-15,cs),
(605,-15,o),
(756,143,o),
(756,335,cs),
(756,527,o),
(605,685,o),
(403,685,cs)
);
},
{
closed = 1;
nodes = (
(553,597,o),
(664,485,o),
(664,335,cs),
(664,185,o),
(553,73,o),
(403,73,cs),
(253,73,o),
(142,185,o),
(142,335,cs),
(142,485,o),
(253,597,o),
(403,597,cs)
);
},
{
closed = 1;
nodes = (
(366,755,l),
(448,755,l),
(338,890,l),
(224,890,l)
);
}
);
};
layerId = "DEFEBCF2-9FF2-4B76-ADC8-AB6BD79F23E7";
shapes = (
{
ref = O;
},
{
pos = (205,170);
ref = gravecomb;
}
);
width = 806;
},
{
background = {
anchors = (
{
name = top;
pos = (388,670);
}
);
shapes = (
{
closed = 1;
nodes = (
(206,685,o),
(40,557,o),
(40,335,cs),
(40,113,o),
(206,-15,o),
(388,-15,cs),
(570,-15,o),
(736,113,o),
(736,335,cs),
(736,557,o),
(570,685,o),
(388,685,cs)
);
},
{
closed = 1;
nodes = (
(478,510,o),
(544,435,o),
(544,335,cs),
(544,235,o),
(478,160,o),
(388,160,cs),
(298,160,o),
(232,235,o),
(232,335,cs),
(232,435,o),
(298,510,o),
(388,510,cs)
);
},
{
closed = 1;
nodes = (
(198,870,l),
(330,720,l),
(452,720,l),
(352,870,l)
);
}
);
};
layerId = "2D992F1A-8218-4049-8E15-5955C72037C9";
shapes = (
{
ref = O;
},
{
pos = (118,160);
ref = gravecomb;
}
);
width = 776;
}
);
unicode = 210;
},
{
color = 4;
glyphname = Ohungarumlaut;
layers = (
{
background = {
anchors = (
{
name = top;
pos = (403,670);
}
);
shapes = (
{
closed = 1;
nodes = (
(201,685,o),
(50,527,o),
(50,335,cs),
(50,143,o),
(201,-15,o),
(403,-15,cs),
(605,-15,o),
(756,143,o),
(756,335,cs),
(756,527,o),
(605,685,o),
(403,685,cs)
);
},
{
closed = 1;
nodes = (
(553,597,o),
(664,485,o),
(664,335,cs),
(664,185,o),
(553,73,o),
(403,73,cs),
(253,73,o),
(142,185,o),
(142,335,cs),
(142,485,o),
(253,597,o),
(403,597,cs)
);
},
{
closed = 1;
nodes = (
(511,890,l),
(401,755,l),
(483,755,l),
(625,890,l)
);
},
{
closed = 1;
nodes = (
(360,890,l),
(250,755,l),
(332,755,l),
(474,890,l)
);
}
);
};
layerId = "DEFEBCF2-9FF2-4B76-ADC8-AB6BD79F23E7";
shapes = (
{
ref = O;
},
{
pos = (200,170);
ref = hungarumlautcomb;
}
);
width = 806;
},
{
background = {
anchors = (
{
name = top;
pos = (388,670);
}
);
shapes = (
{
closed = 1;
nodes = (
(206,685,o),
(40,557,o),
(40,335,cs),
(40,113,o),
(206,-15,o),
(388,-15,cs),
(570,-15,o),
(736,113,o),
(736,335,cs),
(736,557,o),
(570,685,o),
(388,685,cs)
);
},
{
closed = 1;
nodes = (
(478,510,o),
(544,435,o),
(544,335,cs),
(544,235,o),
(478,160,o),
(388,160,cs),
(298,160,o),
(232,235,o),
(232,335,cs),
(232,435,o),
(298,510,o),
(388,510,cs)
);
},
{
closed = 1;
nodes = (
(503,870,l),
(403,720,l),
(525,720,l),
(657,870,l)
);
},
{
closed = 1;
nodes = (
(299,870,l),
(199,720,l),
(321,720,l),
(453,870,l)
);
}
);
};
layerId = "2D992F1A-8218-4049-8E15-5955C72037C9";
shapes = (
{
ref = O;
},
{
pos = (129,160);
ref = hungarumlautcomb;
}
);
width = 776;
}
);
unicode = 336;
},
{
color = 4;
glyphname = Omacron;
layers = (
{
background = {
anchors = (
{
name = top;
pos = (403,670);
}
);
shapes = (
{
closed = 1;
nodes = (
(201,685,o),
(50,527,o),
(50,335,cs),
(50,143,o),
(201,-15,o),
(403,-15,cs),
(605,-15,o),
(756,143,o),
(756,335,cs),
(756,527,o),
(605,685,o),
(403,685,cs)
);
},
{
closed = 1;
nodes = (
(553,597,o),
(664,485,o),
(664,335,cs),
(664,185,o),
(553,73,o),
(403,73,cs),
(253,73,o),
(142,185,o),
(142,335,cs),
(142,485,o),
(253,597,o),
(403,597,cs)
);
},
{
closed = 1;
nodes = (
(228,888,l),
(228,808,l),
(578,808,l),
(578,888,l)
);
}
);
};
layerId = "DEFEBCF2-9FF2-4B76-ADC8-AB6BD79F23E7";
shapes = (
{
ref = O;
},
{
pos = (138,170);
ref = macroncomb;
}
);
width = 806;
},
{
background = {
anchors = (
{
name = top;
pos = (388,670);
}
);
shapes = (
{
closed = 1;
nodes = (
(206,685,o),
(40,557,o),
(40,335,cs),
(40,113,o),
(206,-15,o),
(388,-15,cs),
(570,-15,o),
(736,113,o),
(736,335,cs),
(736,557,o),
(570,685,o),
(388,685,cs)
);
},
{
closed = 1;
nodes = (
(478,510,o),
(544,435,o),
(544,335,cs),
(544,235,o),
(478,160,o),
(388,160,cs),
(298,160,o),
(232,235,o),
(232,335,cs),
(232,435,o),
(298,510,o),
(388,510,cs)
);
},
{
closed = 1;
nodes = (
(203,870,l),
(203,760,l),
(573,760,l),
(573,870,l)
);
}
);
};
layerId = "2D992F1A-8218-4049-8E15-5955C72037C9";
shapes = (
{
ref = O;
},
{
pos = (103,160);
ref = macroncomb;
}
);
width = 776;
}
);
unicode = 332;
},
{
color = 4;
glyphname = Oslash;
layers = (
{
background = {
anchors = (
{
name = top;
pos = (403,670);
}
);
shapes = (
{
closed = 1;
nodes = (
(125,25,l),
(174,-15,l),
(702,645,l),
(650,685,l)
);
},
{
closed = 1;
nodes = (
(201,685,o),
(50,527,o),
(50,335,cs),
(50,143,o),
(201,-15,o),
(403,-15,cs),
(605,-15,o),
(756,143,o),
(756,335,cs),
(756,527,o),
(605,685,o),
(403,685,cs)
);
},
{
closed = 1;
nodes = (
(553,597,o),
(664,485,o),
(664,335,cs),
(664,185,o),
(553,73,o),
(403,73,cs),
(253,73,o),
(142,185,o),
(142,335,cs),
(142,485,o),
(253,597,o),
(403,597,cs)
);
}
);
};
layerId = "DEFEBCF2-9FF2-4B76-ADC8-AB6BD79F23E7";
shapes = (
{
closed = 1;
nodes = (
(702,645,l),
(650,685,l),
(125,25,l),
(174,-15,l)
);
},
{
ref = O;
}
);
width = 806;
},
{
background = {
anchors = (
{
name = top;
pos = (388,670);
}
);
shapes = (
{
closed = 1;
nodes = (
(75,45,l),
(154,-15,l),
(712,625,l),
(630,685,l)
);
},
{
closed = 1;
nodes = (
(206,685,o),
(40,557,o),
(40,335,cs),
(40,113,o),
(206,-15,o),
(388,-15,cs),
(570,-15,o),
(736,113,o),
(736,335,cs),
(736,557,o),
(570,685,o),
(388,685,cs)
);
},
{
closed = 1;
nodes = (
(478,510,o),
(544,435,o),
(544,335,cs),
(544,235,o),
(478,160,o),
(388,160,cs),
(298,160,o),
(232,235,o),
(232,335,cs),
(232,435,o),
(298,510,o),
(388,510,cs)
);
}
);
};
layerId = "2D992F1A-8218-4049-8E15-5955C72037C9";
metricLeft = "=O";
metricRight = "=O";
shapes = (
{
closed = 1;
nodes = (
(712,625,l),
(630,685,l),
(75,45,l),
(154,-15,l)
);
},
{
ref = O;
}
);
width = 776;
}
);
metricLeft = "=O";
metricRight = "=O";
unicode = 216;
},
{
color = 4;
glyphname = Otilde;
layers = (
{
background = {
anchors = (
{
name = top;
pos = (403,670);
}
);
shapes = (
{
closed = 1;
nodes = (
(201,685,o),
(50,527,o),
(50,335,cs),
(50,143,o),
(201,-15,o),
(403,-15,cs),
(605,-15,o),
(756,143,o),
(756,335,cs),
(756,527,o),
(605,685,o),
(403,685,cs)
);
},
{
closed = 1;
nodes = (
(553,597,o),
(664,485,o),
(664,335,cs),
(664,185,o),
(553,73,o),
(403,73,cs),
(253,73,o),
(142,185,o),
(142,335,cs),
(142,485,o),
(253,597,o),
(403,597,cs)
);
},
{
closed = 1;
nodes = (
(509,874,l),
(509,849,o),
(497,828,o),
(473,828,cs),
(431,828,o),
(420,879,o),
(347,879,cs),
(287,879,o),
(243,834,o),
(243,776,c),
(311,776,l),
(311,801,o),
(324,822,o),
(347,822,cs),
(389,822,o),
(400,771,o),
(473,771,cs),
(533,771,o),
(577,816,o),
(577,874,c)
);
}
);
};
layerId = "DEFEBCF2-9FF2-4B76-ADC8-AB6BD79F23E7";
shapes = (
{
ref = O;
},
{
pos = (167,154);
ref = tildecomb;
}
);
width = 806;
},
{
background = {
anchors = (
{
name = top;
pos = (388,670);
}
);
shapes = (
{
closed = 1;
nodes = (
(206,685,o),
(40,557,o),
(40,335,cs),
(40,113,o),
(206,-15,o),
(388,-15,cs),
(570,-15,o),
(736,113,o),
(736,335,cs),
(736,557,o),
(570,685,o),
(388,685,cs)
);
},
{
closed = 1;
nodes = (
(478,510,o),
(544,435,o),
(544,335,cs),
(544,235,o),
(478,160,o),
(388,160,cs),
(298,160,o),
(232,235,o),
(232,335,cs),
(232,435,o),
(298,510,o),
(388,510,cs)
);
},
{
closed = 1;
nodes = (
(485,845,l),
(485,822,o),
(474,808,o),
(452,808,cs),
(424,808,o),
(401,849,o),
(335,849,cs),
(265,849,o),
(207,803,o),
(207,710,c),
(301,710,l),
(301,733,o),
(313,747,o),
(334,747,cs),
(362,747,o),
(385,706,o),
(451,706,cs),
(521,706,o),
(579,752,o),
(579,845,c)
);
}
);
};
layerId = "2D992F1A-8218-4049-8E15-5955C72037C9";
metricLeft = "=O";
metricRight = "=O";
shapes = (
{
ref = O;
},
{
pos = (163,160);
ref = tildecomb;
}
);
width = 776;
}
);
metricLeft = "=O";
metricRight = "=O";
unicode = 213;
},
{
color = 4;
glyphname = OE;
layers = (
{
anchors = (
{
name = top;
pos = (399,670);
}
);
background = {
anchors = (
{
name = bottom;
pos = (705,0);
},
{
name = ogonek;
pos = (959,10);
},
{
name = top;
pos = (399,670);
}
);
shapes = (
{
closed = 1;
nodes = (
(399,670,ls),
(207,670,o),
(46,527,o),
(46,335,cs),
(46,143,o),
(207,0,o),
(399,0,cs),
(492,0,l),
(492,95,l),
(399,95,ls),
(259,95,o),
(148,185,o),
(148,335,cs),
(148,485,o),
(259,575,o),
(399,575,cs),
(492,575,l),
(492,670,l)
);
},
{
closed = 1;
nodes = (
(495,670,l),
(495,0,l),
(954,0,l),
(954,85,l),
(585,85,l),
(585,585,l),
(954,585,l),
(954,670,l)
);
},
{
closed = 1;
nodes = (
(552,386,l),
(552,301,l),
(911,301,l),
(911,386,l)
);
}
);
};
layerId = "DEFEBCF2-9FF2-4B76-ADC8-AB6BD79F23E7";
metricLeft = "=O";
metricRight = "=E";
shapes = (
{
closed = 1;
nodes = (
(496,0,l),
(496,95,l),
(403,95,ls),
(263,95,o),
(152,185,o),
(152,335,cs),
(152,485,o),
(263,575,o),
(403,575,cs),
(496,575,l),
(496,670,l),
(403,670,ls),
(211,670,o),
(50,527,o),
(50,335,cs),
(50,143,o),
(211,0,o),
(403,0,cs)
);
},
{
pos = (385,0);
ref = E;
}
);
width = 1024;
},
{
anchors = (
{
name = top;
pos = (393,670);
}
);
background = {
anchors = (
{
name = bottom;
pos = (703,0);
},
{
name = ogonek;
pos = (954,10);
},
{
name = top;
pos = (393,670);
}
);
shapes = (
{
closed = 1;
nodes = (
(393,670,l),
(201,670,o),
(40,527,o),
(40,335,cs),
(40,143,o),
(201,0,o),
(393,0,c),
(486,0,l),
(486,135,l),
(393,135,ls),
(283,135,o),
(202,215,o),
(202,335,cs),
(202,455,o),
(283,525,o),
(393,525,cs),
(486,525,l),
(486,670,l)
);
},
{
closed = 1;
nodes = (
(459,670,l),
(459,0,l),
(953,0,l),
(953,160,l),
(646,160,l),
(646,515,l),
(953,515,l),
(953,670,l)
);
},
{
closed = 1;
nodes = (
(564,414,l),
(564,264,l),
(919,264,l),
(919,414,l)
);
}
);
};
layerId = "2D992F1A-8218-4049-8E15-5955C72037C9";
shapes = (
{
closed = 1;
nodes = (
(486,0,l),
(486,135,l),
(393,135,ls),
(283,135,o),
(202,215,o),
(202,335,cs),
(202,455,o),
(283,525,o),
(393,525,cs),
(486,525,l),
(486,670,l),
(393,670,l),
(201,670,o),
(40,527,o),
(40,335,cs),
(40,143,o),
(201,0,o),
(393,0,c)
);
},
{
pos = (379,0);
ref = E;
}
);
width = 1023;
}
);
metricLeft = "=O";
metricRight = "=E";
unicode = 338;
},
{
color = 4;
glyphname = P;
layers = (
{
background = {
shapes = (
{
closed = 1;
nodes = (
(110,670,l),
(110,0,l),
(200,0,l),
(200,585,l),
(352,585,ls),
(438,585,o),
(518,524,o),
(518,439,cs),
(518,344,o),
(460,292,o),
(359,292,cs),
(291,292,o),
(220,313,o),
(188,330,c),
(188,248,l),
(221,230,o),
(285,209,o),
(362,209,cs),
(500,209,o),
(610,301,o),
(610,439,cs),
(610,577,o),
(492,670,o),
(377,670,cs)
);
}
);
};
layerId = "DEFEBCF2-9FF2-4B76-ADC8-AB6BD79F23E7";
metricLeft = "=L";
metricRight = "=O";
shapes = (
{
closed = 1;
nodes = (
(200,0,l),
(200,585,l),
(352,585,ls),
(438,585,o),
(518,524,o),
(518,439,cs),
(518,344,o),
(460,292,o),
(359,292,cs),
(291,292,o),
(220,313,o),
(188,330,c),
(188,248,l),
(221,230,o),
(285,209,o),
(362,209,cs),
(500,209,o),
(610,301,o),
(610,439,cs),
(610,577,o),
(492,670,o),
(377,670,cs),
(110,670,l),
(110,0,l)
);
}
);
width = 660;
},
{
background = {
shapes = (
{
closed = 1;
nodes = (
(70,670,l),
(70,0,l),
(257,0,l),
(257,495,l),
(335,495,ls),
(394,495,o),
(438,472,o),
(438,397,cs),
(438,339,o),
(394,296,o),
(335,296,cs),
(296,296,o),
(261,306,o),
(235,318,c),
(235,171,l),
(265,150,o),
(312,141,o),
(377,141,cs),
(507,141,o),
(630,242,o),
(630,397,cs),
(630,575,o),
(492,670,o),
(357,670,cs)
);
}
);
};
layerId = "2D992F1A-8218-4049-8E15-5955C72037C9";
metricRight = "=O-10";
shapes = (
{
closed = 1;
nodes = (
(257,0,l),
(257,495,l),
(335,495,ls),
(394,495,o),
(438,472,o),
(438,397,cs),
(438,339,o),
(394,296,o),
(335,296,cs),
(296,296,o),
(261,306,o),
(235,318,c),
(235,171,l),
(265,150,o),
(312,141,o),
(377,141,cs),
(507,141,o),
(630,242,o),
(630,397,cs),
(630,575,o),
(492,670,o),
(357,670,cs),
(70,670,l),
(70,0,l)
);
}
);
width = 660;
}
);
metricLeft = "=I";
metricRight = "=O";
unicode = 80;
},
{
color = 4;
glyphname = Thorn;
layers = (
{
background = {
shapes = (
{
closed = 1;
nodes = (
(110,670,l),
(110,0,l),
(207,0,l),
(207,172,l),
(253,157,o),
(300,148,o),
(359,148,cs),
(501,148,o),
(584,242,o),
(584,352,cs),
(584,472,o),
(473,550,o),
(358,550,cs),
(207,550,l),
(207,670,l)
);
},
{
closed = 1;
nodes = (
(419,460,o),
(482,419,o),
(482,352,cs),
(482,285,o),
(444,233,o),
(353,233,cs),
(307,233,o),
(249,240,o),
(207,263,c),
(207,460,l),
(333,460,ls)
);
}
);
};
layerId = "DEFEBCF2-9FF2-4B76-ADC8-AB6BD79F23E7";
metricLeft = "=L";
metricRight = "=O";
shapes = (
{
closed = 1;
nodes = (
(207,0,l),
(207,172,l),
(253,157,o),
(300,148,o),
(359,148,cs),
(501,148,o),
(584,242,o),
(584,352,cs),
(584,472,o),
(473,550,o),
(358,550,cs),
(207,550,l),
(207,670,l),
(110,670,l),
(110,0,l)
);
},
{
closed = 1;
nodes = (
(307,233,o),
(249,240,o),
(207,263,c),
(207,460,l),
(333,460,ls),
(419,460,o),
(482,419,o),
(482,352,cs),
(482,285,o),
(444,233,o),
(353,233,cs)
);
}
);
width = 634;
},
{
background = {
shapes = (
{
closed = 1;
nodes = (
(80,670,l),
(80,0,l),
(237,0,l),
(237,123,l),
(283,110,o),
(328,99,o),
(387,99,cs),
(529,99,o),
(644,192,o),
(644,333,cs),
(644,463,o),
(533,561,o),
(418,561,cs),
(237,561,l),
(237,670,l)
);
},
{
closed = 1;
nodes = (
(427,411,o),
(482,386,o),
(482,333,cs),
(482,273,o),
(442,244,o),
(373,244,cs),
(337,244,o),
(276,254,o),
(237,274,c),
(237,411,l),
(363,411,ls)
);
}
);
};
layerId = "2D992F1A-8218-4049-8E15-5955C72037C9";
shapes = (
{
closed = 1;
nodes = (
(237,0,l),
(237,123,l),
(283,110,o),
(328,99,o),
(387,99,cs),
(529,99,o),
(644,192,o),
(644,333,cs),
(644,463,o),
(533,561,o),
(418,561,cs),
(237,561,l),
(237,670,l),
(80,670,l),
(80,0,l)
);
},
{
closed = 1;
nodes = (
(337,244,o),
(276,254,o),
(237,274,c),
(237,411,l),
(363,411,ls),
(427,411,o),
(482,386,o),
(482,333,cs),
(482,273,o),
(442,244,o),
(373,244,cs)
);
}
);
width = 674;
}
);
metricLeft = "=L";
metricRight = "=P";
unicode = 222;
},
{
color = 4;
glyphname = Q;
layers = (
{
background = {
shapes = (
{
closed = 1;
nodes = (
(201,685,o),
(50,527,o),
(50,335,cs),
(50,143,o),
(201,-15,o),
(403,-15,cs),
(605,-15,o),
(756,143,o),
(756,335,cs),
(756,527,o),
(605,685,o),
(403,685,cs)
);
},
{
closed = 1;
nodes = (
(403,-15,l),
(506,-92,o),
(653,-154,o),
(764,-154,c),
(764,-64,l),
(684,-64,o),
(549,-21,o),
(442,25,c)
);
},
{
closed = 1;
nodes = (
(553,597,o),
(664,485,o),
(664,335,cs),
(664,185,o),
(553,73,o),
(403,73,cs),
(253,73,o),
(142,185,o),
(142,335,cs),
(142,485,o),
(253,597,o),
(403,597,cs)
);
}
);
};
layerId = "DEFEBCF2-9FF2-4B76-ADC8-AB6BD79F23E7";
metricLeft = "=O";
metricRight = "=L";
shapes = (
{
closed = 1;
nodes = (
(605,-15,o),
(756,143,o),
(756,335,cs),
(756,527,o),
(605,685,o),
(403,685,cs),
(201,685,o),
(50,527,o),
(50,335,cs),
(50,143,o),
(201,-15,o),
(403,-15,cs)
);
},
{
closed = 1;
nodes = (
(764,-64,l),
(684,-64,o),
(549,-21,o),
(442,25,c),
(403,-15,l),
(506,-92,o),
(653,-154,o),
(764,-154,c)
);
},
{
closed = 1;
nodes = (
(253,73,o),
(142,185,o),
(142,335,cs),
(142,485,o),
(253,597,o),
(403,597,cs),
(553,597,o),
(664,485,o),
(664,335,cs),
(664,185,o),
(553,73,o),
(403,73,cs)
);
}
);
width = 809;
},
{
background = {
shapes = (
{
closed = 1;
nodes = (
(206,685,o),
(40,557,o),
(40,335,cs),
(40,113,o),
(206,-15,o),
(388,-15,cs),
(570,-15,o),
(736,113,o),
(736,335,cs),
(736,557,o),
(570,685,o),
(388,685,cs)
);
},
{
closed = 1;
nodes = (
(388,-15,l),
(480,-122,o),
(634,-171,o),
(755,-171,c),
(755,-15,l),
(675,-15,o),
(596,-13,o),
(538,23,c)
);
},
{
closed = 1;
nodes = (
(478,510,o),
(544,435,o),
(544,335,cs),
(544,235,o),
(478,160,o),
(388,160,cs),
(298,160,o),
(232,235,o),
(232,335,cs),
(232,435,o),
(298,510,o),
(388,510,cs)
);
}
);
};
layerId = "2D992F1A-8218-4049-8E15-5955C72037C9";
shapes = (
{
closed = 1;
nodes = (
(570,-15,o),
(736,113,o),
(736,335,cs),
(736,557,o),
(570,685,o),
(388,685,cs),
(206,685,o),
(40,557,o),
(40,335,cs),
(40,113,o),
(206,-15,o),
(388,-15,cs)
);
},
{
closed = 1;
nodes = (
(755,-15,l),
(675,-15,o),
(596,-13,o),
(538,23,c),
(388,-15,l),
(480,-122,o),
(634,-171,o),
(755,-171,c)
);
},
{
closed = 1;
nodes = (
(298,160,o),
(232,235,o),
(232,335,cs),
(232,435,o),
(298,510,o),
(388,510,cs),
(478,510,o),
(544,435,o),
(544,335,cs),
(544,235,o),
(478,160,o),
(388,160,cs)
);
}
);
width = 775;
}
);
metricLeft = "=O";
metricRight = "=L-40";
unicode = 81;
},
{
color = 4;
glyphname = R;
layers = (
{
anchors = (
{
name = bottom;
pos = (366,0);
},
{
name = top;
pos = (308,670);
}
);
background = {
anchors = (
{
name = bottom;
pos = (366,0);
},
{
name = top;
pos = (308,670);
}
);
shapes = (
{
closed = 1;
nodes = (
(110,670,l),
(110,0,l),
(200,0,l),
(200,585,l),
(352,585,ls),
(438,585,o),
(508,544,o),
(508,469,cs),
(508,397,o),
(450,351,o),
(349,351,cs),
(295,351,o),
(238,359,o),
(193,372,c),
(193,297,l),
(226,289,o),
(319,278,o),
(362,278,cs),
(478,278,o),
(600,344,o),
(600,469,cs),
(600,607,o),
(482,670,o),
(367,670,cs)
);
},
{
closed = 1;
nodes = (
(183,297,l),
(488,0,l),
(626,0,l),
(255,334,l)
);
}
);
};
layerId = "DEFEBCF2-9FF2-4B76-ADC8-AB6BD79F23E7";
metricLeft = "=L";
metricRight = "=V+10";
shapes = (
{
closed = 1;
nodes = (
(200,0,l),
(200,585,l),
(352,585,ls),
(438,585,o),
(508,544,o),
(508,469,cs),
(508,397,o),
(450,351,o),
(349,351,cs),
(295,351,o),
(238,359,o),
(193,372,c),
(193,297,l),
(226,289,o),
(319,278,o),
(362,278,cs),
(478,278,o),
(600,344,o),
(600,469,cs),
(600,607,o),
(482,670,o),
(367,670,cs),
(110,670,l),
(110,0,l)
);
},
{
closed = 1;
nodes = (
(626,0,l),
(255,334,l),
(183,297,l),
(488,0,l)
);
}
);
width = 646;
},
{
anchors = (
{
name = bottom;
pos = (349,0);
},
{
name = top;
pos = (309,670);
}
);
background = {
anchors = (
{
name = bottom;
pos = (349,0);
},
{
name = top;
pos = (309,670);
}
);
shapes = (
{
closed = 1;
nodes = (
(80,670,l),
(80,0,l),
(267,0,l),
(267,515,l),
(345,515,ls),
(404,515,o),
(448,492,o),
(448,437,cs),
(448,389,o),
(404,356,o),
(345,356,cs),
(306,356,o),
(271,367,o),
(245,379,c),
(245,284,l),
(275,278,o),
(382,247,o),
(417,247,cs),
(540,247,o),
(640,312,o),
(640,437,cs),
(640,595,o),
(502,670,o),
(367,670,cs)
);
},
{
closed = 1;
nodes = (
(255,284,l),
(446,0,l),
(674,0,l),
(423,333,l)
);
}
);
};
layerId = "2D992F1A-8218-4049-8E15-5955C72037C9";
metricLeft = "=L";
metricRight = "=V";
shapes = (
{
closed = 1;
nodes = (
(267,0,l),
(267,515,l),
(345,515,ls),
(404,515,o),
(448,492,o),
(448,437,cs),
(448,389,o),
(404,356,o),
(345,356,cs),
(306,356,o),
(271,367,o),
(245,379,c),
(245,284,l),
(275,278,o),
(382,247,o),
(417,247,cs),
(540,247,o),
(640,312,o),
(640,437,cs),
(640,595,o),
(502,670,o),
(367,670,cs),
(80,670,l),
(80,0,l)
);
},
{
closed = 1;
nodes = (
(674,0,l),
(423,333,l),
(255,284,l),
(446,0,l)
);
}
);
width = 689;
}
);
metricLeft = "=I";
metricRight = "=L";
unicode = 82;
},
{
color = 4;
glyphname = Racute;
layers = (
{
background = {
anchors = (
{
name = bottom;
pos = (366,0);
},
{
name = top;
pos = (308,670);
}
);
shapes = (
{
closed = 1;
nodes = (
(110,670,l),
(110,0,l),
(200,0,l),
(200,585,l),
(352,585,ls),
(438,585,o),
(508,544,o),
(508,469,cs),
(508,397,o),
(450,351,o),
(349,351,cs),
(295,351,o),
(238,359,o),
(193,372,c),
(193,297,l),
(226,289,o),
(319,278,o),
(362,278,cs),
(478,278,o),
(600,344,o),
(600,469,cs),
(600,607,o),
(482,670,o),
(367,670,cs)
);
},
{
closed = 1;
nodes = (
(183,297,l),
(488,0,l),
(626,0,l),
(255,334,l)
);
},
{
closed = 1;
nodes = (
(366,890,l),
(256,755,l),
(338,755,l),
(480,890,l)
);
}
);
};
layerId = "DEFEBCF2-9FF2-4B76-ADC8-AB6BD79F23E7";
shapes = (
{
ref = R;
},
{
pos = (186,170);
ref = acutecomb;
}
);
width = 646;
},
{
background = {
anchors = (
{
name = bottom;
pos = (349,0);
},
{
name = top;
pos = (309,670);
}
);
shapes = (
{
closed = 1;
nodes = (
(80,670,l),
(80,0,l),
(267,0,l),
(267,515,l),
(345,515,ls),
(404,515,o),
(448,492,o),
(448,437,cs),
(448,389,o),
(404,356,o),
(345,356,cs),
(306,356,o),
(271,367,o),
(245,379,c),
(245,284,l),
(275,278,o),
(382,247,o),
(417,247,cs),
(540,247,o),
(640,312,o),
(640,437,cs),
(640,595,o),
(502,670,o),
(367,670,cs)
);
},
{
closed = 1;
nodes = (
(255,284,l),
(446,0,l),
(674,0,l),
(423,333,l)
);
},
{
closed = 1;
nodes = (
(325,870,l),
(225,720,l),
(347,720,l),
(479,870,l)
);
}
);
};
layerId = "2D992F1A-8218-4049-8E15-5955C72037C9";
shapes = (
{
ref = R;
},
{
pos = (145,160);
ref = acutecomb;
}
);
width = 689;
}
);
unicode = 340;
},
{
color = 4;
glyphname = Rcaron;
layers = (
{
background = {
anchors = (
{
name = bottom;
pos = (366,0);
},
{
name = top;
pos = (308,670);
}
);
shapes = (
{
closed = 1;
nodes = (
(110,670,l),
(110,0,l),
(200,0,l),
(200,585,l),
(352,585,ls),
(438,585,o),
(508,544,o),
(508,469,cs),
(508,397,o),
(450,351,o),
(349,351,cs),
(295,351,o),
(238,359,o),
(193,372,c),
(193,297,l),
(226,289,o),
(319,278,o),
(362,278,cs),
(478,278,o),
(600,344,o),
(600,469,cs),
(600,607,o),
(482,670,o),
(367,670,cs)
);
},
{
closed = 1;
nodes = (
(183,297,l),
(488,0,l),
(626,0,l),
(255,334,l)
);
},
{
closed = 1;
nodes = (
(286,751,l),
(330,751,l),
(470,890,l),
(388,890,l),
(308,812,l),
(228,890,l),
(146,890,l)
);
}
);
};
layerId = "DEFEBCF2-9FF2-4B76-ADC8-AB6BD79F23E7";
shapes = (
{
ref = R;
},
{
pos = (66,170);
ref = caroncomb;
}
);
width = 646;
},
{
background = {
anchors = (
{
name = bottom;
pos = (349,0);
},
{
name = top;
pos = (309,670);
}
);
shapes = (
{
closed = 1;
nodes = (
(80,670,l),
(80,0,l),
(267,0,l),
(267,515,l),
(345,515,ls),
(404,515,o),
(448,492,o),
(448,437,cs),
(448,389,o),
(404,356,o),
(345,356,cs),
(306,356,o),
(271,367,o),
(245,379,c),
(245,284,l),
(275,278,o),
(382,247,o),
(417,247,cs),
(540,247,o),
(640,312,o),
(640,437,cs),
(640,595,o),
(502,670,o),
(367,670,cs)
);
},
{
closed = 1;
nodes = (
(255,284,l),
(446,0,l),
(674,0,l),
(423,333,l)
);
},
{
closed = 1;
nodes = (
(257,720,l),
(361,720,l),
(481,870,l),
(349,870,l),
(309,811,l),
(269,870,l),
(137,870,l)
);
}
);
};
layerId = "2D992F1A-8218-4049-8E15-5955C72037C9";
shapes = (
{
ref = R;
},
{
pos = (77,160);
ref = caroncomb;
}
);
width = 689;
}
);
unicode = 344;
},
{
color = 4;
glyphname = Rcommaaccent;
layers = (
{
background = {
anchors = (
{
name = bottom;
pos = (366,0);
},
{
name = top;
pos = (308,670);
}
);
shapes = (
{
closed = 1;
nodes = (
(110,670,l),
(110,0,l),
(200,0,l),
(200,585,l),
(352,585,ls),
(438,585,o),
(508,544,o),
(508,469,cs),
(508,397,o),
(450,351,o),
(349,351,cs),
(295,351,o),
(238,359,o),
(193,372,c),
(193,297,l),
(226,289,o),
(319,278,o),
(362,278,cs),
(478,278,o),
(600,344,o),
(600,469,cs),
(600,607,o),
(482,670,o),
(367,670,cs)
);
},
{
closed = 1;
nodes = (
(183,297,l),
(488,0,l),
(626,0,l),
(255,334,l)
);
},
{
closed = 1;
nodes = (
(332,-70,l),
(357,-70,o),
(386,-88,o),
(386,-119,cs),
(386,-151,o),
(364,-173,o),
(328,-173,cs),
(308,-173,o),
(290,-168,o),
(274,-155,c),
(274,-207,l),
(287,-216,o),
(308,-225,o),
(336,-225,cs),
(381,-225,o),
(439,-187,o),
(439,-116,cs),
(439,-60,o),
(389,-22,o),
(332,-22,c)
);
}
);
};
layerId = "DEFEBCF2-9FF2-4B76-ADC8-AB6BD79F23E7";
shapes = (
{
ref = R;
},
{
pos = (214,0);
ref = commaaccent;
}
);
width = 646;
},
{
background = {
anchors = (
{
name = bottom;
pos = (349,0);
},
{
name = top;
pos = (309,670);
}
);
shapes = (
{
closed = 1;
nodes = (
(80,670,l),
(80,0,l),
(267,0,l),
(267,515,l),
(345,515,ls),
(404,515,o),
(448,492,o),
(448,437,cs),
(448,389,o),
(404,356,o),
(345,356,cs),
(306,356,o),
(271,367,o),
(245,379,c),
(245,284,l),
(275,278,o),
(382,247,o),
(417,247,cs),
(540,247,o),
(640,312,o),
(640,437,cs),
(640,595,o),
(502,670,o),
(367,670,cs)
);
},
{
closed = 1;
nodes = (
(255,284,l),
(446,0,l),
(674,0,l),
(423,333,l)
);
},
{
closed = 1;
nodes = (
(312,-101,l),
(327,-101,o),
(339,-108,o),
(339,-120,cs),
(339,-132,o),
(328,-138,o),
(313,-138,cs),
(297,-138,o),
(282,-134,o),
(266,-123,c),
(266,-207,l),
(279,-216,o),
(297,-225,o),
(319,-225,cs),
(372,-225,o),
(422,-190,o),
(422,-119,cs),
(422,-54,o),
(369,-22,o),
(312,-22,c)
);
}
);
};
layerId = "2D992F1A-8218-4049-8E15-5955C72037C9";
shapes = (
{
ref = R;
},
{
pos = (197,0);
ref = commaaccent;
}
);
width = 689;
}
);
unicode = 342;
},
{
color = 4;
glyphname = S;
layers = (
{
anchors = (
{
name = bottom;
pos = (262,0);
},
{
name = top;
pos = (273,670);
}
);
background = {
anchors = (
{
name = bottom;
pos = (262,0);
},
{
name = top;
pos = (273,670);
}
);
shapes = (
{
closed = 1;
nodes = (
(153,680,o),
(50,598,o),
(50,492,cs),
(50,417,o),
(78,361,o),
(174,318,cs),
(285,268,ls),
(326,250,o),
(381,222,o),
(381,172,cs),
(381,113,o),
(322,78,o),
(255,78,cs),
(170,78,o),
(103,112,o),
(51,148,c),
(51,55,l),
(99,21,o),
(166,-10,o),
(243,-10,cs),
(366,-10,o),
(473,67,o),
(473,176,cs),
(473,260,o),
(426,304,o),
(334,346,cs),
(242,388,ls),
(187,413,o),
(143,435,o),
(143,489,cs),
(143,561,o),
(221,592,o),
(282,592,cs),
(344,592,o),
(399,562,o),
(437,534,c),
(437,627,l),
(398,652,o),
(351,680,o),
(272,680,cs)
);
}
);
};
layerId = "DEFEBCF2-9FF2-4B76-ADC8-AB6BD79F23E7";
metricLeft = "=O";
metricRight = "=O";
shapes = (
{
closed = 1;
nodes = (
(366,-10,o),
(473,67,o),
(473,176,cs),
(473,260,o),
(426,304,o),
(334,346,cs),
(242,388,ls),
(187,413,o),
(143,435,o),
(143,489,cs),
(143,561,o),
(221,592,o),
(282,592,cs),
(344,592,o),
(399,562,o),
(437,534,c),
(437,627,l),
(398,652,o),
(351,680,o),
(272,680,cs),
(153,680,o),
(50,598,o),
(50,492,cs),
(50,417,o),
(78,361,o),
(174,318,cs),
(285,268,ls),
(326,250,o),
(381,222,o),
(381,172,cs),
(381,113,o),
(322,78,o),
(255,78,cs),
(170,78,o),
(103,112,o),
(51,148,c),
(51,55,l),
(99,21,o),
(166,-10,o),
(243,-10,cs)
);
}
);
width = 523;
},
{
anchors = (
{
name = bottom;
pos = (287,0);
},
{
name = top;
pos = (294,670);
}
);
background = {
anchors = (
{
name = bottom;
pos = (287,0);
},
{
name = top;
pos = (294,670);
}
);
shapes = (
{
closed = 1;
nodes = (
(162,685,o),
(40,608,o),
(40,467,cs),
(40,386,o),
(69,310,o),
(182,274,cs),
(277,244,ls),
(313,233,o),
(336,215,o),
(336,195,cs),
(336,167,o),
(314,147,o),
(268,147,cs),
(193,147,o),
(107,181,o),
(43,229,c),
(43,58,l),
(102,16,o),
(185,-15,o),
(265,-15,cs),
(420,-15,o),
(543,77,o),
(543,205,cs),
(543,277,o),
(502,335,o),
(405,373,cs),
(337,400,ls),
(281,422,o),
(237,437,o),
(237,470,cs),
(237,501,o),
(264,523,o),
(308,523,cs),
(384,523,o),
(445,494,o),
(502,461,c),
(502,632,l),
(455,664,o),
(371,685,o),
(293,685,cs)
);
}
);
};
layerId = "2D992F1A-8218-4049-8E15-5955C72037C9";
metricLeft = "=O";
metricRight = "=O-10";
shapes = (
{
closed = 1;
nodes = (
(420,-15,o),
(543,77,o),
(543,205,cs),
(543,277,o),
(502,335,o),
(405,373,cs),
(337,400,ls),
(281,422,o),
(237,437,o),
(237,470,cs),
(237,501,o),
(264,523,o),
(308,523,cs),
(384,523,o),
(445,494,o),
(502,461,c),
(502,632,l),
(455,664,o),
(371,685,o),
(293,685,cs),
(162,685,o),
(40,608,o),
(40,467,cs),
(40,386,o),
(69,310,o),
(182,274,cs),
(277,244,ls),
(313,233,o),
(336,215,o),
(336,195,cs),
(336,167,o),
(314,147,o),
(268,147,cs),
(193,147,o),
(107,181,o),
(43,229,c),
(43,58,l),
(102,16,o),
(185,-15,o),
(265,-15,cs)
);
}
);
width = 573;
}
);
metricLeft = "=O-20";
metricRight = "=O-20";
unicode = 83;
},
{
color = 4;
glyphname = Sacute;
layers = (
{
background = {
anchors = (
{
name = bottom;
pos = (262,0);
},
{
name = top;
pos = (273,670);
}
);
shapes = (
{
closed = 1;
nodes = (
(153,680,o),
(50,598,o),
(50,492,cs),
(50,417,o),
(78,361,o),
(174,318,cs),
(285,268,ls),
(326,250,o),
(381,222,o),
(381,172,cs),
(381,113,o),
(322,78,o),
(255,78,cs),
(170,78,o),
(103,112,o),
(51,148,c),
(51,55,l),
(99,21,o),
(166,-10,o),
(243,-10,cs),
(366,-10,o),
(473,67,o),
(473,176,cs),
(473,260,o),
(426,304,o),
(334,346,cs),
(242,388,ls),
(187,413,o),
(143,435,o),
(143,489,cs),
(143,561,o),
(221,592,o),
(282,592,cs),
(344,592,o),
(399,562,o),
(437,534,c),
(437,627,l),
(398,652,o),
(351,680,o),
(272,680,cs)
);
},
{
closed = 1;
nodes = (
(331,890,l),
(221,755,l),
(303,755,l),
(445,890,l)
);
}
);
};
layerId = "DEFEBCF2-9FF2-4B76-ADC8-AB6BD79F23E7";
shapes = (
{
ref = S;
},
{
pos = (151,170);
ref = acutecomb;
}
);
width = 523;
},
{
background = {
anchors = (
{
name = bottom;
pos = (287,0);
},
{
name = top;
pos = (294,670);
}
);
shapes = (
{
closed = 1;
nodes = (
(162,685,o),
(40,608,o),
(40,467,cs),
(40,386,o),
(69,310,o),
(182,274,cs),
(277,244,ls),
(313,233,o),
(336,215,o),
(336,195,cs),
(336,167,o),
(314,147,o),
(268,147,cs),
(193,147,o),
(107,181,o),
(43,229,c),
(43,58,l),
(102,16,o),
(185,-15,o),
(265,-15,cs),
(420,-15,o),
(543,77,o),
(543,205,cs),
(543,277,o),
(502,335,o),
(405,373,cs),
(337,400,ls),
(281,422,o),
(237,437,o),
(237,470,cs),
(237,501,o),
(264,523,o),
(308,523,cs),
(384,523,o),
(445,494,o),
(502,461,c),
(502,632,l),
(455,664,o),
(371,685,o),
(293,685,cs)
);
},
{
closed = 1;
nodes = (
(310,870,l),
(210,720,l),
(332,720,l),
(464,870,l)
);
}
);
};
layerId = "2D992F1A-8218-4049-8E15-5955C72037C9";
shapes = (
{
ref = S;
},
{
pos = (130,160);
ref = acutecomb;
}
);
width = 573;
}
);
unicode = 346;
},
{
color = 4;
glyphname = Scaron;
layers = (
{
background = {
anchors = (
{
name = bottom;
pos = (262,0);
},
{
name = top;
pos = (273,670);
}
);
shapes = (
{
closed = 1;
nodes = (
(153,680,o),
(50,598,o),
(50,492,cs),
(50,417,o),
(78,361,o),
(174,318,cs),
(285,268,ls),
(326,250,o),
(381,222,o),
(381,172,cs),
(381,113,o),
(322,78,o),
(255,78,cs),
(170,78,o),
(103,112,o),
(51,148,c),
(51,55,l),
(99,21,o),
(166,-10,o),
(243,-10,cs),
(366,-10,o),
(473,67,o),
(473,176,cs),
(473,260,o),
(426,304,o),
(334,346,cs),
(242,388,ls),
(187,413,o),
(143,435,o),
(143,489,cs),
(143,561,o),
(221,592,o),
(282,592,cs),
(344,592,o),
(399,562,o),
(437,534,c),
(437,627,l),
(398,652,o),
(351,680,o),
(272,680,cs)
);
},
{
closed = 1;
nodes = (
(251,751,l),
(295,751,l),
(435,890,l),
(353,890,l),
(273,812,l),
(193,890,l),
(111,890,l)
);
}
);
};
layerId = "DEFEBCF2-9FF2-4B76-ADC8-AB6BD79F23E7";
shapes = (
{
ref = S;
},
{
pos = (31,170);
ref = caroncomb;
}
);
width = 523;
},
{
background = {
anchors = (
{
name = bottom;
pos = (287,0);
},
{
name = top;
pos = (294,670);
}
);
shapes = (
{
closed = 1;
nodes = (
(162,685,o),
(40,608,o),
(40,467,cs),
(40,386,o),
(69,310,o),
(182,274,cs),
(277,244,ls),
(313,233,o),
(336,215,o),
(336,195,cs),
(336,167,o),
(314,147,o),
(268,147,cs),
(193,147,o),
(107,181,o),
(43,229,c),
(43,58,l),
(102,16,o),
(185,-15,o),
(265,-15,cs),
(420,-15,o),
(543,77,o),
(543,205,cs),
(543,277,o),
(502,335,o),
(405,373,cs),
(337,400,ls),
(281,422,o),
(237,437,o),
(237,470,cs),
(237,501,o),
(264,523,o),
(308,523,cs),
(384,523,o),
(445,494,o),
(502,461,c),
(502,632,l),
(455,664,o),
(371,685,o),
(293,685,cs)
);
},
{
closed = 1;
nodes = (
(242,720,l),
(346,720,l),
(466,870,l),
(334,870,l),
(294,811,l),
(254,870,l),
(122,870,l)
);
}
);
};
layerId = "2D992F1A-8218-4049-8E15-5955C72037C9";
shapes = (
{
ref = S;
},
{
pos = (62,160);
ref = caroncomb;
}
);
width = 573;
}
);
unicode = 352;
},
{
color = 4;
glyphname = Scedilla;
layers = (
{
background = {
anchors = (
{
name = bottom;
pos = (262,0);
},
{
name = top;
pos = (273,670);
}
);
shapes = (
{
closed = 1;
nodes = (
(153,680,o),
(50,598,o),
(50,492,cs),
(50,417,o),
(78,361,o),
(174,318,cs),
(285,268,ls),
(326,250,o),
(381,222,o),
(381,172,cs),
(381,113,o),
(322,78,o),
(255,78,cs),
(170,78,o),
(103,112,o),
(51,148,c),
(51,55,l),
(99,21,o),
(166,-10,o),
(243,-10,cs),
(366,-10,o),
(473,67,o),
(473,176,cs),
(473,260,o),
(426,304,o),
(334,346,cs),
(242,388,ls),
(187,413,o),
(143,435,o),
(143,489,cs),
(143,561,o),
(221,592,o),
(282,592,cs),
(344,592,o),
(399,562,o),
(437,534,c),
(437,627,l),
(398,652,o),
(351,680,o),
(272,680,cs)
);
},
{
closed = 1;
nodes = (
(234,2,l),
(220,-118,l),
(236,-130,l),
(249,-123,o),
(261,-121,o),
(271,-121,cs),
(296,-121,o),
(310,-132,o),
(310,-150,cs),
(310,-168,o),
(294,-181,o),
(271,-181,cs),
(242,-181,o),
(218,-171,o),
(197,-160,c),
(190,-215,l),
(211,-232,o),
(248,-240,o),
(268,-240,cs),
(337,-240,o),
(378,-200,o),
(378,-147,cs),
(378,-98,o),
(337,-63,o),
(282,-70,c),
(288,2,l)
);
}
);
};
layerId = "DEFEBCF2-9FF2-4B76-ADC8-AB6BD79F23E7";
shapes = (
{
ref = S;
},
{
pos = (105,0);
ref = cedillacomb;
}
);
width = 523;
},
{
background = {
anchors = (
{
name = bottom;
pos = (287,0);
},
{
name = top;
pos = (294,670);
}
);
shapes = (
{
closed = 1;
nodes = (
(162,685,o),
(40,608,o),
(40,467,cs),
(40,386,o),
(69,310,o),
(182,274,cs),
(277,244,ls),
(313,233,o),
(336,215,o),
(336,195,cs),
(336,167,o),
(314,147,o),
(268,147,cs),
(193,147,o),
(107,181,o),
(43,229,c),
(43,58,l),
(102,16,o),
(185,-15,o),
(265,-15,cs),
(420,-15,o),
(543,77,o),
(543,205,cs),
(543,277,o),
(502,335,o),
(405,373,cs),
(337,400,ls),
(281,422,o),
(237,437,o),
(237,470,cs),
(237,501,o),
(264,523,o),
(308,523,cs),
(384,523,o),
(445,494,o),
(502,461,c),
(502,632,l),
(455,664,o),
(371,685,o),
(293,685,cs)
);
},
{
closed = 1;
nodes = (
(226,2,l),
(214,-114,l),
(238,-126,l),
(251,-119,o),
(258,-117,o),
(268,-117,cs),
(283,-117,o),
(298,-125,o),
(298,-141,cs),
(298,-159,o),
(279,-167,o),
(266,-167,cs),
(237,-167,o),
(217,-152,o),
(196,-141,c),
(189,-215,l),
(210,-232,o),
(249,-240,o),
(269,-240,cs),
(338,-240,o),
(387,-199,o),
(387,-131,cs),
(387,-82,o),
(351,-44,o),
(297,-46,c),
(300,2,l)
);
}
);
};
layerId = "2D992F1A-8218-4049-8E15-5955C72037C9";
shapes = (
{
ref = S;
},
{
pos = (109,0);
ref = cedillacomb;
}
);
width = 573;
}
);
unicode = 350;
},
{
color = 4;
glyphname = T;
layers = (
{
anchors = (
{
name = bottom;
pos = (306,0);
},
{
name = center;
pos = (306,335);
},
{
name = top;
pos = (306,670);
}
);
background = {
anchors = (
{
name = bottom;
pos = (306,0);
},
{
name = center;
pos = (306,335);
},
{
name = top;
pos = (306,670);
}
);
shapes = (
{
closed = 1;
nodes = (
(261,670,l),
(261,3,l),
(351,3,l),
(351,670,l)
);
},
{
closed = 1;
nodes = (
(30,670,l),
(30,585,l),
(582,585,l),
(582,670,l)
);
}
);
};
layerId = "DEFEBCF2-9FF2-4B76-ADC8-AB6BD79F23E7";
shapes = (
{
closed = 1;
nodes = (
(351,0,l),
(351,670,l),
(261,670,l),
(261,0,l)
);
},
{
closed = 1;
nodes = (
(582,585,l),
(582,670,l),
(30,670,l),
(30,585,l)
);
}
);
width = 611;
},
{
anchors = (
{
name = bottom;
pos = (329,0);
},
{
name = center;
pos = (311,335);
},
{
name = top;
pos = (311,670);
}
);
background = {
anchors = (
{
name = bottom;
pos = (329,0);
},
{
name = center;
pos = (311,335);
},
{
name = top;
pos = (311,670);
}
);
shapes = (
{
closed = 1;
nodes = (
(217,670,l),
(217,3,l),
(404,3,l),
(404,670,l)
);
},
{
closed = 1;
nodes = (
(35,670,l),
(35,515,l),
(586,515,l),
(586,670,l)
);
}
);
};
layerId = "2D992F1A-8218-4049-8E15-5955C72037C9";
shapes = (
{
closed = 1;
nodes = (
(404,0,l),
(404,670,l),
(217,670,l),
(217,0,l)
);
},
{
closed = 1;
nodes = (
(586,515,l),
(586,670,l),
(35,670,l),
(35,515,l)
);
}
);
width = 621;
}
);
unicode = 84;
},
{
color = 4;
glyphname = Tbar;
layers = (
{
anchors = (
{
name = top;
pos = (306,406);
}
);
background = {
anchors = (
{
name = bottom;
pos = (306,0);
},
{
name = center;
pos = (306,335);
},
{
name = top;
pos = (306,670);
}
);
shapes = (
{
closed = 1;
nodes = (
(261,670,l),
(261,3,l),
(351,3,l),
(351,670,l)
);
},
{
closed = 1;
nodes = (
(30,670,l),
(30,585,l),
(582,585,l),
(582,670,l)
);
},
{
closed = 1;
nodes = (
(131,888,l),
(131,808,l),
(481,808,l),
(481,888,l)
);
}
);
};
layerId = "DEFEBCF2-9FF2-4B76-ADC8-AB6BD79F23E7";
shapes = (
{
closed = 1;
nodes = (
(481,326,l),
(481,406,l),
(131,406,l),
(131,326,l)
);
},
{
ref = T;
}
);
width = 611;
},
{
anchors = (
{
name = top;
pos = (311,391);
}
);
background = {
anchors = (
{
name = bottom;
pos = (329,0);
},
{
name = center;
pos = (311,335);
},
{
name = top;
pos = (311,670);
}
);
shapes = (
{
closed = 1;
nodes = (
(217,670,l),
(217,3,l),
(404,3,l),
(404,670,l)
);
},
{
closed = 1;
nodes = (
(35,670,l),
(35,515,l),
(586,515,l),
(586,670,l)
);
},
{
closed = 1;
nodes = (
(126,870,l),
(126,760,l),
(496,760,l),
(496,870,l)
);
}
);
};
layerId = "2D992F1A-8218-4049-8E15-5955C72037C9";
shapes = (
{
closed = 1;
nodes = (
(496,281,l),
(496,391,l),
(126,391,l),
(126,281,l)
);
},
{
ref = T;
}
);
width = 621;
}
);
unicode = 358;
},
{
color = 4;
glyphname = Tcaron;
layers = (
{
background = {
anchors = (
{
name = bottom;
pos = (306,0);
},
{
name = center;
pos = (306,335);
},
{
name = top;
pos = (306,670);
}
);
shapes = (
{
closed = 1;
nodes = (
(261,670,l),
(261,3,l),
(351,3,l),
(351,670,l)
);
},
{
closed = 1;
nodes = (
(30,670,l),
(30,585,l),
(582,585,l),
(582,670,l)
);
},
{
closed = 1;
nodes = (
(284,751,l),
(328,751,l),
(468,890,l),
(386,890,l),
(306,812,l),
(226,890,l),
(144,890,l)
);
}
);
};
layerId = "DEFEBCF2-9FF2-4B76-ADC8-AB6BD79F23E7";
shapes = (
{
ref = T;
},
{
pos = (64,170);
ref = caroncomb;
}
);
width = 611;
},
{
background = {
anchors = (
{
name = bottom;
pos = (329,0);
},
{
name = center;
pos = (311,335);
},
{
name = top;
pos = (311,670);
}
);
shapes = (
{
closed = 1;
nodes = (
(217,670,l),
(217,3,l),
(404,3,l),
(404,670,l)
);
},
{
closed = 1;
nodes = (
(35,670,l),
(35,515,l),
(586,515,l),
(586,670,l)
);
},
{
closed = 1;
nodes = (
(259,720,l),
(363,720,l),
(483,870,l),
(351,870,l),
(311,811,l),
(271,870,l),
(139,870,l)
);
}
);
};
layerId = "2D992F1A-8218-4049-8E15-5955C72037C9";
shapes = (
{
ref = T;
},
{
pos = (79,160);
ref = caroncomb;
}
);
width = 621;
}
);
unicode = 356;
},
{
color = 4;
glyphname = Tcedilla;
layers = (
{
background = {
anchors = (
{
name = bottom;
pos = (306,0);
},
{
name = center;
pos = (306,335);
},
{
name = top;
pos = (306,670);
}
);
shapes = (
{
closed = 1;
nodes = (
(261,670,l),
(261,3,l),
(351,3,l),
(351,670,l)
);
},
{
closed = 1;
nodes = (
(30,670,l),
(30,585,l),
(582,585,l),
(582,670,l)
);
},
{
closed = 1;
nodes = (
(278,2,l),
(264,-118,l),
(280,-130,l),
(293,-123,o),
(305,-121,o),
(315,-121,cs),
(340,-121,o),
(354,-132,o),
(354,-150,cs),
(354,-168,o),
(338,-181,o),
(315,-181,cs),
(286,-181,o),
(262,-171,o),
(241,-160,c),
(234,-215,l),
(255,-232,o),
(292,-240,o),
(312,-240,cs),
(381,-240,o),
(422,-200,o),
(422,-147,cs),
(422,-98,o),
(381,-63,o),
(326,-70,c),
(332,2,l)
);
}
);
};
layerId = "DEFEBCF2-9FF2-4B76-ADC8-AB6BD79F23E7";
shapes = (
{
ref = T;
},
{
pos = (149,0);
ref = cedillacomb;
}
);
width = 611;
},
{
background = {
anchors = (
{
name = bottom;
pos = (329,0);
},
{
name = center;
pos = (311,335);
},
{
name = top;
pos = (311,670);
}
);
shapes = (
{
closed = 1;
nodes = (
(217,670,l),
(217,3,l),
(404,3,l),
(404,670,l)
);
},
{
closed = 1;
nodes = (
(35,670,l),
(35,515,l),
(586,515,l),
(586,670,l)
);
},
{
closed = 1;
nodes = (
(268,2,l),
(256,-114,l),
(280,-126,l),
(293,-119,o),
(300,-117,o),
(310,-117,cs),
(325,-117,o),
(340,-125,o),
(340,-141,cs),
(340,-159,o),
(321,-167,o),
(308,-167,cs),
(279,-167,o),
(259,-152,o),
(238,-141,c),
(231,-215,l),
(252,-232,o),
(291,-240,o),
(311,-240,cs),
(380,-240,o),
(429,-199,o),
(429,-131,cs),
(429,-82,o),
(393,-44,o),
(339,-46,c),
(342,2,l)
);
}
);
};
layerId = "2D992F1A-8218-4049-8E15-5955C72037C9";
shapes = (
{
ref = T;
},
{
pos = (151,0);
ref = cedillacomb;
}
);
width = 621;
}
);
unicode = 354;
},
{
color = 4;
glyphname = U;
layers = (
{
anchors = (
{
name = ogonek;
pos = (469,10);
},
{
name = top;
pos = (376,670);
}
);
background = {
anchors = (
{
name = ogonek;
pos = (469,10);
},
{
name = top;
pos = (376,670);
}
);
shapes = (
{
closed = 1;
nodes = (
(562,672,l),
(562,268,ls),
(562,132,o),
(476,80,o),
(376,79,cs),
(276,78,o),
(190,132,o),
(190,268,cs),
(190,672,l),
(100,672,l),
(100,265,ls),
(100,90,o),
(219,-13,o),
(376,-13,cs),
(533,-13,o),
(652,90,o),
(652,265,cs),
(652,672,l)
);
}
);
};
layerId = "DEFEBCF2-9FF2-4B76-ADC8-AB6BD79F23E7";
metricLeft = "=L-10";
metricRight = "=|L-10";
shapes = (
{
closed = 1;
nodes = (
(533,-13,o),
(652,90,o),
(652,265,cs),
(652,672,l),
(562,672,l),
(562,268,ls),
(562,132,o),
(476,79,o),
(376,79,cs),
(276,79,o),
(190,132,o),
(190,268,cs),
(190,672,l),
(100,672,l),
(100,265,ls),
(100,90,o),
(219,-13,o),
(376,-13,cs)
);
}
);
width = 752;
},
{
anchors = (
{
name = ogonek;
pos = (483,10);
},
{
name = top;
pos = (373,670);
}
);
background = {
anchors = (
{
name = ogonek;
pos = (483,10);
},
{
name = top;
pos = (373,670);
}
);
shapes = (
{
closed = 1;
nodes = (
(489,672,l),
(489,278,ls),
(489,209,o),
(453,161,o),
(373,160,cs),
(293,159,o),
(257,209,o),
(257,278,cs),
(257,672,l),
(70,672,l),
(70,265,ls),
(70,90,o),
(206,-15,o),
(373,-15,cs),
(540,-15,o),
(676,90,o),
(676,265,cs),
(676,672,l)
);
}
);
};
layerId = "2D992F1A-8218-4049-8E15-5955C72037C9";
metricLeft = "=L-10";
metricRight = "=|L-10";
shapes = (
{
closed = 1;
nodes = (
(540,-15,o),
(676,90,o),
(676,265,cs),
(676,672,l),
(489,672,l),
(489,278,ls),
(489,209,o),
(453,160,o),
(373,160,cs),
(293,160,o),
(257,209,o),
(257,278,cs),
(257,672,l),
(70,672,l),
(70,265,ls),
(70,90,o),
(206,-15,o),
(373,-15,cs)
);
}
);
width = 746;
}
);
metricLeft = "=I";
metricRight = "=I";
unicode = 85;
},
{
color = 4;
glyphname = Uacute;
layers = (
{
background = {
anchors = (
{
name = ogonek;
pos = (469,10);
},
{
name = top;
pos = (376,670);
}
);
shapes = (
{
closed = 1;
nodes = (
(562,672,l),
(562,268,ls),
(562,132,o),
(476,80,o),
(376,79,cs),
(276,78,o),
(190,132,o),
(190,268,cs),
(190,672,l),
(100,672,l),
(100,265,ls),
(100,90,o),
(219,-13,o),
(376,-13,cs),
(533,-13,o),
(652,90,o),
(652,265,cs),
(652,672,l)
);
},
{
closed = 1;
nodes = (
(434,890,l),
(324,755,l),
(406,755,l),
(548,890,l)
);
}
);
};
layerId = "DEFEBCF2-9FF2-4B76-ADC8-AB6BD79F23E7";
shapes = (
{
ref = U;
},
{
pos = (254,170);
ref = acutecomb;
}
);
width = 752;
},
{
background = {
anchors = (
{
name = ogonek;
pos = (483,10);
},
{
name = top;
pos = (373,670);
}
);
shapes = (
{
closed = 1;
nodes = (
(489,672,l),
(489,278,ls),
(489,209,o),
(453,161,o),
(373,160,cs),
(293,159,o),
(257,209,o),
(257,278,cs),
(257,672,l),
(70,672,l),
(70,265,ls),
(70,90,o),
(206,-15,o),
(373,-15,cs),
(540,-15,o),
(676,90,o),
(676,265,cs),
(676,672,l)
);
},
{
closed = 1;
nodes = (
(389,870,l),
(289,720,l),
(411,720,l),
(543,870,l)
);
}
);
};
layerId = "2D992F1A-8218-4049-8E15-5955C72037C9";
shapes = (
{
ref = U;
},
{
pos = (209,160);
ref = acutecomb;
}
);
width = 746;
}
);
unicode = 218;
},
{
color = 4;
glyphname = Ucircumflex;
layers = (
{
background = {
anchors = (
{
name = ogonek;
pos = (469,10);
},
{
name = top;
pos = (376,670);
}
);
shapes = (
{
closed = 1;
nodes = (
(562,672,l),
(562,268,ls),
(562,132,o),
(476,80,o),
(376,79,cs),
(276,78,o),
(190,132,o),
(190,268,cs),
(190,672,l),
(100,672,l),
(100,265,ls),
(100,90,o),
(219,-13,o),
(376,-13,cs),
(533,-13,o),
(652,90,o),
(652,265,cs),
(652,672,l)
);
},
{
closed = 1;
nodes = (
(354,890,l),
(214,751,l),
(296,751,l),
(376,829,l),
(456,751,l),
(538,751,l),
(398,890,l)
);
}
);
};
layerId = "DEFEBCF2-9FF2-4B76-ADC8-AB6BD79F23E7";
shapes = (
{
ref = U;
},
{
pos = (134,170);
ref = circumflexcomb;
}
);
width = 752;
},
{
background = {
anchors = (
{
name = ogonek;
pos = (483,10);
},
{
name = top;
pos = (373,670);
}
);
shapes = (
{
closed = 1;
nodes = (
(489,672,l),
(489,278,ls),
(489,209,o),
(453,161,o),
(373,160,cs),
(293,159,o),
(257,209,o),
(257,278,cs),
(257,672,l),
(70,672,l),
(70,265,ls),
(70,90,o),
(206,-15,o),
(373,-15,cs),
(540,-15,o),
(676,90,o),
(676,265,cs),
(676,672,l)
);
},
{
closed = 1;
nodes = (
(321,870,l),
(201,720,l),
(333,720,l),
(373,779,l),
(413,720,l),
(545,720,l),
(425,870,l)
);
}
);
};
layerId = "2D992F1A-8218-4049-8E15-5955C72037C9";
shapes = (
{
ref = U;
},
{
pos = (121,160);
ref = circumflexcomb;
}
);
width = 746;
}
);
unicode = 219;
},
{
color = 4;
glyphname = Udieresis;
layers = (
{
background = {
anchors = (
{
name = ogonek;
pos = (469,10);
},
{
name = top;
pos = (376,670);
}
);
shapes = (
{
closed = 1;
nodes = (
(562,672,l),
(562,268,ls),
(562,132,o),
(476,80,o),
(376,79,cs),
(276,78,o),
(190,132,o),
(190,268,cs),
(190,672,l),
(100,672,l),
(100,265,ls),
(100,90,o),
(219,-13,o),
(376,-13,cs),
(533,-13,o),
(652,90,o),
(652,265,cs),
(652,672,l)
);
},
{
closed = 1;
nodes = (
(446,889,o),
(418,861,o),
(418,826,cs),
(418,792,o),
(446,763,o),
(481,763,c),
(515,763,o),
(544,792,o),
(544,826,cs),
(544,861,o),
(515,889,o),
(481,889,cs)
);
},
{
closed = 1;
nodes = (
(236,889,o),
(208,861,o),
(208,826,cs),
(208,792,o),
(236,763,o),
(271,763,c),
(305,763,o),
(334,792,o),
(334,826,cs),
(334,861,o),
(305,889,o),
(271,889,cs)
);
}
);
};
layerId = "DEFEBCF2-9FF2-4B76-ADC8-AB6BD79F23E7";
shapes = (
{
ref = U;
},
{
pos = (128,170);
ref = dieresiscomb;
}
);
width = 752;
},
{
background = {
anchors = (
{
name = ogonek;
pos = (483,10);
},
{
name = top;
pos = (373,670);
}
);
shapes = (
{
closed = 1;
nodes = (
(489,672,l),
(489,278,ls),
(489,209,o),
(453,161,o),
(373,160,cs),
(293,159,o),
(257,209,o),
(257,278,cs),
(257,672,l),
(70,672,l),
(70,265,ls),
(70,90,o),
(206,-15,o),
(373,-15,cs),
(540,-15,o),
(676,90,o),
(676,265,cs),
(676,672,l)
);
},
{
closed = 1;
nodes = (
(436,885,o),
(402,851,o),
(402,809,cs),
(402,768,o),
(436,733,o),
(478,733,c),
(519,733,o),
(554,768,o),
(554,809,cs),
(554,851,o),
(519,885,o),
(478,885,cs)
);
},
{
closed = 1;
nodes = (
(226,885,o),
(192,851,o),
(192,809,cs),
(192,768,o),
(226,733,o),
(268,733,c),
(309,733,o),
(344,768,o),
(344,809,cs),
(344,851,o),
(309,885,o),
(268,885,cs)
);
}
);
};
layerId = "2D992F1A-8218-4049-8E15-5955C72037C9";
shapes = (
{
ref = U;
},
{
pos = (106,160);
ref = dieresiscomb;
}
);
width = 746;
}
);
unicode = 220;
},
{
color = 4;
glyphname = Ugrave;
layers = (
{
background = {
anchors = (
{
name = ogonek;
pos = (469,10);
},
{
name = top;
pos = (376,670);
}
);
shapes = (
{
closed = 1;
nodes = (
(562,672,l),
(562,268,ls),
(562,132,o),
(476,80,o),
(376,79,cs),
(276,78,o),
(190,132,o),
(190,268,cs),
(190,672,l),
(100,672,l),
(100,265,ls),
(100,90,o),
(219,-13,o),
(376,-13,cs),
(533,-13,o),
(652,90,o),
(652,265,cs),
(652,672,l)
);
},
{
closed = 1;
nodes = (
(339,755,l),
(421,755,l),
(311,890,l),
(197,890,l)
);
}
);
};
layerId = "DEFEBCF2-9FF2-4B76-ADC8-AB6BD79F23E7";
shapes = (
{
ref = U;
},
{
pos = (178,170);
ref = gravecomb;
}
);
width = 752;
},
{
background = {
anchors = (
{
name = ogonek;
pos = (483,10);
},
{
name = top;
pos = (373,670);
}
);
shapes = (
{
closed = 1;
nodes = (
(489,672,l),
(489,278,ls),
(489,209,o),
(453,161,o),
(373,160,cs),
(293,159,o),
(257,209,o),
(257,278,cs),
(257,672,l),
(70,672,l),
(70,265,ls),
(70,90,o),
(206,-15,o),
(373,-15,cs),
(540,-15,o),
(676,90,o),
(676,265,cs),
(676,672,l)
);
},
{
closed = 1;
nodes = (
(183,870,l),
(315,720,l),
(437,720,l),
(337,870,l)
);
}
);
};
layerId = "2D992F1A-8218-4049-8E15-5955C72037C9";
shapes = (
{
ref = U;
},
{
pos = (103,160);
ref = gravecomb;
}
);
width = 746;
}
);
unicode = 217;
},
{
color = 4;
glyphname = Uhungarumlaut;
layers = (
{
background = {
anchors = (
{
name = ogonek;
pos = (469,10);
},
{
name = top;
pos = (376,670);
}
);
shapes = (
{
closed = 1;
nodes = (
(562,672,l),
(562,268,ls),
(562,132,o),
(476,80,o),
(376,79,cs),
(276,78,o),
(190,132,o),
(190,268,cs),
(190,672,l),
(100,672,l),
(100,265,ls),
(100,90,o),
(219,-13,o),
(376,-13,cs),
(533,-13,o),
(652,90,o),
(652,265,cs),
(652,672,l)
);
},
{
closed = 1;
nodes = (
(484,890,l),
(374,755,l),
(456,755,l),
(598,890,l)
);
},
{
closed = 1;
nodes = (
(333,890,l),
(223,755,l),
(305,755,l),
(447,890,l)
);
}
);
};
layerId = "DEFEBCF2-9FF2-4B76-ADC8-AB6BD79F23E7";
shapes = (
{
ref = U;
},
{
pos = (173,170);
ref = hungarumlautcomb;
}
);
width = 752;
},
{
background = {
anchors = (
{
name = ogonek;
pos = (483,10);
},
{
name = top;
pos = (373,670);
}
);
shapes = (
{
closed = 1;
nodes = (
(489,672,l),
(489,278,ls),
(489,209,o),
(453,161,o),
(373,160,cs),
(293,159,o),
(257,209,o),
(257,278,cs),
(257,672,l),
(70,672,l),
(70,265,ls),
(70,90,o),
(206,-15,o),
(373,-15,cs),
(540,-15,o),
(676,90,o),
(676,265,cs),
(676,672,l)
);
},
{
closed = 1;
nodes = (
(488,870,l),
(388,720,l),
(510,720,l),
(642,870,l)
);
},
{
closed = 1;
nodes = (
(284,870,l),
(184,720,l),
(306,720,l),
(438,870,l)
);
}
);
};
layerId = "2D992F1A-8218-4049-8E15-5955C72037C9";
shapes = (
{
ref = U;
},
{
pos = (114,160);
ref = hungarumlautcomb;
}
);
width = 746;
}
);
unicode = 368;
},
{
color = 4;
glyphname = Umacron;
layers = (
{
background = {
anchors = (
{
name = ogonek;
pos = (469,10);
},
{
name = top;
pos = (376,670);
}
);
shapes = (
{
closed = 1;
nodes = (
(562,672,l),
(562,268,ls),
(562,132,o),
(476,80,o),
(376,79,cs),
(276,78,o),
(190,132,o),
(190,268,cs),
(190,672,l),
(100,672,l),
(100,265,ls),
(100,90,o),
(219,-13,o),
(376,-13,cs),
(533,-13,o),
(652,90,o),
(652,265,cs),
(652,672,l)
);
},
{
closed = 1;
nodes = (
(201,888,l),
(201,808,l),
(551,808,l),
(551,888,l)
);
}
);
};
layerId = "DEFEBCF2-9FF2-4B76-ADC8-AB6BD79F23E7";
shapes = (
{
ref = U;
},
{
pos = (111,170);
ref = macroncomb;
}
);
width = 752;
},
{
background = {
anchors = (
{
name = ogonek;
pos = (483,10);
},
{
name = top;
pos = (373,670);
}
);
shapes = (
{
closed = 1;
nodes = (
(489,672,l),
(489,278,ls),
(489,209,o),
(453,161,o),
(373,160,cs),
(293,159,o),
(257,209,o),
(257,278,cs),
(257,672,l),
(70,672,l),
(70,265,ls),
(70,90,o),
(206,-15,o),
(373,-15,cs),
(540,-15,o),
(676,90,o),
(676,265,cs),
(676,672,l)
);
},
{
closed = 1;
nodes = (
(188,870,l),
(188,760,l),
(558,760,l),
(558,870,l)
);
}
);
};
layerId = "2D992F1A-8218-4049-8E15-5955C72037C9";
shapes = (
{
ref = U;
},
{
pos = (88,160);
ref = macroncomb;
}
);
width = 746;
}
);
unicode = 362;
},
{
color = 4;
glyphname = Uogonek;
layers = (
{
background = {
anchors = (
{
name = ogonek;
pos = (469,10);
},
{
name = top;
pos = (376,670);
}
);
shapes = (
{
closed = 1;
nodes = (
(562,672,l),
(562,268,ls),
(562,132,o),
(476,80,o),
(376,79,cs),
(276,78,o),
(190,132,o),
(190,268,cs),
(190,672,l),
(100,672,l),
(100,265,ls),
(100,90,o),
(219,-13,o),
(376,-13,cs),
(533,-13,o),
(652,90,o),
(652,265,cs),
(652,672,l)
);
},
{
closed = 1;
nodes = (
(347,-12,o),
(273,-56,o),
(273,-126,cs),
(273,-192,o),
(330,-225,o),
(390,-225,cs),
(426,-225,o),
(450,-207,o),
(464,-200,c),
(464,-131,l),
(449,-141,o),
(433,-149,o),
(410,-149,cs),
(375,-149,o),
(357,-126,o),
(357,-98,cs),
(357,-54,o),
(417,-18,o),
(464,1,c),
(384,1,l)
);
}
);
};
layerId = "DEFEBCF2-9FF2-4B76-ADC8-AB6BD79F23E7";
shapes = (
{
ref = U;
},
{
pos = (90,0);
ref = ogonekcomb;
}
);
width = 752;
},
{
background = {
anchors = (
{
name = ogonek;
pos = (483,10);
},
{
name = top;
pos = (373,670);
}
);
shapes = (
{
closed = 1;
nodes = (
(489,672,l),
(489,278,ls),
(489,209,o),
(453,161,o),
(373,160,cs),
(293,159,o),
(257,209,o),
(257,278,cs),
(257,672,l),
(70,672,l),
(70,265,ls),
(70,90,o),
(206,-15,o),
(373,-15,cs),
(540,-15,o),
(676,90,o),
(676,265,cs),
(676,672,l)
);
},
{
closed = 1;
nodes = (
(286,-13,o),
(226,-56,o),
(226,-126,cs),
(226,-192,o),
(293,-225,o),
(353,-225,cs),
(409,-225,o),
(453,-210,o),
(467,-203,c),
(467,-90,l),
(452,-100,o),
(436,-108,o),
(413,-108,cs),
(392,-108,o),
(377,-94,o),
(377,-73,cs),
(377,-51,o),
(424,-13,o),
(483,1,c),
(343,1,l)
);
}
);
};
layerId = "2D992F1A-8218-4049-8E15-5955C72037C9";
shapes = (
{
ref = U;
},
{
pos = (93,0);
ref = ogonekcomb;
}
);
width = 746;
}
);
unicode = 370;
},
{
color = 4;
glyphname = Uring;
layers = (
{
background = {
anchors = (
{
name = ogonek;
pos = (469,10);
},
{
name = top;
pos = (376,670);
}
);
shapes = (
{
closed = 1;
nodes = (
(562,672,l),
(562,268,ls),
(562,132,o),
(476,80,o),
(376,79,cs),
(276,78,o),
(190,132,o),
(190,268,cs),
(190,672,l),
(100,672,l),
(100,265,ls),
(100,90,o),
(219,-13,o),
(376,-13,cs),
(533,-13,o),
(652,90,o),
(652,265,cs),
(652,672,l)
);
},
{
closed = 1;
nodes = (
(328,895,o),
(293,857,o),
(293,812,cs),
(293,767,o),
(328,729,o),
(376,729,cs),
(424,729,o),
(458,767,o),
(458,812,cs),
(458,857,o),
(424,895,o),
(376,895,cs)
);
},
{
closed = 1;
nodes = (
(398,854,o),
(416,834,o),
(416,812,cs),
(416,789,o),
(398,770,o),
(376,770,cs),
(353,770,o),
(335,789,o),
(335,812,cs),
(335,834,o),
(353,854,o),
(376,854,cs)
);
}
);
};
layerId = "DEFEBCF2-9FF2-4B76-ADC8-AB6BD79F23E7";
shapes = (
{
ref = U;
},
{
pos = (213,170);
ref = ringcomb;
}
);
width = 752;
},
{
background = {
anchors = (
{
name = ogonek;
pos = (483,10);
},
{
name = top;
pos = (373,670);
}
);
shapes = (
{
closed = 1;
nodes = (
(489,672,l),
(489,278,ls),
(489,209,o),
(453,161,o),
(373,160,cs),
(293,159,o),
(257,209,o),
(257,278,cs),
(257,672,l),
(70,672,l),
(70,265,ls),
(70,90,o),
(206,-15,o),
(373,-15,cs),
(540,-15,o),
(676,90,o),
(676,265,cs),
(676,672,l)
);
},
{
closed = 1;
nodes = (
(320,893,o),
(276,853,o),
(276,802,cs),
(276,751,o),
(320,711,o),
(373,711,cs),
(426,711,o),
(469,751,o),
(469,802,cs),
(469,853,o),
(426,893,o),
(373,893,cs)
);
},
{
closed = 1;
nodes = (
(393,838,o),
(411,822,o),
(411,802,cs),
(411,781,o),
(393,766,o),
(373,766,cs),
(352,766,o),
(334,781,o),
(334,802,cs),
(334,822,o),
(352,838,o),
(373,838,cs)
);
}
);
};
layerId = "2D992F1A-8218-4049-8E15-5955C72037C9";
shapes = (
{
ref = U;
},
{
pos = (202,160);
ref = ringcomb;
}
);
width = 746;
}
);
unicode = 366;
},
{
color = 4;
glyphname = V;
layers = (
{
background = {
shapes = (
{
closed = 1;
nodes = (
(573,670,l),
(344,152,l),
(118,670,l),
(10,670,l),
(323,0,l),
(368,0,l),
(681,670,l)
);
}
);
};
layerId = "DEFEBCF2-9FF2-4B76-ADC8-AB6BD79F23E7";
shapes = (
{
closed = 1;
nodes = (
(368,0,l),
(681,670,l),
(573,670,l),
(344,152,l),
(118,670,l),
(10,670,l),
(323,0,l)
);
}
);
width = 691;
},
{
background = {
shapes = (
{
closed = 1;
nodes = (
(501,670,l),
(367,302,l),
(233,670,l),
(15,670,l),
(320,-5,l),
(414,-5,l),
(719,670,l)
);
}
);
};
layerId = "2D992F1A-8218-4049-8E15-5955C72037C9";
shapes = (
{
closed = 1;
nodes = (
(414,-5,l),
(719,670,l),
(501,670,l),
(367,302,l),
(233,670,l),
(15,670,l),
(320,-5,l)
);
}
);
width = 734;
}
);
unicode = 86;
},
{
color = 4;
glyphname = W;
layers = (
{
anchors = (
{
name = top;
pos = (472,670);
}
);
background = {
anchors = (
{
name = top;
pos = (472,670);
}
);
shapes = (
{
closed = 1;
nodes = (
(836,670,l),
(672,172,l),
(500,669,l),
(442,670,l),
(265,172,l),
(108,670,l),
(10,670,l),
(235,0,l),
(286,0,l),
(468,507,l),
(648,0,l),
(699,0,l),
(934,670,l)
);
}
);
};
layerId = "DEFEBCF2-9FF2-4B76-ADC8-AB6BD79F23E7";
metricLeft = "=V";
metricRight = "=V";
shapes = (
{
closed = 1;
nodes = (
(286,0,l),
(468,507,l),
(648,0,l),
(699,0,l),
(934,670,l),
(836,670,l),
(672,172,l),
(500,669,l),
(442,670,l),
(265,172,l),
(108,670,l),
(10,670,l),
(235,0,l)
);
}
);
width = 944;
},
{
anchors = (
{
name = top;
pos = (492,670);
}
);
background = {
anchors = (
{
name = top;
pos = (492,670);
}
);
shapes = (
{
closed = 1;
nodes = (
(751,670,l),
(662,322,l),
(556,670,l),
(428,670,l),
(324,322,l),
(233,670,l),
(15,670,l),
(235,0,l),
(376,0,l),
(493,355,l),
(610,0,l),
(751,0,l),
(969,670,l)
);
}
);
};
layerId = "2D992F1A-8218-4049-8E15-5955C72037C9";
shapes = (
{
closed = 1;
nodes = (
(376,0,l),
(493,355,l),
(610,0,l),
(751,0,l),
(969,670,l),
(751,670,l),
(662,322,l),
(556,670,l),
(428,670,l),
(324,322,l),
(233,670,l),
(15,670,l),
(235,0,l)
);
}
);
width = 984;
}
);
metricLeft = "=V";
metricRight = "=V";
unicode = 87;
},
{
color = 4;
glyphname = Wacute;
layers = (
{
background = {
anchors = (
{
name = top;
pos = (472,670);
}
);
shapes = (
{
closed = 1;
nodes = (
(836,670,l),
(672,172,l),
(500,669,l),
(442,670,l),
(265,172,l),
(108,670,l),
(10,670,l),
(235,0,l),
(286,0,l),
(468,507,l),
(648,0,l),
(699,0,l),
(934,670,l)
);
},
{
closed = 1;
nodes = (
(530,890,l),
(420,755,l),
(502,755,l),
(644,890,l)
);
}
);
};
layerId = "DEFEBCF2-9FF2-4B76-ADC8-AB6BD79F23E7";
shapes = (
{
ref = W;
},
{
pos = (350,170);
ref = acutecomb;
}
);
width = 944;
},
{
background = {
anchors = (
{
name = top;
pos = (492,670);
}
);
shapes = (
{
closed = 1;
nodes = (
(751,670,l),
(662,322,l),
(556,670,l),
(428,670,l),
(324,322,l),
(233,670,l),
(15,670,l),
(235,0,l),
(376,0,l),
(493,355,l),
(610,0,l),
(751,0,l),
(969,670,l)
);
},
{
closed = 1;
nodes = (
(508,870,l),
(408,720,l),
(530,720,l),
(662,870,l)
);
}
);
};
layerId = "2D992F1A-8218-4049-8E15-5955C72037C9";
shapes = (
{
ref = W;
},
{
pos = (328,160);
ref = acutecomb;
}
);
width = 984;
}
);
unicode = 7810;
},
{
color = 4;
glyphname = Wcircumflex;
layers = (
{
background = {
anchors = (
{
name = top;
pos = (472,670);
}
);
shapes = (
{
closed = 1;
nodes = (
(836,670,l),
(672,172,l),
(500,669,l),
(442,670,l),
(265,172,l),
(108,670,l),
(10,670,l),
(235,0,l),
(286,0,l),
(468,507,l),
(648,0,l),
(699,0,l),
(934,670,l)
);
},
{
closed = 1;
nodes = (
(450,890,l),
(310,751,l),
(392,751,l),
(472,829,l),
(552,751,l),
(634,751,l),
(494,890,l)
);
}
);
};
layerId = "DEFEBCF2-9FF2-4B76-ADC8-AB6BD79F23E7";
shapes = (
{
ref = W;
},
{
pos = (230,170);
ref = circumflexcomb;
}
);
width = 944;
},
{
background = {
anchors = (
{
name = top;
pos = (492,670);
}
);
shapes = (
{
closed = 1;
nodes = (
(751,670,l),
(662,322,l),
(556,670,l),
(428,670,l),
(324,322,l),
(233,670,l),
(15,670,l),
(235,0,l),
(376,0,l),
(493,355,l),
(610,0,l),
(751,0,l),
(969,670,l)
);
},
{
closed = 1;
nodes = (
(440,870,l),
(320,720,l),
(452,720,l),
(492,779,l),
(532,720,l),
(664,720,l),
(544,870,l)
);
}
);
};
layerId = "2D992F1A-8218-4049-8E15-5955C72037C9";
shapes = (
{
ref = W;
},
{
pos = (240,160);
ref = circumflexcomb;
}
);
width = 984;
}
);
unicode = 372;
},
{
color = 4;
glyphname = Wdieresis;
layers = (
{
background = {
anchors = (
{
name = top;
pos = (472,670);
}
);
shapes = (
{
closed = 1;
nodes = (
(836,670,l),
(672,172,l),
(500,669,l),
(442,670,l),
(265,172,l),
(108,670,l),
(10,670,l),
(235,0,l),
(286,0,l),
(468,507,l),
(648,0,l),
(699,0,l),
(934,670,l)
);
},
{
closed = 1;
nodes = (
(542,889,o),
(514,861,o),
(514,826,cs),
(514,792,o),
(542,763,o),
(577,763,c),
(611,763,o),
(640,792,o),
(640,826,cs),
(640,861,o),
(611,889,o),
(577,889,cs)
);
},
{
closed = 1;
nodes = (
(332,889,o),
(304,861,o),
(304,826,cs),
(304,792,o),
(332,763,o),
(367,763,c),
(401,763,o),
(430,792,o),
(430,826,cs),
(430,861,o),
(401,889,o),
(367,889,cs)
);
}
);
};
layerId = "DEFEBCF2-9FF2-4B76-ADC8-AB6BD79F23E7";
shapes = (
{
ref = W;
},
{
pos = (224,170);
ref = dieresiscomb;
}
);
width = 944;
},
{
background = {
anchors = (
{
name = top;
pos = (492,670);
}
);
shapes = (
{
closed = 1;
nodes = (
(751,670,l),
(662,322,l),
(556,670,l),
(428,670,l),
(324,322,l),
(233,670,l),
(15,670,l),
(235,0,l),
(376,0,l),
(493,355,l),
(610,0,l),
(751,0,l),
(969,670,l)
);
},
{
closed = 1;
nodes = (
(555,885,o),
(521,851,o),
(521,809,cs),
(521,768,o),
(555,733,o),
(597,733,c),
(638,733,o),
(673,768,o),
(673,809,cs),
(673,851,o),
(638,885,o),
(597,885,cs)
);
},
{
closed = 1;
nodes = (
(345,885,o),
(311,851,o),
(311,809,cs),
(311,768,o),
(345,733,o),
(387,733,c),
(428,733,o),
(463,768,o),
(463,809,cs),
(463,851,o),
(428,885,o),
(387,885,cs)
);
}
);
};
layerId = "2D992F1A-8218-4049-8E15-5955C72037C9";
shapes = (
{
ref = W;
},
{
pos = (225,160);
ref = dieresiscomb;
}
);
width = 984;
}
);
unicode = 7812;
},
{
color = 4;
glyphname = Wgrave;
layers = (
{
background = {
anchors = (
{
name = top;
pos = (472,670);
}
);
shapes = (
{
closed = 1;
nodes = (
(836,670,l),
(672,172,l),
(500,669,l),
(442,670,l),
(265,172,l),
(108,670,l),
(10,670,l),
(235,0,l),
(286,0,l),
(468,507,l),
(648,0,l),
(699,0,l),
(934,670,l)
);
},
{
closed = 1;
nodes = (
(435,755,l),
(517,755,l),
(407,890,l),
(293,890,l)
);
}
);
};
layerId = "DEFEBCF2-9FF2-4B76-ADC8-AB6BD79F23E7";
shapes = (
{
ref = W;
},
{
pos = (274,170);
ref = gravecomb;
}
);
width = 944;
},
{
background = {
anchors = (
{
name = top;
pos = (492,670);
}
);
shapes = (
{
closed = 1;
nodes = (
(751,670,l),
(662,322,l),
(556,670,l),
(428,670,l),
(324,322,l),
(233,670,l),
(15,670,l),
(235,0,l),
(376,0,l),
(493,355,l),
(610,0,l),
(751,0,l),
(969,670,l)
);
},
{
closed = 1;
nodes = (
(302,870,l),
(434,720,l),
(556,720,l),
(456,870,l)
);
}
);
};
layerId = "2D992F1A-8218-4049-8E15-5955C72037C9";
shapes = (
{
ref = W;
},
{
pos = (222,160);
ref = gravecomb;
}
);
width = 984;
}
);
unicode = 7808;
},
{
color = 4;
glyphname = X;
layers = (
{
background = {
shapes = (
{
closed = 1;
nodes = (
(514,670,l),
(320,397,l),
(130,670,l),
(10,670,l),
(261,335,l),
(10,0,l),
(120,0,l),
(312,262,l),
(514,0,l),
(634,0,l),
(371,325,l),
(634,670,l)
);
}
);
};
layerId = "DEFEBCF2-9FF2-4B76-ADC8-AB6BD79F23E7";
metricLeft = "=V";
metricRight = "=V";
shapes = (
{
closed = 1;
nodes = (
(120,0,l),
(312,262,l),
(514,0,l),
(634,0,l),
(371,325,l),
(634,670,l),
(514,670,l),
(320,397,l),
(130,670,l),
(10,670,l),
(261,335,l),
(10,0,l)
);
}
);
width = 644;
},
{
background = {
shapes = (
{
closed = 1;
nodes = (
(491,670,l),
(378,467,l),
(245,670,l),
(15,670,l),
(250,331,l),
(15,0,l),
(245,0,l),
(368,200,l),
(491,0,l),
(721,0,l),
(496,346,l),
(721,670,l)
);
}
);
};
layerId = "2D992F1A-8218-4049-8E15-5955C72037C9";
shapes = (
{
closed = 1;
nodes = (
(245,0,l),
(368,200,l),
(491,0,l),
(721,0,l),
(496,346,l),
(721,670,l),
(491,670,l),
(378,467,l),
(245,670,l),
(15,670,l),
(250,331,l),
(15,0,l)
);
}
);
width = 736;
}
);
metricLeft = "=V";
metricRight = "=V";
unicode = 88;
},
{
color = 4;
glyphname = Y;
layers = (
{
anchors = (
{
name = top;
pos = (316,670);
}
);
background = {
anchors = (
{
name = top;
pos = (316,670);
}
);
shapes = (
{
closed = 1;
nodes = (
(513,670,l),
(314,354,l),
(118,670,l),
(10,670,l),
(295,217,l),
(326,217,l),
(621,670,l)
);
},
{
closed = 1;
nodes = (
(267,304,l),
(267,0,l),
(364,0,l),
(364,304,l)
);
}
);
};
layerId = "DEFEBCF2-9FF2-4B76-ADC8-AB6BD79F23E7";
metricLeft = "=V";
metricRight = "=V";
shapes = (
{
closed = 1;
nodes = (
(326,217,l),
(621,670,l),
(513,670,l),
(314,354,l),
(118,670,l),
(10,670,l),
(295,217,l)
);
},
{
closed = 1;
nodes = (
(364,0,l),
(364,304,l),
(267,304,l),
(267,0,l)
);
}
);
width = 631;
},
{
anchors = (
{
name = top;
pos = (371,670);
}
);
background = {
anchors = (
{
name = top;
pos = (371,670);
}
);
shapes = (
{
closed = 1;
nodes = (
(508,670,l),
(371,409,l),
(233,670,l),
(15,670,l),
(315,167,l),
(426,167,l),
(726,670,l)
);
},
{
closed = 1;
nodes = (
(277,254,l),
(277,0,l),
(464,0,l),
(464,254,l)
);
}
);
};
layerId = "2D992F1A-8218-4049-8E15-5955C72037C9";
shapes = (
{
closed = 1;
nodes = (
(426,167,l),
(726,670,l),
(508,670,l),
(371,409,l),
(233,670,l),
(15,670,l),
(315,167,l)
);
},
{
closed = 1;
nodes = (
(464,0,l),
(464,254,l),
(277,254,l),
(277,0,l)
);
}
);
width = 741;
}
);
metricLeft = "=V";
metricRight = "=V";
unicode = 89;
},
{
color = 4;
glyphname = Yacute;
layers = (
{
background = {
anchors = (
{
name = top;
pos = (316,670);
}
);
shapes = (
{
closed = 1;
nodes = (
(513,670,l),
(314,354,l),
(118,670,l),
(10,670,l),
(295,217,l),
(326,217,l),
(621,670,l)
);
},
{
closed = 1;
nodes = (
(267,304,l),
(267,0,l),
(364,0,l),
(364,304,l)
);
},
{
closed = 1;
nodes = (
(374,890,l),
(264,755,l),
(346,755,l),
(488,890,l)
);
}
);
};
layerId = "DEFEBCF2-9FF2-4B76-ADC8-AB6BD79F23E7";
shapes = (
{
ref = Y;
},
{
pos = (194,170);
ref = acutecomb;
}
);
width = 631;
},
{
background = {
anchors = (
{
name = top;
pos = (371,670);
}
);
shapes = (
{
closed = 1;
nodes = (
(508,670,l),
(371,409,l),
(233,670,l),
(15,670,l),
(315,167,l),
(426,167,l),
(726,670,l)
);
},
{
closed = 1;
nodes = (
(277,254,l),
(277,0,l),
(464,0,l),
(464,254,l)
);
},
{
closed = 1;
nodes = (
(387,870,l),
(287,720,l),
(409,720,l),
(541,870,l)
);
}
);
};
layerId = "2D992F1A-8218-4049-8E15-5955C72037C9";
shapes = (
{
ref = Y;
},
{
pos = (207,160);
ref = acutecomb;
}
);
width = 741;
}
);
unicode = 221;
},
{
color = 4;
glyphname = Ycircumflex;
layers = (
{
background = {
anchors = (
{
name = top;
pos = (316,670);
}
);
shapes = (
{
closed = 1;
nodes = (
(513,670,l),
(314,354,l),
(118,670,l),
(10,670,l),
(295,217,l),
(326,217,l),
(621,670,l)
);
},
{
closed = 1;
nodes = (
(267,304,l),
(267,0,l),
(364,0,l),
(364,304,l)
);
},
{
closed = 1;
nodes = (
(294,890,l),
(154,751,l),
(236,751,l),
(316,829,l),
(396,751,l),
(478,751,l),
(338,890,l)
);
}
);
};
layerId = "DEFEBCF2-9FF2-4B76-ADC8-AB6BD79F23E7";
shapes = (
{
ref = Y;
},
{
pos = (74,170);
ref = circumflexcomb;
}
);
width = 631;
},
{
background = {
anchors = (
{
name = top;
pos = (371,670);
}
);
shapes = (
{
closed = 1;
nodes = (
(508,670,l),
(371,409,l),
(233,670,l),
(15,670,l),
(315,167,l),
(426,167,l),
(726,670,l)
);
},
{
closed = 1;
nodes = (
(277,254,l),
(277,0,l),
(464,0,l),
(464,254,l)
);
},
{
closed = 1;
nodes = (
(319,870,l),
(199,720,l),
(331,720,l),
(371,779,l),
(411,720,l),
(543,720,l),
(423,870,l)
);
}
);
};
layerId = "2D992F1A-8218-4049-8E15-5955C72037C9";
shapes = (
{
ref = Y;
},
{
pos = (119,160);
ref = circumflexcomb;
}
);
width = 741;
}
);
unicode = 374;
},
{
color = 4;
glyphname = Ydieresis;
layers = (
{
background = {
anchors = (
{
name = top;
pos = (316,670);
}
);
shapes = (
{
closed = 1;
nodes = (
(513,670,l),
(314,354,l),
(118,670,l),
(10,670,l),
(295,217,l),
(326,217,l),
(621,670,l)
);
},
{
closed = 1;
nodes = (
(267,304,l),
(267,0,l),
(364,0,l),
(364,304,l)
);
},
{
closed = 1;
nodes = (
(386,889,o),
(358,861,o),
(358,826,cs),
(358,792,o),
(386,763,o),
(421,763,c),
(455,763,o),
(484,792,o),
(484,826,cs),
(484,861,o),
(455,889,o),
(421,889,cs)
);
},
{
closed = 1;
nodes = (
(176,889,o),
(148,861,o),
(148,826,cs),
(148,792,o),
(176,763,o),
(211,763,c),
(245,763,o),
(274,792,o),
(274,826,cs),
(274,861,o),
(245,889,o),
(211,889,cs)
);
}
);
};
layerId = "DEFEBCF2-9FF2-4B76-ADC8-AB6BD79F23E7";
shapes = (
{
ref = Y;
},
{
pos = (68,170);
ref = dieresiscomb;
}
);
width = 631;
},
{
background = {
anchors = (
{
name = top;
pos = (371,670);
}
);
shapes = (
{
closed = 1;
nodes = (
(508,670,l),
(371,409,l),
(233,670,l),
(15,670,l),
(315,167,l),
(426,167,l),
(726,670,l)
);
},
{
closed = 1;
nodes = (
(277,254,l),
(277,0,l),
(464,0,l),
(464,254,l)
);
},
{
closed = 1;
nodes = (
(434,885,o),
(400,851,o),
(400,809,cs),
(400,768,o),
(434,733,o),
(476,733,c),
(517,733,o),
(552,768,o),
(552,809,cs),
(552,851,o),
(517,885,o),
(476,885,cs)
);
},
{
closed = 1;
nodes = (
(224,885,o),
(190,851,o),
(190,809,cs),
(190,768,o),
(224,733,o),
(266,733,c),
(307,733,o),
(342,768,o),
(342,809,cs),
(342,851,o),
(307,885,o),
(266,885,cs)
);
}
);
};
layerId = "2D992F1A-8218-4049-8E15-5955C72037C9";
shapes = (
{
ref = Y;
},
{
pos = (104,160);
ref = dieresiscomb;
}
);
width = 741;
}
);
unicode = 376;
},
{
color = 4;
glyphname = Ygrave;
layers = (
{
background = {
anchors = (
{
name = top;
pos = (316,670);
}
);
shapes = (
{
closed = 1;
nodes = (
(513,670,l),
(314,354,l),
(118,670,l),
(10,670,l),
(295,217,l),
(326,217,l),
(621,670,l)
);
},
{
closed = 1;
nodes = (
(267,304,l),
(267,0,l),
(364,0,l),
(364,304,l)
);
},
{
closed = 1;
nodes = (
(279,755,l),
(361,755,l),
(251,890,l),
(137,890,l)
);
}
);
};
layerId = "DEFEBCF2-9FF2-4B76-ADC8-AB6BD79F23E7";
shapes = (
{
ref = Y;
},
{
pos = (118,170);
ref = gravecomb;
}
);
width = 631;
},
{
background = {
anchors = (
{
name = top;
pos = (371,670);
}
);
shapes = (
{
closed = 1;
nodes = (
(508,670,l),
(371,409,l),
(233,670,l),
(15,670,l),
(315,167,l),
(426,167,l),
(726,670,l)
);
},
{
closed = 1;
nodes = (
(277,254,l),
(277,0,l),
(464,0,l),
(464,254,l)
);
},
{
closed = 1;
nodes = (
(181,870,l),
(313,720,l),
(435,720,l),
(335,870,l)
);
}
);
};
layerId = "2D992F1A-8218-4049-8E15-5955C72037C9";
shapes = (
{
ref = Y;
},
{
pos = (101,160);
ref = gravecomb;
}
);
width = 741;
}
);
unicode = 7922;
},
{
color = 4;
glyphname = Z;
layers = (
{
anchors = (
{
name = top;
pos = (325,670);
}
);
background = {
anchors = (
{
name = top;
pos = (325,670);
}
);
shapes = (
{
closed = 1;
nodes = (
(68,670,l),
(68,585,l),
(438,585,l),
(45,36,l),
(45,0,l),
(583,0,l),
(583,85,l),
(179,85,l),
(583,634,l),
(583,670,l)
);
}
);
};
layerId = "DEFEBCF2-9FF2-4B76-ADC8-AB6BD79F23E7";
metricLeft = "=|L";
metricRight = "=L";
shapes = (
{
closed = 1;
nodes = (
(583,0,l),
(583,85,l),
(179,85,l),
(583,634,l),
(583,670,l),
(68,670,l),
(68,585,l),
(438,585,l),
(45,36,l),
(45,0,l)
);
}
);
width = 628;
},
{
anchors = (
{
name = top;
pos = (351,670);
}
);
background = {
anchors = (
{
name = top;
pos = (351,670);
}
);
shapes = (
{
closed = 1;
nodes = (
(72,670,l),
(72,505,l),
(334,505,l),
(50,36,l),
(50,0,l),
(639,0,l),
(639,165,l),
(354,165,l),
(639,634,l),
(639,670,l)
);
}
);
};
layerId = "2D992F1A-8218-4049-8E15-5955C72037C9";
shapes = (
{
closed = 1;
nodes = (
(639,0,l),
(639,165,l),
(354,165,l),
(639,634,l),
(639,670,l),
(72,670,l),
(72,505,l),
(334,505,l),
(50,36,l),
(50,0,l)
);
}
);
width = 699;
}
);
metricLeft = "=|L-10";
metricRight = "=L=1-";
unicode = 90;
},
{
color = 4;
glyphname = Zacute;
layers = (
{
background = {
anchors = (
{
name = top;
pos = (325,670);
}
);
shapes = (
{
closed = 1;
nodes = (
(68,670,l),
(68,585,l),
(438,585,l),
(45,36,l),
(45,0,l),
(583,0,l),
(583,85,l),
(179,85,l),
(583,634,l),
(583,670,l)
);
},
{
closed = 1;
nodes = (
(383,890,l),
(273,755,l),
(355,755,l),
(497,890,l)
);
}
);
};
layerId = "DEFEBCF2-9FF2-4B76-ADC8-AB6BD79F23E7";
shapes = (
{
ref = Z;
},
{
pos = (203,170);
ref = acutecomb;
}
);
width = 628;
},
{
background = {
anchors = (
{
name = top;
pos = (351,670);
}
);
shapes = (
{
closed = 1;
nodes = (
(72,670,l),
(72,505,l),
(334,505,l),
(50,36,l),
(50,0,l),
(639,0,l),
(639,165,l),
(354,165,l),
(639,634,l),
(639,670,l)
);
},
{
closed = 1;
nodes = (
(367,870,l),
(267,720,l),
(389,720,l),
(521,870,l)
);
}
);
};
layerId = "2D992F1A-8218-4049-8E15-5955C72037C9";
shapes = (
{
ref = Z;
},
{
pos = (187,160);
ref = acutecomb;
}
);
width = 699;
}
);
unicode = 377;
},
{
color = 4;
glyphname = Zcaron;
layers = (
{
background = {
anchors = (
{
name = top;
pos = (325,670);
}
);
shapes = (
{
closed = 1;
nodes = (
(68,670,l),
(68,585,l),
(438,585,l),
(45,36,l),
(45,0,l),
(583,0,l),
(583,85,l),
(179,85,l),
(583,634,l),
(583,670,l)
);
},
{
closed = 1;
nodes = (
(303,751,l),
(347,751,l),
(487,890,l),
(405,890,l),
(325,812,l),
(245,890,l),
(163,890,l)
);
}
);
};
layerId = "DEFEBCF2-9FF2-4B76-ADC8-AB6BD79F23E7";
shapes = (
{
ref = Z;
},
{
pos = (83,170);
ref = caroncomb;
}
);
width = 628;
},
{
background = {
anchors = (
{
name = top;
pos = (351,670);
}
);
shapes = (
{
closed = 1;
nodes = (
(72,670,l),
(72,505,l),
(334,505,l),
(50,36,l),
(50,0,l),
(639,0,l),
(639,165,l),
(354,165,l),
(639,634,l),
(639,670,l)
);
},
{
closed = 1;
nodes = (
(299,720,l),
(403,720,l),
(523,870,l),
(391,870,l),
(351,811,l),
(311,870,l),
(179,870,l)
);
}
);
};
layerId = "2D992F1A-8218-4049-8E15-5955C72037C9";
shapes = (
{
ref = Z;
},
{
pos = (119,160);
ref = caroncomb;
}
);
width = 699;
}
);
unicode = 381;
},
{
color = 4;
glyphname = Zdotaccent;
layers = (
{
background = {
anchors = (
{
name = top;
pos = (325,670);
}
);
shapes = (
{
closed = 1;
nodes = (
(68,670,l),
(68,585,l),
(438,585,l),
(45,36,l),
(45,0,l),
(583,0,l),
(583,85,l),
(179,85,l),
(583,634,l),
(583,670,l)
);
},
{
closed = 1;
nodes = (
(290,890,o),
(262,862,o),
(262,827,cs),
(262,793,o),
(290,764,o),
(325,764,c),
(359,764,o),
(388,793,o),
(388,827,cs),
(388,862,o),
(359,890,o),
(325,890,cs)
);
}
);
};
layerId = "DEFEBCF2-9FF2-4B76-ADC8-AB6BD79F23E7";
shapes = (
{
ref = Z;
},
{
pos = (175,170);
ref = dotaccentcomb;
}
);
width = 628;
},
{
background = {
anchors = (
{
name = top;
pos = (351,670);
}
);
shapes = (
{
closed = 1;
nodes = (
(72,670,l),
(72,505,l),
(334,505,l),
(50,36,l),
(50,0,l),
(639,0,l),
(639,165,l),
(354,165,l),
(639,634,l),
(639,670,l)
);
},
{
closed = 1;
nodes = (
(309,870,o),
(275,836,o),
(275,794,cs),
(275,753,o),
(309,718,o),
(351,718,c),
(392,718,o),
(427,753,o),
(427,794,cs),
(427,836,o),
(392,870,o),
(351,870,cs)
);
}
);
};
layerId = "2D992F1A-8218-4049-8E15-5955C72037C9";
shapes = (
{
ref = Z;
},
{
pos = (195,160);
ref = dotaccentcomb;
}
);
width = 699;
}
);
unicode = 379;
},
{
color = 4;
glyphname = a;
layers = (
{
anchors = (
{
name = ogonek;
pos = (540,10);
},
{
name = top;
pos = (311,500);
}
);
background = {
anchors = (
{
name = ogonek;
pos = (540,10);
},
{
name = top;
pos = (311,500);
}
);
shapes = (
{
closed = 1;
nodes = (
(154,510,o),
(50,407,o),
(50,242,cs),
(50,90,o),
(154,-15,o),
(283,-15,cs),
(359,-15,o),
(420,32,o),
(455,85,c),
(455,0,l),
(537,0,l),
(537,500,l),
(455,500,l),
(455,433,l),
(412,481,o),
(348,510,o),
(291,510,cs)
);
},
{
closed = 1;
nodes = (
(367,430,o),
(412,399,o),
(454,347,c),
(455,251,ls),
(456,144,o),
(387,65,o),
(296,65,cs),
(199,65,o),
(135,145,o),
(135,242,cs),
(135,339,o),
(199,430,o),
(306,430,cs)
);
}
);
};
layerId = "DEFEBCF2-9FF2-4B76-ADC8-AB6BD79F23E7";
metricLeft = "=o";
metricRight = "=|n";
shapes = (
{
closed = 1;
nodes = (
(359,-15,o),
(420,32,o),
(455,85,c),
(455,0,l),
(537,0,l),
(537,500,l),
(455,500,l),
(455,433,l),
(412,481,o),
(348,510,o),
(291,510,cs),
(154,510,o),
(50,407,o),
(50,242,cs),
(50,90,o),
(154,-15,o),
(283,-15,cs)
);
},
{
closed = 1;
nodes = (
(199,65,o),
(135,145,o),
(135,242,cs),
(135,339,o),
(199,430,o),
(306,430,cs),
(367,430,o),
(412,399,o),
(454,347,c),
(455,251,ls),
(456,144,o),
(387,65,o),
(296,65,cs)
);
}
);
width = 622;
},
{
anchors = (
{
name = ogonek;
pos = (553,10);
},
{
name = top;
pos = (323,510);
}
);
background = {
anchors = (
{
name = ogonek;
pos = (553,10);
},
{
name = top;
pos = (323,510);
}
);
shapes = (
{
closed = 1;
nodes = (
(141,525,o),
(35,428,o),
(35,256,cs),
(35,71,o),
(141,-15,o),
(255,-15,cs),
(328,-15,o),
(382,29,o),
(407,85,c),
(407,0,l),
(579,0,l),
(579,510,l),
(407,510,l),
(407,463,l),
(374,499,o),
(318,525,o),
(265,525,cs)
);
},
{
closed = 1;
nodes = (
(339,357,o),
(377,339,o),
(407,315,c),
(407,266,ls),
(407,192,o),
(349,159,o),
(306,159,cs),
(251,159,o),
(215,201,o),
(215,256,cs),
(215,310,o),
(251,357,o),
(301,357,cs)
);
}
);
};
layerId = "2D992F1A-8218-4049-8E15-5955C72037C9";
shapes = (
{
closed = 1;
nodes = (
(328,-15,o),
(382,29,o),
(407,85,c),
(407,0,l),
(579,0,l),
(579,510,l),
(407,510,l),
(407,463,l),
(374,499,o),
(318,525,o),
(265,525,cs),
(141,525,o),
(35,428,o),
(35,256,cs),
(35,71,o),
(141,-15,o),
(255,-15,cs)
);
},
{
closed = 1;
nodes = (
(251,159,o),
(215,201,o),
(215,256,cs),
(215,310,o),
(251,357,o),
(301,357,cs),
(339,357,o),
(377,339,o),
(407,315,c),
(407,266,ls),
(407,192,o),
(349,159,o),
(306,159,cs)
);
}
);
width = 649;
}
);
metricLeft = "=o";
metricRight = "=|n";
unicode = 97;
},
{
color = 4;
glyphname = aacute;
layers = (
{
background = {
anchors = (
{
name = ogonek;
pos = (540,10);
},
{
name = top;
pos = (311,500);
}
);
shapes = (
{
closed = 1;
nodes = (
(154,510,o),
(50,407,o),
(50,242,cs),
(50,90,o),
(154,-15,o),
(283,-15,cs),
(359,-15,o),
(420,32,o),
(455,85,c),
(455,0,l),
(537,0,l),
(537,500,l),
(455,500,l),
(455,433,l),
(412,481,o),
(348,510,o),
(291,510,cs)
);
},
{
closed = 1;
nodes = (
(367,430,o),
(412,399,o),
(454,347,c),
(455,251,ls),
(456,144,o),
(387,65,o),
(296,65,cs),
(199,65,o),
(135,145,o),
(135,242,cs),
(135,339,o),
(199,430,o),
(306,430,cs)
);
},
{
closed = 1;
nodes = (
(369,720,l),
(259,585,l),
(341,585,l),
(483,720,l)
);
}
);
};
layerId = "DEFEBCF2-9FF2-4B76-ADC8-AB6BD79F23E7";
shapes = (
{
ref = a;
},
{
pos = (189,0);
ref = acutecomb;
}
);
width = 622;
},
{
background = {
anchors = (
{
name = ogonek;
pos = (553,10);
},
{
name = top;
pos = (323,510);
}
);
shapes = (
{
closed = 1;
nodes = (
(141,525,o),
(35,428,o),
(35,256,cs),
(35,71,o),
(141,-15,o),
(255,-15,cs),
(328,-15,o),
(382,29,o),
(407,85,c),
(407,0,l),
(579,0,l),
(579,510,l),
(407,510,l),
(407,463,l),
(374,499,o),
(318,525,o),
(265,525,cs)
);
},
{
closed = 1;
nodes = (
(339,357,o),
(377,339,o),
(407,315,c),
(407,266,ls),
(407,192,o),
(349,159,o),
(306,159,cs),
(251,159,o),
(215,201,o),
(215,256,cs),
(215,310,o),
(251,357,o),
(301,357,cs)
);
},
{
closed = 1;
nodes = (
(339,710,l),
(239,560,l),
(361,560,l),
(493,710,l)
);
}
);
};
layerId = "2D992F1A-8218-4049-8E15-5955C72037C9";
shapes = (
{
ref = a;
},
{
pos = (159,0);
ref = acutecomb;
}
);
width = 649;
}
);
unicode = 225;
},
{
color = 4;
glyphname = abreve;
layers = (
{
background = {
anchors = (
{
name = ogonek;
pos = (540,10);
},
{
name = top;
pos = (311,500);
}
);
shapes = (
{
closed = 1;
nodes = (
(154,510,o),
(50,407,o),
(50,242,cs),
(50,90,o),
(154,-15,o),
(283,-15,cs),
(359,-15,o),
(420,32,o),
(455,85,c),
(455,0,l),
(537,0,l),
(537,500,l),
(455,500,l),
(455,433,l),
(412,481,o),
(348,510,o),
(291,510,cs)
);
},
{
closed = 1;
nodes = (
(367,430,o),
(412,399,o),
(454,347,c),
(455,251,ls),
(456,144,o),
(387,65,o),
(296,65,cs),
(199,65,o),
(135,145,o),
(135,242,cs),
(135,339,o),
(199,430,o),
(306,430,cs)
);
},
{
closed = 1;
nodes = (
(401,720,l),
(395,672,o),
(364,638,o),
(311,638,cs),
(258,638,o),
(227,672,o),
(221,720,c),
(149,720,l),
(152,628,o),
(221,570,o),
(311,570,cs),
(401,570,o),
(470,628,o),
(473,720,c)
);
}
);
};
layerId = "DEFEBCF2-9FF2-4B76-ADC8-AB6BD79F23E7";
shapes = (
{
ref = a;
},
{
pos = (69,0);
ref = brevecomb;
}
);
width = 622;
},
{
background = {
anchors = (
{
name = ogonek;
pos = (553,10);
},
{
name = top;
pos = (323,510);
}
);
shapes = (
{
closed = 1;
nodes = (
(141,525,o),
(35,428,o),
(35,256,cs),
(35,71,o),
(141,-15,o),
(255,-15,cs),
(328,-15,o),
(382,29,o),
(407,85,c),
(407,0,l),
(579,0,l),
(579,510,l),
(407,510,l),
(407,463,l),
(374,499,o),
(318,525,o),
(265,525,cs)
);
},
{
closed = 1;
nodes = (
(339,357,o),
(377,339,o),
(407,315,c),
(407,266,ls),
(407,192,o),
(349,159,o),
(306,159,cs),
(251,159,o),
(215,201,o),
(215,256,cs),
(215,310,o),
(251,357,o),
(301,357,cs)
);
},
{
closed = 1;
nodes = (
(383,710,l),
(377,692,o),
(356,668,o),
(323,668,cs),
(290,668,o),
(269,682,o),
(263,710,c),
(161,710,l),
(164,618,o),
(233,560,o),
(323,560,cs),
(413,560,o),
(482,618,o),
(485,710,c)
);
}
);
};
layerId = "2D992F1A-8218-4049-8E15-5955C72037C9";
shapes = (
{
ref = a;
},
{
pos = (81,0);
ref = brevecomb;
}
);
width = 649;
}
);
unicode = 259;
},
{
color = 4;
glyphname = acircumflex;
layers = (
{
background = {
anchors = (
{
name = ogonek;
pos = (540,10);
},
{
name = top;
pos = (311,500);
}
);
shapes = (
{
closed = 1;
nodes = (
(154,510,o),
(50,407,o),
(50,242,cs),
(50,90,o),
(154,-15,o),
(283,-15,cs),
(359,-15,o),
(420,32,o),
(455,85,c),
(455,0,l),
(537,0,l),
(537,500,l),
(455,500,l),
(455,433,l),
(412,481,o),
(348,510,o),
(291,510,cs)
);
},
{
closed = 1;
nodes = (
(367,430,o),
(412,399,o),
(454,347,c),
(455,251,ls),
(456,144,o),
(387,65,o),
(296,65,cs),
(199,65,o),
(135,145,o),
(135,242,cs),
(135,339,o),
(199,430,o),
(306,430,cs)
);
},
{
closed = 1;
nodes = (
(289,720,l),
(149,581,l),
(231,581,l),
(311,659,l),
(391,581,l),
(473,581,l),
(333,720,l)
);
}
);
};
layerId = "DEFEBCF2-9FF2-4B76-ADC8-AB6BD79F23E7";
shapes = (
{
ref = a;
},
{
pos = (69,0);
ref = circumflexcomb;
}
);
width = 622;
},
{
background = {
anchors = (
{
name = ogonek;
pos = (553,10);
},
{
name = top;
pos = (323,510);
}
);
shapes = (
{
closed = 1;
nodes = (
(141,525,o),
(35,428,o),
(35,256,cs),
(35,71,o),
(141,-15,o),
(255,-15,cs),
(328,-15,o),
(382,29,o),
(407,85,c),
(407,0,l),
(579,0,l),
(579,510,l),
(407,510,l),
(407,463,l),
(374,499,o),
(318,525,o),
(265,525,cs)
);
},
{
closed = 1;
nodes = (
(339,357,o),
(377,339,o),
(407,315,c),
(407,266,ls),
(407,192,o),
(349,159,o),
(306,159,cs),
(251,159,o),
(215,201,o),
(215,256,cs),
(215,310,o),
(251,357,o),
(301,357,cs)
);
},
{
closed = 1;
nodes = (
(271,710,l),
(151,560,l),
(283,560,l),
(323,619,l),
(363,560,l),
(495,560,l),
(375,710,l)
);
}
);
};
layerId = "2D992F1A-8218-4049-8E15-5955C72037C9";
shapes = (
{
ref = a;
},
{
pos = (71,0);
ref = circumflexcomb;
}
);
width = 649;
}
);
unicode = 226;
},
{
color = 4;
glyphname = adieresis;
layers = (
{
background = {
anchors = (
{
name = ogonek;
pos = (540,10);
},
{
name = top;
pos = (311,500);
}
);
shapes = (
{
closed = 1;
nodes = (
(154,510,o),
(50,407,o),
(50,242,cs),
(50,90,o),
(154,-15,o),
(283,-15,cs),
(359,-15,o),
(420,32,o),
(455,85,c),
(455,0,l),
(537,0,l),
(537,500,l),
(455,500,l),
(455,433,l),
(412,481,o),
(348,510,o),
(291,510,cs)
);
},
{
closed = 1;
nodes = (
(367,430,o),
(412,399,o),
(454,347,c),
(455,251,ls),
(456,144,o),
(387,65,o),
(296,65,cs),
(199,65,o),
(135,145,o),
(135,242,cs),
(135,339,o),
(199,430,o),
(306,430,cs)
);
},
{
closed = 1;
nodes = (
(381,719,o),
(353,691,o),
(353,656,cs),
(353,622,o),
(381,593,o),
(416,593,c),
(450,593,o),
(479,622,o),
(479,656,cs),
(479,691,o),
(450,719,o),
(416,719,cs)
);
},
{
closed = 1;
nodes = (
(171,719,o),
(143,691,o),
(143,656,cs),
(143,622,o),
(171,593,o),
(206,593,c),
(240,593,o),
(269,622,o),
(269,656,cs),
(269,691,o),
(240,719,o),
(206,719,cs)
);
}
);
};
layerId = "DEFEBCF2-9FF2-4B76-ADC8-AB6BD79F23E7";
shapes = (
{
ref = a;
},
{
pos = (63,0);
ref = dieresiscomb;
}
);
width = 622;
},
{
background = {
anchors = (
{
name = ogonek;
pos = (553,10);
},
{
name = top;
pos = (323,510);
}
);
shapes = (
{
closed = 1;
nodes = (
(141,525,o),
(35,428,o),
(35,256,cs),
(35,71,o),
(141,-15,o),
(255,-15,cs),
(328,-15,o),
(382,29,o),
(407,85,c),
(407,0,l),
(579,0,l),
(579,510,l),
(407,510,l),
(407,463,l),
(374,499,o),
(318,525,o),
(265,525,cs)
);
},
{
closed = 1;
nodes = (
(339,357,o),
(377,339,o),
(407,315,c),
(407,266,ls),
(407,192,o),
(349,159,o),
(306,159,cs),
(251,159,o),
(215,201,o),
(215,256,cs),
(215,310,o),
(251,357,o),
(301,357,cs)
);
},
{
closed = 1;
nodes = (
(386,725,o),
(352,691,o),
(352,649,cs),
(352,608,o),
(386,573,o),
(428,573,c),
(469,573,o),
(504,608,o),
(504,649,cs),
(504,691,o),
(469,725,o),
(428,725,cs)
);
},
{
closed = 1;
nodes = (
(176,725,o),
(142,691,o),
(142,649,cs),
(142,608,o),
(176,573,o),
(218,573,c),
(259,573,o),
(294,608,o),
(294,649,cs),
(294,691,o),
(259,725,o),
(218,725,cs)
);
}
);
};
layerId = "2D992F1A-8218-4049-8E15-5955C72037C9";
shapes = (
{
ref = a;
},
{
pos = (56,0);
ref = dieresiscomb;
}
);
width = 649;
}
);
unicode = 228;
},
{
color = 4;
glyphname = agrave;
layers = (
{
background = {
anchors = (
{
name = ogonek;
pos = (540,10);
},
{
name = top;
pos = (311,500);
}
);
shapes = (
{
closed = 1;
nodes = (
(154,510,o),
(50,407,o),
(50,242,cs),
(50,90,o),
(154,-15,o),
(283,-15,cs),
(359,-15,o),
(420,32,o),
(455,85,c),
(455,0,l),
(537,0,l),
(537,500,l),
(455,500,l),
(455,433,l),
(412,481,o),
(348,510,o),
(291,510,cs)
);
},
{
closed = 1;
nodes = (
(367,430,o),
(412,399,o),
(454,347,c),
(455,251,ls),
(456,144,o),
(387,65,o),
(296,65,cs),
(199,65,o),
(135,145,o),
(135,242,cs),
(135,339,o),
(199,430,o),
(306,430,cs)
);
},
{
closed = 1;
nodes = (
(274,585,l),
(356,585,l),
(246,720,l),
(132,720,l)
);
}
);
};
layerId = "DEFEBCF2-9FF2-4B76-ADC8-AB6BD79F23E7";
shapes = (
{
ref = a;
},
{
pos = (113,0);
ref = gravecomb;
}
);
width = 622;
},
{
background = {
anchors = (
{
name = ogonek;
pos = (553,10);
},
{
name = top;
pos = (323,510);
}
);
shapes = (
{
closed = 1;
nodes = (
(141,525,o),
(35,428,o),
(35,256,cs),
(35,71,o),
(141,-15,o),
(255,-15,cs),
(328,-15,o),
(382,29,o),
(407,85,c),
(407,0,l),
(579,0,l),
(579,510,l),
(407,510,l),
(407,463,l),
(374,499,o),
(318,525,o),
(265,525,cs)
);
},
{
closed = 1;
nodes = (
(339,357,o),
(377,339,o),
(407,315,c),
(407,266,ls),
(407,192,o),
(349,159,o),
(306,159,cs),
(251,159,o),
(215,201,o),
(215,256,cs),
(215,310,o),
(251,357,o),
(301,357,cs)
);
},
{
closed = 1;
nodes = (
(133,710,l),
(265,560,l),
(387,560,l),
(287,710,l)
);
}
);
};
layerId = "2D992F1A-8218-4049-8E15-5955C72037C9";
shapes = (
{
ref = a;
},
{
pos = (53,0);
ref = gravecomb;
}
);
width = 649;
}
);
unicode = 224;
},
{
color = 4;
glyphname = amacron;
layers = (
{
background = {
anchors = (
{
name = ogonek;
pos = (540,10);
},
{
name = top;
pos = (311,500);
}
);
shapes = (
{
closed = 1;
nodes = (
(154,510,o),
(50,407,o),
(50,242,cs),
(50,90,o),
(154,-15,o),
(283,-15,cs),
(359,-15,o),
(420,32,o),
(455,85,c),
(455,0,l),
(537,0,l),
(537,500,l),
(455,500,l),
(455,433,l),
(412,481,o),
(348,510,o),
(291,510,cs)
);
},
{
closed = 1;
nodes = (
(367,430,o),
(412,399,o),
(454,347,c),
(455,251,ls),
(456,144,o),
(387,65,o),
(296,65,cs),
(199,65,o),
(135,145,o),
(135,242,cs),
(135,339,o),
(199,430,o),
(306,430,cs)
);
},
{
closed = 1;
nodes = (
(136,718,l),
(136,638,l),
(486,638,l),
(486,718,l)
);
}
);
};
layerId = "DEFEBCF2-9FF2-4B76-ADC8-AB6BD79F23E7";
shapes = (
{
ref = a;
},
{
pos = (46,0);
ref = macroncomb;
}
);
width = 622;
},
{
background = {
anchors = (
{
name = ogonek;
pos = (553,10);
},
{
name = top;
pos = (323,510);
}
);
shapes = (
{
closed = 1;
nodes = (
(141,525,o),
(35,428,o),
(35,256,cs),
(35,71,o),
(141,-15,o),
(255,-15,cs),
(328,-15,o),
(382,29,o),
(407,85,c),
(407,0,l),
(579,0,l),
(579,510,l),
(407,510,l),
(407,463,l),
(374,499,o),
(318,525,o),
(265,525,cs)
);
},
{
closed = 1;
nodes = (
(339,357,o),
(377,339,o),
(407,315,c),
(407,266,ls),
(407,192,o),
(349,159,o),
(306,159,cs),
(251,159,o),
(215,201,o),
(215,256,cs),
(215,310,o),
(251,357,o),
(301,357,cs)
);
},
{
closed = 1;
nodes = (
(138,710,l),
(138,600,l),
(508,600,l),
(508,710,l)
);
}
);
};
layerId = "2D992F1A-8218-4049-8E15-5955C72037C9";
shapes = (
{
ref = a;
},
{
pos = (38,0);
ref = macroncomb;
}
);
width = 649;
}
);
unicode = 257;
},
{
color = 4;
glyphname = aogonek;
layers = (
{
background = {
anchors = (
{
name = ogonek;
pos = (540,10);
},
{
name = top;
pos = (311,500);
}
);
shapes = (
{
closed = 1;
nodes = (
(154,510,o),
(50,407,o),
(50,242,cs),
(50,90,o),
(154,-15,o),
(283,-15,cs),
(359,-15,o),
(420,32,o),
(455,85,c),
(455,0,l),
(537,0,l),
(537,500,l),
(455,500,l),
(455,433,l),
(412,481,o),
(348,510,o),
(291,510,cs)
);
},
{
closed = 1;
nodes = (
(367,430,o),
(412,399,o),
(454,347,c),
(455,251,ls),
(456,144,o),
(387,65,o),
(296,65,cs),
(199,65,o),
(135,145,o),
(135,242,cs),
(135,339,o),
(199,430,o),
(306,430,cs)
);
},
{
closed = 1;
nodes = (
(418,-12,o),
(344,-56,o),
(344,-126,cs),
(344,-192,o),
(401,-225,o),
(461,-225,cs),
(497,-225,o),
(521,-207,o),
(535,-200,c),
(535,-131,l),
(520,-141,o),
(504,-149,o),
(481,-149,cs),
(446,-149,o),
(428,-126,o),
(428,-98,cs),
(428,-54,o),
(488,-18,o),
(535,1,c),
(455,1,l)
);
}
);
};
layerId = "DEFEBCF2-9FF2-4B76-ADC8-AB6BD79F23E7";
shapes = (
{
ref = a;
},
{
pos = (161,0);
ref = ogonekcomb;
}
);
width = 622;
},
{
background = {
anchors = (
{
name = ogonek;
pos = (553,10);
},
{
name = top;
pos = (323,510);
}
);
shapes = (
{
closed = 1;
nodes = (
(141,525,o),
(35,428,o),
(35,256,cs),
(35,71,o),
(141,-15,o),
(255,-15,cs),
(328,-15,o),
(382,29,o),
(407,85,c),
(407,0,l),
(579,0,l),
(579,510,l),
(407,510,l),
(407,463,l),
(374,499,o),
(318,525,o),
(265,525,cs)
);
},
{
closed = 1;
nodes = (
(339,357,o),
(377,339,o),
(407,315,c),
(407,266,ls),
(407,192,o),
(349,159,o),
(306,159,cs),
(251,159,o),
(215,201,o),
(215,256,cs),
(215,310,o),
(251,357,o),
(301,357,cs)
);
},
{
closed = 1;
nodes = (
(356,-13,o),
(296,-56,o),
(296,-126,cs),
(296,-192,o),
(363,-225,o),
(423,-225,cs),
(479,-225,o),
(523,-210,o),
(537,-203,c),
(537,-90,l),
(522,-100,o),
(506,-108,o),
(483,-108,cs),
(462,-108,o),
(447,-94,o),
(447,-73,cs),
(447,-51,o),
(494,-13,o),
(553,1,c),
(413,1,l)
);
}
);
};
layerId = "2D992F1A-8218-4049-8E15-5955C72037C9";
shapes = (
{
ref = a;
},
{
pos = (163,0);
ref = ogonekcomb;
}
);
width = 649;
}
);
unicode = 261;
},
{
color = 4;
glyphname = aring;
layers = (
{
background = {
anchors = (
{
name = ogonek;
pos = (540,10);
},
{
name = top;
pos = (311,500);
}
);
shapes = (
{
closed = 1;
nodes = (
(154,510,o),
(50,407,o),
(50,242,cs),
(50,90,o),
(154,-15,o),
(283,-15,cs),
(359,-15,o),
(420,32,o),
(455,85,c),
(455,0,l),
(537,0,l),
(537,500,l),
(455,500,l),
(455,433,l),
(412,481,o),
(348,510,o),
(291,510,cs)
);
},
{
closed = 1;
nodes = (
(367,430,o),
(412,399,o),
(454,347,c),
(455,251,ls),
(456,144,o),
(387,65,o),
(296,65,cs),
(199,65,o),
(135,145,o),
(135,242,cs),
(135,339,o),
(199,430,o),
(306,430,cs)
);
},
{
closed = 1;
nodes = (
(263,725,o),
(228,687,o),
(228,642,cs),
(228,597,o),
(263,559,o),
(311,559,cs),
(359,559,o),
(393,597,o),
(393,642,cs),
(393,687,o),
(359,725,o),
(311,725,cs)
);
},
{
closed = 1;
nodes = (
(333,684,o),
(351,664,o),
(351,642,cs),
(351,619,o),
(333,600,o),
(311,600,cs),
(288,600,o),
(270,619,o),
(270,642,cs),
(270,664,o),
(288,684,o),
(311,684,cs)
);
}
);
};
layerId = "DEFEBCF2-9FF2-4B76-ADC8-AB6BD79F23E7";
shapes = (
{
ref = a;
},
{
pos = (148,0);
ref = ringcomb;
}
);
width = 622;
},
{
background = {
anchors = (
{
name = ogonek;
pos = (553,10);
},
{
name = top;
pos = (323,510);
}
);
shapes = (
{
closed = 1;
nodes = (
(141,525,o),
(35,428,o),
(35,256,cs),
(35,71,o),
(141,-15,o),
(255,-15,cs),
(328,-15,o),
(382,29,o),
(407,85,c),
(407,0,l),
(579,0,l),
(579,510,l),
(407,510,l),
(407,463,l),
(374,499,o),
(318,525,o),
(265,525,cs)
);
},
{
closed = 1;
nodes = (
(339,357,o),
(377,339,o),
(407,315,c),
(407,266,ls),
(407,192,o),
(349,159,o),
(306,159,cs),
(251,159,o),
(215,201,o),
(215,256,cs),
(215,310,o),
(251,357,o),
(301,357,cs)
);
},
{
closed = 1;
nodes = (
(270,733,o),
(226,693,o),
(226,642,cs),
(226,591,o),
(270,551,o),
(323,551,cs),
(376,551,o),
(419,591,o),
(419,642,cs),
(419,693,o),
(376,733,o),
(323,733,cs)
);
},
{
closed = 1;
nodes = (
(343,678,o),
(361,662,o),
(361,642,cs),
(361,621,o),
(343,606,o),
(323,606,cs),
(302,606,o),
(284,621,o),
(284,642,cs),
(284,662,o),
(302,678,o),
(323,678,cs)
);
}
);
};
layerId = "2D992F1A-8218-4049-8E15-5955C72037C9";
shapes = (
{
ref = a;
},
{
pos = (152,0);
ref = ringcomb;
}
);
width = 649;
}
);
unicode = 229;
},
{
color = 4;
glyphname = atilde;
layers = (
{
background = {
anchors = (
{
name = ogonek;
pos = (540,10);
},
{
name = top;
pos = (311,500);
}
);
shapes = (
{
closed = 1;
nodes = (
(154,510,o),
(50,407,o),
(50,242,cs),
(50,90,o),
(154,-15,o),
(283,-15,cs),
(359,-15,o),
(420,32,o),
(455,85,c),
(455,0,l),
(537,0,l),
(537,500,l),
(455,500,l),
(455,433,l),
(412,481,o),
(348,510,o),
(291,510,cs)
);
},
{
closed = 1;
nodes = (
(367,430,o),
(412,399,o),
(454,347,c),
(455,251,ls),
(456,144,o),
(387,65,o),
(296,65,cs),
(199,65,o),
(135,145,o),
(135,242,cs),
(135,339,o),
(199,430,o),
(306,430,cs)
);
},
{
closed = 1;
nodes = (
(417,704,l),
(417,679,o),
(405,658,o),
(381,658,cs),
(339,658,o),
(328,709,o),
(255,709,cs),
(195,709,o),
(151,664,o),
(151,606,c),
(219,606,l),
(219,631,o),
(232,652,o),
(255,652,cs),
(297,652,o),
(308,601,o),
(381,601,cs),
(441,601,o),
(485,646,o),
(485,704,c)
);
}
);
};
layerId = "DEFEBCF2-9FF2-4B76-ADC8-AB6BD79F23E7";
shapes = (
{
ref = a;
},
{
pos = (75,-16);
ref = tildecomb;
}
);
width = 622;
},
{
background = {
anchors = (
{
name = ogonek;
pos = (553,10);
},
{
name = top;
pos = (323,510);
}
);
shapes = (
{
closed = 1;
nodes = (
(141,525,o),
(35,428,o),
(35,256,cs),
(35,71,o),
(141,-15,o),
(255,-15,cs),
(328,-15,o),
(382,29,o),
(407,85,c),
(407,0,l),
(579,0,l),
(579,510,l),
(407,510,l),
(407,463,l),
(374,499,o),
(318,525,o),
(265,525,cs)
);
},
{
closed = 1;
nodes = (
(339,357,o),
(377,339,o),
(407,315,c),
(407,266,ls),
(407,192,o),
(349,159,o),
(306,159,cs),
(251,159,o),
(215,201,o),
(215,256,cs),
(215,310,o),
(251,357,o),
(301,357,cs)
);
},
{
closed = 1;
nodes = (
(420,685,l),
(420,662,o),
(409,648,o),
(387,648,cs),
(359,648,o),
(336,689,o),
(270,689,cs),
(200,689,o),
(142,643,o),
(142,550,c),
(236,550,l),
(236,573,o),
(248,587,o),
(269,587,cs),
(297,587,o),
(320,546,o),
(386,546,cs),
(456,546,o),
(514,592,o),
(514,685,c)
);
}
);
};
layerId = "2D992F1A-8218-4049-8E15-5955C72037C9";
shapes = (
{
ref = a;
},
{
pos = (98,0);
ref = tildecomb;
}
);
width = 649;
}
);
unicode = 227;
},
{
color = 4;
glyphname = ae;
layers = (
{
anchors = (
{
name = ogonek;
pos = (536,10);
},
{
name = top;
pos = (307,500);
}
);
background = {
anchors = (
{
name = bottom;
pos = (692,0);
},
{
name = ogonek;
pos = (536,10);
},
{
name = top;
pos = (307,500);
}
);
hints = (
{
horizontal = 1;
origin = (0,28);
target = (0,18);
type = Stem;
},
{
horizontal = 1;
origin = (0,24);
target = (0,21);
type = Stem;
},
{
origin = (0,21);
target = (0,25);
type = Stem;
},
{
origin = (0,2);
target = (0,15);
type = Stem;
},
{
horizontal = 1;
origin = (0,5);
target = (0,12);
type = Stem;
}
);
shapes = (
{
closed = 1;
nodes = (
(566,510,o),
(466,389,o),
(466,247,cs),
(466,105,o),
(575,-15,o),
(727,-15,cs),
(805,-15,o),
(878,30,o),
(906,64,c),
(907,153,l),
(864,109,o),
(799,65,o),
(727,65,cs),
(620,65,o),
(551,150,o),
(551,247,cs),
(551,344,o),
(611,430,o),
(707,430,cs),
(777,430,o),
(846,385,o),
(856,288,c),
(543,288,l),
(543,218,l),
(937,218,l),
(937,267,ls),
(937,404,o),
(861,510,o),
(707,510,cs)
);
},
{
closed = 1;
nodes = (
(154,510,o),
(50,407,o),
(50,242,cs),
(50,90,o),
(154,-15,o),
(283,-15,cs),
(359,-15,o),
(420,32,o),
(455,85,c),
(455,0,l),
(537,0,l),
(537,500,l),
(455,500,l),
(455,433,l),
(412,481,o),
(348,510,o),
(291,510,cs)
);
},
{
closed = 1;
nodes = (
(367,430,o),
(412,399,o),
(454,347,c),
(455,251,ls),
(456,144,o),
(387,65,o),
(296,65,cs),
(199,65,o),
(135,145,o),
(135,242,cs),
(135,339,o),
(199,430,o),
(306,430,cs)
);
}
);
};
layerId = "DEFEBCF2-9FF2-4B76-ADC8-AB6BD79F23E7";
metricLeft = "=a";
metricRight = "=e";
shapes = (
{
alignment = -1;
pos = (416,0);
ref = e;
},
{
ref = a;
}
);
width = 987;
},
{
anchors = (
{
name = ogonek;
pos = (536,10);
},
{
name = top;
pos = (307,500);
}
);
background = {
anchors = (
{
name = bottom;
pos = (723,0);
},
{
name = ogonek;
pos = (536,10);
},
{
name = top;
pos = (307,500);
}
);
hints = (
{
horizontal = 1;
origin = (0,28);
target = (0,18);
type = Stem;
},
{
origin = (0,21);
target = (0,24);
type = Stem;
},
{
horizontal = 1;
origin = (0,5);
target = (0,12);
type = Stem;
},
{
origin = (0,2);
target = (0,15);
type = Stem;
}
);
shapes = (
{
closed = 1;
nodes = (
(594,525,o),
(477,399,o),
(477,247,cs),
(477,85,o),
(613,-15,o),
(758,-15,cs),
(834,-15,o),
(897,11,o),
(932,33,c),
(932,180,l),
(904,164,o),
(845,135,o),
(768,135,cs),
(697,135,o),
(642,170,o),
(642,247,cs),
(642,340,o),
(683,383,o),
(743,383,cs),
(788,383,o),
(832,360,o),
(832,312,c),
(634,312,l),
(634,208,l),
(995,208,l),
(995,267,ls),
(995,424,o),
(892,525,o),
(748,525,cs)
);
},
{
closed = 1;
nodes = (
(141,525,o),
(35,428,o),
(35,256,cs),
(35,71,o),
(141,-15,o),
(255,-15,cs),
(328,-15,o),
(382,29,o),
(407,85,c),
(407,0,l),
(579,0,l),
(579,510,l),
(407,510,l),
(407,463,l),
(374,499,o),
(318,525,o),
(265,525,cs)
);
},
{
closed = 1;
nodes = (
(339,357,o),
(377,339,o),
(407,315,c),
(407,266,ls),
(407,192,o),
(349,159,o),
(306,159,cs),
(251,159,o),
(215,201,o),
(215,256,cs),
(215,310,o),
(251,357,o),
(301,357,cs)
);
}
);
};
layerId = "2D992F1A-8218-4049-8E15-5955C72037C9";
shapes = (
{
alignment = -1;
pos = (442,0);
ref = e;
},
{
ref = a;
}
);
width = 1020;
}
);
metricLeft = "=a";
metricRight = "=e";
unicode = 230;
},
{
color = 4;
glyphname = b;
layers = (
{
background = {
shapes = (
{
closed = 1;
nodes = (
(274,510,o),
(210,481,o),
(167,433,c),
(167,720,l),
(85,720,l),
(85,0,l),
(167,0,l),
(167,85,l),
(202,32,o),
(263,-15,o),
(339,-15,cs),
(468,-15,o),
(572,90,o),
(572,242,cs),
(572,407,o),
(468,510,o),
(331,510,cs)
);
},
{
closed = 1;
nodes = (
(423,429,o),
(487,339,o),
(487,242,cs),
(487,145,o),
(423,66,o),
(326,66,cs),
(235,66,o),
(166,144,o),
(167,251,cs),
(168,347,l),
(210,399,o),
(255,429,o),
(316,429,cs)
);
}
);
};
layerId = "DEFEBCF2-9FF2-4B76-ADC8-AB6BD79F23E7";
metricLeft = "=n";
metricRight = "=o";
shapes = (
{
closed = 1;
nodes = (
(468,-15,o),
(572,90,o),
(572,242,cs),
(572,407,o),
(468,510,o),
(331,510,cs),
(274,510,o),
(210,481,o),
(167,433,c),
(167,720,l),
(85,720,l),
(85,0,l),
(167,0,l),
(167,85,l),
(202,32,o),
(263,-15,o),
(339,-15,cs)
);
},
{
closed = 1;
nodes = (
(235,66,o),
(166,144,o),
(167,251,cs),
(168,347,l),
(210,399,o),
(255,429,o),
(316,429,cs),
(423,429,o),
(487,339,o),
(487,242,cs),
(487,145,o),
(423,66,o),
(326,66,cs)
);
}
);
width = 622;
},
{
background = {
shapes = (
{
closed = 1;
nodes = (
(331,525,o),
(275,499,o),
(242,463,c),
(242,720,l),
(70,720,l),
(70,0,l),
(242,0,l),
(242,85,l),
(267,29,o),
(321,-15,o),
(394,-15,cs),
(508,-15,o),
(614,71,o),
(614,256,cs),
(614,428,o),
(508,525,o),
(384,525,cs)
);
},
{
closed = 1;
nodes = (
(398,357,o),
(434,310,o),
(434,256,cs),
(434,201,o),
(398,159,o),
(343,159,cs),
(300,159,o),
(242,192,o),
(242,266,cs),
(242,315,l),
(272,339,o),
(310,357,o),
(348,357,cs)
);
}
);
};
layerId = "2D992F1A-8218-4049-8E15-5955C72037C9";
metricLeft = "=n";
metricRight = "=o";
shapes = (
{
closed = 1;
nodes = (
(508,-15,o),
(614,71,o),
(614,256,cs),
(614,428,o),
(508,525,o),
(384,525,cs),
(331,525,o),
(275,499,o),
(242,463,c),
(242,720,l),
(70,720,l),
(70,0,l),
(242,0,l),
(242,85,l),
(267,29,o),
(321,-15,o),
(394,-15,cs)
);
},
{
closed = 1;
nodes = (
(300,159,o),
(242,192,o),
(242,266,cs),
(242,315,l),
(272,339,o),
(310,357,o),
(348,357,cs),
(398,357,o),
(434,310,o),
(434,256,cs),
(434,201,o),
(398,159,o),
(343,159,cs)
);
}
);
width = 649;
}
);
metricLeft = "=n";
metricRight = "=o";
unicode = 98;
},
{
color = 4;
glyphname = c;
layers = (
{
anchors = (
{
name = bottom;
pos = (293,0);
},
{
name = top;
pos = (300,500);
}
);
background = {
anchors = (
{
name = bottom;
pos = (293,0);
},
{
name = top;
pos = (300,500);
}
);
shapes = (
{
closed = 1;
nodes = (
(159,510,o),
(50,389,o),
(50,247,cs),
(50,105,o),
(159,-15,o),
(311,-15,cs),
(384,-15,o),
(441,14,o),
(461,34,c),
(461,117,l),
(423,89,o),
(378,65,o),
(311,65,cs),
(204,65,o),
(135,150,o),
(135,247,cs),
(135,344,o),
(204,430,o),
(311,430,cs),
(378,430,o),
(423,406,o),
(461,378,c),
(461,461,l),
(441,480,o),
(384,510,o),
(311,510,cs)
);
}
);
};
layerId = "DEFEBCF2-9FF2-4B76-ADC8-AB6BD79F23E7";
metricLeft = "=o";
metricRight = "=o";
shapes = (
{
closed = 1;
nodes = (
(384,-15,o),
(441,14,o),
(461,34,c),
(461,117,l),
(423,89,o),
(378,65,o),
(311,65,cs),
(204,65,o),
(135,150,o),
(135,247,cs),
(135,344,o),
(204,430,o),
(311,430,cs),
(378,430,o),
(423,406,o),
(461,378,c),
(461,461,l),
(441,480,o),
(384,510,o),
(311,510,cs),
(159,510,o),
(50,389,o),
(50,247,cs),
(50,105,o),
(159,-15,o),
(311,-15,cs)
);
}
);
width = 511;
},
{
anchors = (
{
name = bottom;
pos = (312,0);
},
{
name = top;
pos = (300,510);
}
);
background = {
anchors = (
{
name = bottom;
pos = (312,0);
},
{
name = top;
pos = (300,510);
}
);
shapes = (
{
closed = 1;
nodes = (
(152,525,o),
(35,394,o),
(35,252,cs),
(35,110,o),
(152,-15,o),
(304,-15,cs),
(382,-15,o),
(417,10,o),
(452,37,c),
(452,187,l),
(421,165,o),
(384,150,o),
(327,150,cs),
(270,150,o),
(220,185,o),
(220,252,cs),
(220,319,o),
(280,355,o),
(327,355,cs),
(384,355,o),
(421,340,o),
(452,318,c),
(452,468,l),
(417,495,o),
(382,525,o),
(304,525,cs)
);
}
);
};
layerId = "2D992F1A-8218-4049-8E15-5955C72037C9";
metricLeft = "=o";
metricRight = "=o-15";
shapes = (
{
closed = 1;
nodes = (
(382,-15,o),
(417,10,o),
(452,37,c),
(452,187,l),
(421,165,o),
(384,150,o),
(327,150,cs),
(270,150,o),
(220,185,o),
(220,252,cs),
(220,319,o),
(280,355,o),
(327,355,cs),
(384,355,o),
(421,340,o),
(452,318,c),
(452,468,l),
(417,495,o),
(382,525,o),
(304,525,cs),
(152,525,o),
(35,394,o),
(35,252,cs),
(35,110,o),
(152,-15,o),
(304,-15,cs)
);
}
);
width = 472;
}
);
metricLeft = "=i";
metricRight = "=|n";
unicode = 99;
},
{
color = 4;
glyphname = cacute;
layers = (
{
background = {
anchors = (
{
name = bottom;
pos = (293,0);
},
{
name = top;
pos = (300,500);
}
);
shapes = (
{
closed = 1;
nodes = (
(159,510,o),
(50,389,o),
(50,247,cs),
(50,105,o),
(159,-15,o),
(311,-15,cs),
(384,-15,o),
(441,14,o),
(461,34,c),
(461,117,l),
(423,89,o),
(378,65,o),
(311,65,cs),
(204,65,o),
(135,150,o),
(135,247,cs),
(135,344,o),
(204,430,o),
(311,430,cs),
(378,430,o),
(423,406,o),
(461,378,c),
(461,461,l),
(441,480,o),
(384,510,o),
(311,510,cs)
);
},
{
closed = 1;
nodes = (
(358,720,l),
(248,585,l),
(330,585,l),
(472,720,l)
);
}
);
};
layerId = "DEFEBCF2-9FF2-4B76-ADC8-AB6BD79F23E7";
shapes = (
{
ref = c;
},
{
pos = (178,0);
ref = acutecomb;
}
);
width = 511;
},
{
background = {
anchors = (
{
name = bottom;
pos = (312,0);
},
{
name = top;
pos = (300,510);
}
);
shapes = (
{
closed = 1;
nodes = (
(152,525,o),
(35,394,o),
(35,252,cs),
(35,110,o),
(152,-15,o),
(304,-15,cs),
(382,-15,o),
(417,10,o),
(452,37,c),
(452,187,l),
(421,165,o),
(384,150,o),
(327,150,cs),
(270,150,o),
(220,185,o),
(220,252,cs),
(220,319,o),
(280,355,o),
(327,355,cs),
(384,355,o),
(421,340,o),
(452,318,c),
(452,468,l),
(417,495,o),
(382,525,o),
(304,525,cs)
);
},
{
closed = 1;
nodes = (
(316,710,l),
(216,560,l),
(338,560,l),
(470,710,l)
);
}
);
};
layerId = "2D992F1A-8218-4049-8E15-5955C72037C9";
shapes = (
{
ref = c;
},
{
pos = (136,0);
ref = acutecomb;
}
);
width = 472;
}
);
unicode = 263;
},
{
color = 4;
glyphname = ccaron;
layers = (
{
background = {
anchors = (
{
name = bottom;
pos = (293,0);
},
{
name = top;
pos = (300,500);
}
);
shapes = (
{
closed = 1;
nodes = (
(159,510,o),
(50,389,o),
(50,247,cs),
(50,105,o),
(159,-15,o),
(311,-15,cs),
(384,-15,o),
(441,14,o),
(461,34,c),
(461,117,l),
(423,89,o),
(378,65,o),
(311,65,cs),
(204,65,o),
(135,150,o),
(135,247,cs),
(135,344,o),
(204,430,o),
(311,430,cs),
(378,430,o),
(423,406,o),
(461,378,c),
(461,461,l),
(441,480,o),
(384,510,o),
(311,510,cs)
);
},
{
closed = 1;
nodes = (
(278,581,l),
(322,581,l),
(462,720,l),
(380,720,l),
(300,642,l),
(220,720,l),
(138,720,l)
);
}
);
};
layerId = "DEFEBCF2-9FF2-4B76-ADC8-AB6BD79F23E7";
shapes = (
{
ref = c;
},
{
pos = (58,0);
ref = caroncomb;
}
);
width = 511;
},
{
background = {
anchors = (
{
name = bottom;
pos = (312,0);
},
{
name = top;
pos = (300,510);
}
);
shapes = (
{
closed = 1;
nodes = (
(152,525,o),
(35,394,o),
(35,252,cs),
(35,110,o),
(152,-15,o),
(304,-15,cs),
(382,-15,o),
(417,10,o),
(452,37,c),
(452,187,l),
(421,165,o),
(384,150,o),
(327,150,cs),
(270,150,o),
(220,185,o),
(220,252,cs),
(220,319,o),
(280,355,o),
(327,355,cs),
(384,355,o),
(421,340,o),
(452,318,c),
(452,468,l),
(417,495,o),
(382,525,o),
(304,525,cs)
);
},
{
closed = 1;
nodes = (
(248,560,l),
(352,560,l),
(472,710,l),
(340,710,l),
(300,651,l),
(260,710,l),
(128,710,l)
);
}
);
};
layerId = "2D992F1A-8218-4049-8E15-5955C72037C9";
shapes = (
{
ref = c;
},
{
pos = (68,0);
ref = caroncomb;
}
);
width = 472;
}
);
unicode = 269;
},
{
color = 4;
glyphname = ccedilla;
layers = (
{
background = {
anchors = (
{
name = bottom;
pos = (293,0);
},
{
name = top;
pos = (300,500);
}
);
shapes = (
{
closed = 1;
nodes = (
(159,510,o),
(50,389,o),
(50,247,cs),
(50,105,o),
(159,-15,o),
(311,-15,cs),
(384,-15,o),
(441,14,o),
(461,34,c),
(461,117,l),
(423,89,o),
(378,65,o),
(311,65,cs),
(204,65,o),
(135,150,o),
(135,247,cs),
(135,344,o),
(204,430,o),
(311,430,cs),
(378,430,o),
(423,406,o),
(461,378,c),
(461,461,l),
(441,480,o),
(384,510,o),
(311,510,cs)
);
},
{
closed = 1;
nodes = (
(265,2,l),
(251,-118,l),
(267,-130,l),
(280,-123,o),
(292,-121,o),
(302,-121,cs),
(327,-121,o),
(341,-132,o),
(341,-150,cs),
(341,-168,o),
(325,-181,o),
(302,-181,cs),
(273,-181,o),
(249,-171,o),
(228,-160,c),
(221,-215,l),
(242,-232,o),
(279,-240,o),
(299,-240,cs),
(368,-240,o),
(409,-200,o),
(409,-147,cs),
(409,-98,o),
(368,-63,o),
(313,-70,c),
(319,2,l)
);
}
);
};
layerId = "DEFEBCF2-9FF2-4B76-ADC8-AB6BD79F23E7";
shapes = (
{
ref = c;
},
{
pos = (136,0);
ref = cedillacomb;
}
);
width = 511;
},
{
background = {
anchors = (
{
name = bottom;
pos = (312,0);
},
{
name = top;
pos = (300,510);
}
);
shapes = (
{
closed = 1;
nodes = (
(152,525,o),
(35,394,o),
(35,252,cs),
(35,110,o),
(152,-15,o),
(304,-15,cs),
(382,-15,o),
(417,10,o),
(452,37,c),
(452,187,l),
(421,165,o),
(384,150,o),
(327,150,cs),
(270,150,o),
(220,185,o),
(220,252,cs),
(220,319,o),
(280,355,o),
(327,355,cs),
(384,355,o),
(421,340,o),
(452,318,c),
(452,468,l),
(417,495,o),
(382,525,o),
(304,525,cs)
);
},
{
closed = 1;
nodes = (
(251,2,l),
(239,-114,l),
(263,-126,l),
(276,-119,o),
(283,-117,o),
(293,-117,cs),
(308,-117,o),
(323,-125,o),
(323,-141,cs),
(323,-159,o),
(304,-167,o),
(291,-167,cs),
(262,-167,o),
(242,-152,o),
(221,-141,c),
(214,-215,l),
(235,-232,o),
(274,-240,o),
(294,-240,cs),
(363,-240,o),
(412,-199,o),
(412,-131,cs),
(412,-82,o),
(376,-44,o),
(322,-46,c),
(325,2,l)
);
}
);
};
layerId = "2D992F1A-8218-4049-8E15-5955C72037C9";
shapes = (
{
ref = c;
},
{
pos = (134,0);
ref = cedillacomb;
}
);
width = 472;
}
);
unicode = 231;
},
{
color = 4;
glyphname = d;
layers = (
{
background = {
shapes = (
{
closed = 1;
nodes = (
(455,720,l),
(455,433,l),
(412,481,o),
(348,510,o),
(291,510,cs),
(154,510,o),
(50,407,o),
(50,242,cs),
(50,90,o),
(154,-15,o),
(283,-15,cs),
(359,-15,o),
(420,32,o),
(455,85,c),
(455,0,l),
(537,0,l),
(537,720,l)
);
},
{
closed = 1;
nodes = (
(367,428,o),
(412,399,o),
(454,347,c),
(455,251,ls),
(456,144,o),
(387,65,o),
(296,65,cs),
(199,65,o),
(135,145,o),
(135,242,cs),
(135,339,o),
(199,428,o),
(306,428,cs)
);
}
);
};
layerId = "DEFEBCF2-9FF2-4B76-ADC8-AB6BD79F23E7";
metricLeft = "=o";
metricRight = "=|n";
shapes = (
{
closed = 1;
nodes = (
(359,-15,o),
(420,32,o),
(455,85,c),
(455,0,l),
(537,0,l),
(537,720,l),
(455,720,l),
(455,433,l),
(412,481,o),
(348,510,o),
(291,510,cs),
(154,510,o),
(50,407,o),
(50,242,cs),
(50,90,o),
(154,-15,o),
(283,-15,cs)
);
},
{
closed = 1;
nodes = (
(199,65,o),
(135,145,o),
(135,242,cs),
(135,339,o),
(199,428,o),
(306,428,cs),
(367,428,o),
(412,399,o),
(454,347,c),
(455,251,ls),
(456,144,o),
(387,65,o),
(296,65,cs)
);
}
);
width = 622;
},
{
background = {
shapes = (
{
closed = 1;
nodes = (
(407,720,l),
(407,463,l),
(374,499,o),
(318,525,o),
(265,525,cs),
(141,525,o),
(35,428,o),
(35,256,cs),
(35,71,o),
(141,-15,o),
(255,-15,cs),
(328,-15,o),
(382,29,o),
(407,85,c),
(407,0,l),
(579,0,l),
(579,720,l)
);
},
{
closed = 1;
nodes = (
(339,357,o),
(377,339,o),
(407,315,c),
(407,266,ls),
(407,192,o),
(349,159,o),
(306,159,cs),
(251,159,o),
(215,201,o),
(215,256,cs),
(215,310,o),
(251,357,o),
(301,357,cs)
);
}
);
};
layerId = "2D992F1A-8218-4049-8E15-5955C72037C9";
shapes = (
{
closed = 1;
nodes = (
(328,-15,o),
(382,29,o),
(407,85,c),
(407,0,l),
(579,0,l),
(579,720,l),
(407,720,l),
(407,463,l),
(374,499,o),
(318,525,o),
(265,525,cs),
(141,525,o),
(35,428,o),
(35,256,cs),
(35,71,o),
(141,-15,o),
(255,-15,cs)
);
},
{
closed = 1;
nodes = (
(251,159,o),
(215,201,o),
(215,256,cs),
(215,310,o),
(251,357,o),
(301,357,cs),
(339,357,o),
(377,339,o),
(407,315,c),
(407,266,ls),
(407,192,o),
(349,159,o),
(306,159,cs)
);
}
);
width = 649;
}
);
metricLeft = "=o";
metricRight = "=|n";
unicode = 100;
},
{
color = 4;
glyphname = dcaron;
layers = (
{
background = {
shapes = (
{
closed = 1;
nodes = (
(606,530,l),
(673,530,l),
(703,718,l),
(616,718,l)
);
},
{
closed = 1;
nodes = (
(455,720,l),
(455,433,l),
(412,481,o),
(348,510,o),
(291,510,cs),
(154,510,o),
(50,407,o),
(50,242,cs),
(50,90,o),
(154,-15,o),
(283,-15,cs),
(359,-15,o),
(420,32,o),
(455,85,c),
(455,0,l),
(537,0,l),
(537,720,l)
);
},
{
closed = 1;
nodes = (
(367,428,o),
(412,399,o),
(454,347,c),
(455,251,ls),
(456,144,o),
(387,65,o),
(296,65,cs),
(199,65,o),
(135,145,o),
(135,242,cs),
(135,339,o),
(199,428,o),
(306,428,cs)
);
}
);
};
layerId = "DEFEBCF2-9FF2-4B76-ADC8-AB6BD79F23E7";
shapes = (
{
ref = d;
},
{
pos = (541,0);
ref = caroncomb.alt;
}
);
width = 622;
},
{
background = {
shapes = (
{
closed = 1;
nodes = (
(605,530,l),
(727,530,l),
(757,718,l),
(615,718,l)
);
},
{
closed = 1;
nodes = (
(407,720,l),
(407,463,l),
(374,499,o),
(318,525,o),
(265,525,cs),
(141,525,o),
(35,428,o),
(35,256,cs),
(35,71,o),
(141,-15,o),
(255,-15,cs),
(328,-15,o),
(382,29,o),
(407,85,c),
(407,0,l),
(579,0,l),
(579,720,l)
);
},
{
closed = 1;
nodes = (
(339,357,o),
(377,339,o),
(407,315,c),
(407,266,ls),
(407,192,o),
(349,159,o),
(306,159,cs),
(251,159,o),
(215,201,o),
(215,256,cs),
(215,310,o),
(251,357,o),
(301,357,cs)
);
}
);
};
layerId = "2D992F1A-8218-4049-8E15-5955C72037C9";
shapes = (
{
ref = d;
},
{
pos = (540,0);
ref = caroncomb.alt;
}
);
width = 649;
}
);
unicode = 271;
},
